<svg width="14" height="14" fill="none" xmlns="http://www.w3.org/2000/svg"><path d="M11 2V1H3v1H0v3c0 1.6 1.4 3 3 3 0 0 .5 2 3 2v1H4s-1 1.5-1 2h8c0-.4-1-2-1-2H8v-1c2.5 0 3-2 3-2 1.6-.2 3-1.4 3-3V2h-3ZM3 6c-.5 0-1-.5-1-1V4h1v2Zm9-1c0 .5-.5 1-1 1V4h1v1ZM7 7c-.53043 0-1.03914-.21071-1.41421-.58579C5.21071 6.03914 5 5.53043 5 5s.21071-1.03914.58579-1.41421C5.96086 3.21071 6.46957 3 7 3s1.03914.21071 1.41421.58579C8.78929 3.96086 9 4.46957 9 5s-.21071 1.03914-.58579 1.41421C8.03914 6.78929 7.53043 7 7 7Z" fill="#000"/></svg>