<svg width="36" height="36" fill="none" xmlns="http://www.w3.org/2000/svg"><path fill-rule="evenodd" clip-rule="evenodd" d="M29 4H7v2H3c-.55225 0-1 .44769-1 1v6c0 2.7614 2.23853 5 5 5 0 4.4183 3.5817 8 8 8h1v3h-3c-1.6569 0-4 1.3431-4 3v1h18v-1c0-1.6569-2.3431-3-4-3h-3v-3h1c4.4182 0 8-3.5817 8-8 2.7615 0 5-2.2386 5-5V7c0-.55231-.4478-1-1-1h-4V4Zm3 9c0 1.6569-1.3431 3-3 3V8h3v5ZM7 16c-1.65686 0-3-1.3431-3-3V8h3v8Zm11.3805-8.32916 1.3259 4.08066c.0535.1648.2071.2764.3804.2764h4.2906c.3875 0 .5486.4958.2351.7236l-3.4711 2.5219c-.1403.1019-.1989.2824-.1454.4472l1.3259 4.0807c.1198.3686-.302.675-.6155.4472l-3.4713-2.5219c-.1401-.1019-.3299-.1019-.4702 0l-3.4712 2.5219c-.3135.2278-.7352-.0786-.6155-.4472l1.3258-4.0807c.0536-.1648-.005-.3453-.1452-.4472l-3.4712-2.5219c-.3135-.2278-.1524-.7236.2351-.7236h4.2906c.1734 0 .3269-.1116.3804-.2764l1.3259-4.08066c.1198-.36853.6411-.36853.7609 0Z" fill="#000"/></svg>