<svg width="18" height="18" fill="none" xmlns="http://www.w3.org/2000/svg"><path d="M9.78028 5.89666c-.30163-.43773-.732-.6566-1.29111-.6566-.55544 0-.98397.21703-1.2856.65108-.30163.43037-.45428 1.06305-.45796 1.89804v.39175c0 .82028.15082 1.45664.45244 1.90907.30163.4525.73568.6787 1.30215.6787.55544 0 .98213-.217 1.28008-.6511.29792-.43772.44872-1.07409.45242-1.90908v-.39175c0-.84235-.1508-1.48239-.45242-1.92011Z" fill="#000"/><path fill-rule="evenodd" clip-rule="evenodd" d="M3 15h11l3 3V4c0-1.08933-.9107-2-2-2H3c-1.1 0-2 .9-2 2v9c0 1.0893.91067 2 2 2Zm8.4907-4.7389c-.2795.5959-.6805 1.0557-1.2028 1.3794-.51865.3237-1.11455.4855-1.7877.4855-.66579 0-1.25985-.16-1.78218-.48-.52233-.32-.92695-.7762-1.21386-1.3684-.28692-.59589-.43221-1.28007-.43589-2.05253v-.39726c0-.79086.14162-1.48607.42485-2.08565.28692-.60325.6897-1.06489 1.20835-1.38491.52233-.3237 1.11823-.48555 1.7877-.48555.66946 0 1.26352.16185 1.78213.48555.5224.32002.9252.78166 1.2084 1.38491.2869.59958.4304 1.29296.4304 2.08013v.35864c0 .79086-.1398 1.48423-.4194 2.08017Z" fill="#000"/></svg>