<svg width="18" height="18" fill="none" xmlns="http://www.w3.org/2000/svg"><path fill-rule="evenodd" clip-rule="evenodd" d="M9 17c4.4183 0 8-3.5817 8-8 0-4.41828-3.5817-8-8-8-4.41828 0-8 3.58172-8 8 0 4.4183 3.58172 8 8 8Zm.24997-3.45c-.15032.2676-.42621.4564-.73.5-.31966 0-.61583-.0577-.85-.29l-3-3c-.32876-.3985-.29359-1.00098.07941-1.35844.37297-.35746.97648-.367 1.36059-.02156l2.05 2L11.72 5.1c.2674-.47328.886-.64594 1.36-.38.4732.26747.6459.88602.38 1.36l-4.21003 7.47Z" fill="#5EBA7D"/></svg>