<svg width="14" height="14" fill="none" xmlns="http://www.w3.org/2000/svg"><path d="M1.5184 9.0303 4.95451 7 1.5184 4.9697c-.30158-.15181-.4081-.50119-.23605-.77431l.49808-.7908c.17202-.27312.55535-.36326.84956-.19976L5.97726 5.3762l-.08885-3.80165C5.88104 1.25924 6.15785 1 6.50193 1h.99615c.34405 0 .62088.25924.61349.57455L8.02275 5.3762 11.37 3.20485c.2942-.1635.6776-.07336.8496.19976l.4981.7908c.172.27312.0655.6225-.2361.77431L9.04549 7l3.43611 2.0303c.3016.15181.4081.50119.2361.77431l-.4981.79079c-.172.2731-.5554.3633-.8496.1998L8.02275 8.6238l.08885 3.8017c.00736.3153-.26947.5745-.61352.5745H6.5019c-.34405 0-.62088-.2592-.61352-.5745l.08888-3.8017-3.34727 2.1713c-.29419.1635-.67754.0734-.84956-.1997l-.49808-.79081c-.17203-.27312-.06553-.62248.23605-.77429Z" fill="#000"/></svg>