<svg width="14" height="14" fill="none" xmlns="http://www.w3.org/2000/svg"><path fill-rule="evenodd" clip-rule="evenodd" d="M12 1c-.5523 0-1 .44772-1 1v.47368L4.0483 4.66896C3.42426 4.86602 3 5.44491 3 6.09933v1.80134c0 .63739.40247 1.20313 1 1.41422V10.5C4 11.8807 5.11929 13 6.5 13c1.24964 0 2.28514-.9169 2.47047-2.1146L11 11.5263V12c0 .5523.4477 1 1 1s1-.4477 1-1V2c0-.55228-.4477-1-1-1ZM5 9.63158l2.99799.94672C7.95725 11.3703 7.30216 12 6.5 12c-.82843 0-1.5-.6716-1.5-1.5v-.86842Z" fill="#000"/><path d="M1 5.5c0-.27614.22386-.5.5-.5s.5.22386.5.5v3c0 .27614-.22386.5-.5.5S1 8.77614 1 8.5v-3Z" fill="#000"/></svg>