<svg width="18" height="18" fill="none" xmlns="http://www.w3.org/2000/svg"><path d="M9 4.5c.8325 0 1.5-.675 1.5-1.5 0-.285-.075-.5475-.2175-.7725L9 0 7.7175 2.2275C7.575 2.4525 7.5 2.715 7.5 3c0 .825.675 1.5 1.5 1.5ZM12.45 11.9925l-.8025-.8025-.81.8025c-.975.975-2.685.9825-3.6675 0l-.8025-.8025-.8175.8025c-.4875.4875-1.14.7575-1.83.7575-.5475 0-1.3-.1725-1.72-.4575V15c0 1.1046.89543 2 2 2h10c1.1046 0 2-.8954 2-2v-2.7075c-.42.285-1.1725.4575-1.72.4575-.69 0-1.3425-.27-1.83-.7575Z" fill="#000"/><path d="M13.75 7H10V5H8v2H4.25C3.005 7 2 8.005 2 9.25v.905c0 .81.91 1.47 1.72 1.47.39 0 .765-.15 1.035-.4275L6.36 9.6l1.5975 1.5975c.555.555 1.5225.555 2.0775 0L11.64 9.6l1.5975 1.5975c.2775.2775.645.4275 1.035.4275.81 0 1.7275-.66 1.7275-1.47V9.25C16.0075 8.005 14.995 7 13.75 7Z" fill="#000"/></svg>