<svg width="18" height="18" fill="none" xmlns="http://www.w3.org/2000/svg"><path fill-rule="evenodd" clip-rule="evenodd" d="M10 8h2.8668c.663 0 1.1701-.47115 1.1311-1.04327l-.312-5.04808C13.6079 1.40385 13.1398 1 12.5157 1H5.44525c-.58506 0-1.09211.40385-1.13111.90865l-.31203 5.04808C3.9631 7.52885 4.47015 8 5.13322 8H8v1H4.56134C3.71375 9 3 9.45714 3 10c0 .5429.71375 1 1.56134 1H8v2.102c-.95631.1936-1.87629.663-2.65101 1.4081l-.00183.0015c-.47974.0736-.84716.4881-.84716.9884 0 .5523.44772 1 1 1s1-.4477 1-1c0-.1714-.04311-.3327-.11908-.4737 1.60589-1.0661 3.63008-1.0634 5.23378.0082-.0732.139-.1147.2974-.1147.4655 0 .5523.4477 1 1 1s1-.4477 1-1c0-.4959-.361-.9075-.8345-.9864l-.0031-.0035c-.7727-.7532-1.6976-1.2246-2.6624-1.4143V11h3.4387C14.2862 11 15 10.5714 15 10c0-.54286-.7138-1-1.5613-1H10V8Z" fill="#000"/></svg>