<svg width="18" height="18" fill="none" xmlns="http://www.w3.org/2000/svg"><g opacity=".4" fill="#000"><path d="M12.5 3c-.2761 0-.5-.22386-.5-.5v-2c0-.276142.2239-.5.5-.5s.5.223858.5.5v2c0 .27614-.2239.5-.5.5ZM14 4.5c0-.27614.2239-.5.5-.5h2c.2761 0 .5.22386.5.5s-.2239.5-.5.5h-2c-.2761 0-.5-.22386-.5-.5ZM13.6464 2.64645c-.1952.19526-.1952.51184 0 .7071.1953.19527.5119.19527.7072 0l1.5-1.5c.1952-.19526.1952-.51184 0-.7071-.1953-.195266-.5119-.195266-.7072 0l-1.5 1.5Z"/></g><path d="M2.57809 8.68748c.33492.45177.72705.79962 1.15239 1.06322l2.07107-3.74755c.17329-.28923.39326-.55848.67918-.74273.43963-.28331.98675-.26255 1.40782-.01582.00412-.00085.00743-.00163.0098-.00238.32618-.04304 1.60868-.0638 2.73305-.08199.8145-.01318 1.5461-.02502 1.7709-.04302.4882-.03909.6778-.29734.6523-.75003-.0254-.45269-.4406-.64813-.8974-.60316l-6.76227.365c-.05949.01334-.11167-.06454-.07396-.11366l1.02922-1.35115c.29175-.3999.16235-.97168-.21453-1.26788-.40173-.31578-.95785-.25833-1.246.13611-.58907.72402-1.14867 1.47132-1.69876 2.22518-1.07892 1.47286-1.83004 3.28795-.61281 4.92986ZM12.6796 9.10154c-.2493-.00488-.4992-.00678-.7494-.00655.1119-.22413.1784-.46641.1683-.72641-.0072-.18448-.0615-.36735-.1514-.53285l.7325.01578c.4132.02807.6797.34953.6797.59379 0 .24427-.2314.66458-.6797.65624Z" fill="#FFC166"/><path d="m10.896 7.15292 2.6059-.02325c.3886-.04196.6546-.38824.5912-.76742-.0691-.41679-.459-.64348-.8627-.64348l-2.6614.04485c.352.36678.4768.89954.327 1.3893ZM5.52066 17.0032c-2.0439 0-3.15415-1.7807-3.6948-3.5246-.27799-.8908-.54505-1.7854-.77585-2.6898-.145262-.4664.13978-.94734.6327-1.082.4624-.12636.99878.11021 1.14628.5827l.47247 1.6315c.01701.0595.11064.064.13536.0083l3.01629-5.55426c.23591-.39374.59832-.72028.96875-.53128.39636.20258.47221.5347.25 1.01566-.08284.17942-.33664.65898-.63325 1.21943-.50888.96154-1.14376 2.16115-1.25738 2.49155-.01349.0395-.03076.2141.07813.289.10888.075.27916-.0574.29687-.0859l2.71875-4.14066c.19966-.34101.62715-.65971.97372-.48203.3423.1749.4621.59479.2644.93198L7.37109 11.1992c-.01834.0312-.13673.3165.05077.4337.1875.1171.39843-.0469.41973-.0719l2.34951-3.25629c.2686-.31518.513-.51565.8948-.32031.3448.17582.3362.6058.0625.96094-.4454.60705-.8076 1.13206-1.1595 1.64236-.40447.5864-.79545 1.1532-1.28387 1.8025-.01981.0278-.12307.2348 0 .3676.12308.1329.27933 0 .27933 0l1.89844-2.3046c.2278-.2842.4809-.4088.7978-.2468.2835.1443.2176.5859.0867.809-.5311.9062-1.1952 1.7129-1.85972 2.52-1.15279 1.4003-2.35681 3.4678-4.38692 3.4678Z" fill="#FFC166"/></svg>