<svg width="18" height="18" fill="none" xmlns="http://www.w3.org/2000/svg"><path fill-rule="evenodd" clip-rule="evenodd" d="M5 3c-1.10457 0-2 .89543-2 2v7c0 1.1046.89543 2 2 2h10c1.1046 0 2-.8954 2-2V5c0-1.10457-.8954-2-2-2H5Zm0 2.5c0-.27614.22386-.5.5-.5h9c.2761 0 .5.22386.5.5s-.2239.5-.5.5h-9c-.27614 0-.5-.22386-.5-.5ZM5.5 8h9c.2761 0 .5.22386.5.5s-.2239.5-.5.5h-9c-.27614 0-.5-.22386-.5-.5s.22386-.5.5-.5ZM5 11.5c0-.2761.22386-.5.5-.5h6c.2761 0 .5.2239.5.5s-.2239.5-.5.5h-6c-.27614 0-.5-.2239-.5-.5Z" fill="#000"/><path opacity=".4" d="M15.0869 14.9927H4.7417c-1.51878 0-2.75-1.2312-2.75-2.75V4.89746C1.37536 5.48893.991699 6.321.991699 7.24268v5.50002c0 1.7949 1.455081 3.25 3.250001 3.25h8.5c.9217 0 1.7537-.3837 2.3452-1Z" fill="#000"/></svg>