<svg width="17" height="18" fill="none" xmlns="http://www.w3.org/2000/svg"><path d="M5 6c0-1.08933.91067-2 2-2h4.5L15 7.5V15c0 1.0893-.9107 2-2 2H7c-1.08933 0-2-.9107-2-2V6Zm6-1.25V8h3.25L11 4.75Z" fill="#000"/><path opacity=".4" d="M10 1c.5304 0 1.0391.21071 1.4142.58579C11.7893 1.96086 12 2.46957 12 3H6c-.53043 0-1.03914.21071-1.41421.58579C4.21071 3.96086 4 4.46957 4 5v9c-.53043 0-1.03914-.2107-1.41421-.5858C2.21071 13.0391 2 12.5304 2 12V4c0-.79565.31607-1.55871.87868-2.12132C3.44129 1.31607 4.20435 1 5 1h5Z" fill="#000"/></svg>