<svg width="18" height="18" fill="none" xmlns="http://www.w3.org/2000/svg"><path d="M9 12c1.6569 0 3-1.3431 3-3 0-1.65685-1.3431-3-3-3-1.65685 0-3 1.34315-3 3 0 1.6569 1.34315 3 3 3Z" fill="#000"/><path fill-rule="evenodd" clip-rule="evenodd" d="M9 0c-.55229 0-1 .447715-1 1v1.07089C4.93431 2.5094 2.5094 4.93431 2.07089 8H1c-.552285 0-1 .44771-1 1s.447715 1 1 1h1.07089C2.5094 13.0657 4.93431 15.4906 8 15.9291V17c0 .5523.44771 1 1 1s1-.4477 1-1v-1.0709c3.0657-.4385 5.4906-2.8634 5.9291-5.9291H17c.5523 0 1-.44771 1-1s-.4477-1-1-1h-1.0709C15.4906 4.93431 13.0657 2.5094 10 2.07089V1c0-.552285-.44771-1-1-1Zm5 9c0 2.7614-2.2386 5-5 5-2.76142 0-5-2.2386-5-5 0-2.76142 2.23858-5 5-5 2.7614 0 5 2.23858 5 5Z" fill="#000"/></svg>