<svg width="18" height="18" fill="none" xmlns="http://www.w3.org/2000/svg"><path d="M13.92 3.00004H4c.06731-.60073.61775-1.05191 1.22-1h7.48c.6023-.05191 1.1527.39927 1.22 1ZM14.49 4.00004c.6023-.05191 1.1527.39927 1.22 1H2.29004c.06722-.59258.60501-1.04075 1.2-1H14.49ZM1 7.00004h16c-.0673-.60073-.6177-1.05191-1.22-1H2.22c-.60225-.05191-1.15269.39927-1.22 1Z" fill="#5FBA7D"/><path fill-rule="evenodd" clip-rule="evenodd" d="M2.5 8C1.67157 8 1 8.67157 1 9.5v5c0 .8284.67157 1.5 1.5 1.5h13c.8284 0 1.5-.6716 1.5-1.5v-5c0-.82843-.6716-1.5-1.5-1.5h-13ZM5 15c-1.65685 0-3-1.3431-3-3s1.34315-3 3-3h8c1.6569 0 3 1.3431 3 3s-1.3431 3-3 3H5Z" fill="#5FBA7D"/><path d="M8.99998 13.9C10.0493 13.9 10.9 13.0493 10.9 12c0-1.0494-.8507-1.9-1.90002-1.9-1.04935 0-1.9.8506-1.9 1.9 0 1.0493.85065 1.9 1.9 1.9Z" fill="#1A1104"/></svg>