<svg width="18" height="18" fill="none" xmlns="http://www.w3.org/2000/svg"><path d="M15 1c1.1046 0 2 .89543 2 2v12c0 1.1046-.8954 2-2 2H3c-1.10457 0-2-.8954-2-2V3c0-1.10457.89543-2 2-2h12Zm-3.0048 5.02065h-1.1789l1.3946 5.24105c.3673.8543 1.1689 1.0934 1.6555.1322l.0616-.1322 1.3921-5.24105h-1.1793l-1.0702 4.11605-1.0754-4.11605Zm-1.9566 0H7.75149c-.36994.00929-.66932.2917-.70912.64955l-.00428.09932v4.52838c.00929.3702.2923.6693.65054.7085l.09942.0041h2.25055v-1.0702H8.10982V9.25781h1.17887V8.18753H8.10982V7.08912h1.92848l.0003-1.06847Zm-5.31984-.00109H3.00385v5.98884h1.67944c1.33016.0021 1.75038-1.0294 1.75038-1.7102l-.00036-2.56734c-.00036-.68119-.4318-1.7113-1.71455-1.7113Zm.05972 1.1206c.14044 0 .28124.05248.42167.15744.14008.10497.21065.26278.21102.47271v2.52099c0 .2103-.07022.3677-.21066.4727-.14043.105-.28123.1574-.42167.1574h-.6316V7.14016h.63124Z" fill="#010101"/></svg>