<svg width="14" height="14" fill="none" xmlns="http://www.w3.org/2000/svg"><path d="m3.52117 7.38-1.9421 1.87527C.552856 8.08315 0 7 0 7s2.625-5.14286 7.0525-5.14286c.65883 0 1.27822.11948 1.85489.32201L7.43805 3.59792C7.29463 3.58044 7.14844 3.57143 7 3.57143 5.075 3.57143 3.5 5.11429 3.5 7c0 .12851.00718.25529.02117.38ZM5.2918 9.99321c.506.27749 1.089.43539 1.7082.43539 1.9425 0 3.5-1.52574 3.5-3.4286 0-.62415-.1706-1.21073-.4694-1.71625L8.70339 6.60277C8.73388 6.73014 8.75 6.86312 8.75 7c0 .95143-.77875 1.71429-1.75 1.71429-.13093 0-.25837-.01387-.38087-.04019L5.2918 9.99321Zm6.227-6.18841C13.1121 5.26048 14 7 14 7s-2.625 5.1429-6.9475 5.1429c-1.14646 0-2.17205-.3449-3.06252-.8559L2.26625 13 .875 11.6371 11.8913 1l1.2337 1.20857-1.6062 1.59623Z" fill="#000"/></svg>