<svg width="18" height="18" fill="none" xmlns="http://www.w3.org/2000/svg"><path opacity=".4" fill-rule="evenodd" clip-rule="evenodd" d="M1.06189 8C1.02104 8.32759 1 8.66134 1 9c0 4.4183 3.58172 8 8 8 4.4183 0 8-3.5817 8-8 0-.33866-.021-.67241-.0619-1H16l-1 .5-1-.5h-1.5l-1.5.5L9 8l-.5.5-1-.5H6l-1 .5-.5-.5h-1l-.5.5L2 8h-.93811Z" fill="#FFAA3B"/><path opacity=".3" d="M3.5 8h.41377c1.72601 4.0553 5.71409 6.9161 10.37993 6.9982C12.8832 16.244 11.0299 17 9 17c-4.41828 0-8-3.5817-8-8 0-.33866.02104-.67241.06189-1H2l1 .5.5-.5Z" fill="#FF9700"/><path d="M6.0659 14.6796c.07513.1039.178.1853.29722.2353.11922.05.25016.0665.37832.0477 1.49919-.1626 3.01201-.1622 4.51106.0012.1276.0166.2573-.0015.3752-.0524.1178-.0508.2192-.1325.2932-.2362.0747-.1027.12-.2234.1311-.3493.0111-.126-.0124-.2525-.0681-.3664-.2993-.5135-.7373-.9352-1.2655-1.2183-.5281-.2831-1.12569-.4164-1.72619-.3852-.60051-.0312-1.19805.1021-1.7262.3852-.52815.2831-.96622.7048-1.26552 1.2183-.05607.1147-.07959.2421-.06808.3689.01152.1268.05764.2481.13349.3512Z" fill="#1A1104"/><path fill-rule="evenodd" clip-rule="evenodd" d="M7.35877 4.3689c.17632.22927.4094.41907.68133.55415.29892.14848.63492.22595.97631.22509.34139-.00086.67691-.08001.9749-.22999.25869-.13022.48169-.3101.65359-.5263.1476.9267.3551 2.28606.3551 2.60813 0 .5-4 .5-4 0 0-.32474.21091-1.70404.35877-2.63108Z" fill="#F75D37"/><path opacity=".67" d="M15.3319 2.43096c-.4549-.3483-1.0944-.54236-1.7358-.52677-.054-.39493-.2773-.76478-.6348-1.051184-.347-.264527-.7924-.439394-1.2744-.500351-.4821-.060957-.9768-.004982-1.4156.160162-.50689-.342-1.20282-.50343117-1.8709-.4339875C8.01235.126828 7.64679.250633 7.33867.438405 6.9162.318102 6.45785.293208 6.0176.366656c-.79786.13311-1.47526.602078-1.71829 1.201734-.10894.26877-.13373.55356-.07235.83112-.7669.06639-1.46396.44918-1.79491.98568-.61001.98887.25908 2.39915 1.60701 2.59966.95697.14236 2.12183-.14781 2.62277-.78316.21473-.27234.33161-.58368.33869-.90218.21205.26047.50685.47508.85657.62356.34972.14848.74284.22595 1.14225.22509.39942-.00086.79197-.08001 1.14056-.22999.3487-.14999.6419-.36585.8521-.62723.0343.42769.2639.83228.6484 1.14226.3845.30997.899.50537 1.4525.55165.5536.04629 1.1106-.05953 1.5726-.29874.8145-.42175 1.4196-1.4242 1.3247-2.17062-.052-.40877-.2843-.79152-.6583-1.08453Z" fill="#FFC166"/><path opacity=".78" fill-rule="evenodd" clip-rule="evenodd" d="M7.39518 2c1.19282 0 2.30983-.20175 3.26752-.55334.8943 1.21204 2.8792 2.13791 5.3212 2.44429-.0983.6776-.6345 1.44108-1.3184 1.79519-.462.23921-1.019.34502-1.5726.29874-.5535-.04628-1.068-.24168-1.4525-.55165-.3845-.30998-.6141-.71457-.6484-1.14226-.2102.26138-.5034.47724-.8521.62723-.34859.14998-.74114.22913-1.14056.22999-.39941.00086-.79253-.07661-1.14225-.22509-.34972-.14848-.64452-.36309-.85657-.62356-.00708.3185-.12396.62984-.33869.90218-.50094.63535-1.6658.92552-2.62277.78316-1.34793-.20052-2.21702-1.61079-1.60701-2.59966.33095-.5365 1.02801-.91929 1.79491-.98568-.06138-.27756-.03658-.56235.07235-.83112.00723-.01784.01484-.03556.02283-.05316C5.23528 1.82437 6.28223 2 7.39518 2Z" fill="#FFC166"/><path opacity=".52" fill-rule="evenodd" clip-rule="evenodd" d="M11.0885 3.47125C10.2595 3.80869 9.31247 4 8.3068 4c-.95405 0-1.85529-.17217-2.65307-.47794-.99715.26746-2.16307.43566-3.41678.47098-.06164.88027.7143 1.82998 1.80211 1.9918.95697.14236 2.12183-.1478 2.62277-.78316.21473-.27234.33161-.58368.33869-.90218.21205.26047.50685.47508.85657.62356.34972.14848.74284.22595 1.14225.22509.39942-.00086.79197-.08001 1.14056-.22999.3487-.14999.6419-.36585.8521-.62723.0343.42769.2639.83228.6484 1.14226.3845.30997.899.50537 1.4525.55165.5536.04629 1.1106-.05953 1.5726-.29874.3512-.18185.6635-.47166.8975-.80235-1.7639-.21566-3.3181-.71957-4.4745-1.4125Z" fill="#F75D37"/><circle cx="11" cy="10.5" r="1.35" fill="#1A1104"/><circle cx="7.00314" cy="10.5016" r="1.35" fill="#1A1104"/><circle opacity=".6" cx="3.5" cy="6.5" r=".5" fill="#000"/><circle opacity=".6" cx="14.5" cy=".5" r=".5" fill="#000"/><circle opacity=".6" cx="14.5" cy="6.5" r=".5" fill="#000"/><circle opacity=".6" cx="16.5" cy="4.5" r=".5" fill="#000"/><circle opacity=".6" cx="3.5" cy=".5" r=".5" fill="#000"/><circle opacity=".6" cx="1.5" cy="3.5" r=".5" fill="#000"/></svg>