<svg width="18" height="18" fill="none" xmlns="http://www.w3.org/2000/svg"><circle opacity=".4" cx="9" cy="9" r="8" fill="#FFAA3B"/><path opacity=".3" d="M8.41001 17c-1.17315-.9639-2.1114-2.1823-2.74359-3.5628-.63218-1.3805-.9417-2.8869-.90507-4.40481.03662-1.51793.41842-3.00759 1.11645-4.356C6.57582 3.32798 7.57174 2.15623 8.79001 1.25c.10035-.07513.19403-.15877.28-.25-1.58913-.015227-3.14679.44319-4.47434 1.31679-1.32755.8736-2.36483 2.1228-2.97956 3.58829-.61474 1.46549-.779068 3.08087-.47204 4.64012.30703 1.5593 1.07151 2.9918 2.19594 4.1148 1.3504 1.3689 3.15219 2.2005 5.07 2.34Z" fill="#FF9700"/><path d="M7.34998 7.99998c.36257-.02069.66638-.35721.65-.72v-.9c0-.87998-.65-1.78-1.52-1.78-.91748 0-1.47998.90002-1.48 1.79v.89c-.01638.36279.28742.69931.65.72h1.7ZM12.42 9.99999c-2.2662.25541-4.55385.25541-6.82001 0-.83149-.09618-1.45043.80241-1.09 1.55001.91207 1.5759 2.60719 2.45 4.49 2.45 1.92191 0 3.60561-.8706 4.52001-2.46.3582-.749-.2726-1.64087-1.1-1.54001ZM12.35 7.99998h-1.7c-.3626-.02069-.6664-.35721-.65002-.72v-.89c0-.88998.57812-1.79 1.48002-1.79.87 0 1.52.90002 1.52 1.78v.9c.0164.36279-.2874.69931-.65.72Z" fill="#1A1104"/></svg>