<svg width="18" height="18" fill="none" xmlns="http://www.w3.org/2000/svg"><circle opacity=".4" cx="9" cy="9" r="8" fill="#FFAA3B"/><path opacity=".3" d="M8.41007 17c-1.17315-.9639-2.1114-2.1823-2.74358-3.5628-.63219-1.3805-.94171-2.8869-.90508-4.40481.03662-1.51793.41842-3.00759 1.11645-4.356C6.57588 3.32798 7.5718 2.15623 8.79007 1.25c.10035-.07513.19403-.15877.28-.25-1.58913-.015227-3.14679.44319-4.47434 1.31679-1.32755.8736-2.36483 2.1228-2.97956 3.58829-.61474 1.46549-.779067 3.08087-.47204 4.64012.30703 1.5593 1.07151 2.9918 2.19594 4.1148 1.35041 1.3689 3.15219 2.2005 5.07 2.34Z" fill="#FF9700"/><path d="M6.49994 7.55001c.86157 0 1.56-.69396 1.56-1.55s-.69843-1.55-1.56-1.55c-.86156 0-1.56.69396-1.56 1.55s.69844 1.55 1.56 1.55ZM8.99996 14.62c.50632 0 1.00124-.1501 1.42224-.4314.421-.2813.7491-.6811.9429-1.1489.1938-.4678.2444-.9825.1457-1.4791-.0988-.4966-.3426-.9528-.7006-1.3108-.3581-.35801-.81422-.60183-1.31081-.70061-.49659-.09878-1.01132-.04808-1.4791.14568-.46778.19376-.86759.52193-1.14889.94283-.2813.421-.43144.916-.43144 1.4223-.00132.3366.06399.67.19218.9812.12818.3112.3167.594.55468.8319.23798.238.52072.4265.83191.5547.31119.1282.64468.1935.98123.1922ZM13.0599 6.00001c0 .85604-.6984 1.55-1.56 1.55-.8615 0-1.55996-.69396-1.55996-1.55s.69846-1.55 1.55996-1.55c.8616 0 1.56.69396 1.56 1.55Z" fill="#1A1104"/></svg>