<svg width="18" height="18" fill="none" xmlns="http://www.w3.org/2000/svg"><circle opacity=".4" cx="9" cy="9" r="8" fill="#FFAA3B"/><path opacity=".3" d="M8.41007 17c-1.17315-.9639-2.1114-2.1823-2.74358-3.5628-.63219-1.3805-.94171-2.8869-.90508-4.40481.03662-1.51793.41842-3.00759 1.11645-4.356C6.57588 3.32798 7.5718 2.15623 8.79007 1.25c.10035-.07513.19403-.15877.28-.25-1.58913-.015227-3.14679.44319-4.47434 1.31679-1.32755.8736-2.36483 2.1228-2.97956 3.58829-.61474 1.46549-.779067 3.08087-.47204 4.64012.30703 1.5593 1.07151 2.9918 2.19594 4.1148 1.35041 1.3689 3.15219 2.2005 5.07 2.34Z" fill="#FF9700"/><path d="M6.5 8C7.32843 8 8 7.32843 8 6.5S7.32843 5 6.5 5 5 5.67157 5 6.5 5.67157 8 6.5 8ZM12.546 11.0524C11.4706 10.3632 10.2467 10 9.00038 10c-1.24634 0-2.47018.3632-3.54563 1.0524-.35077.2353-.52906.7256-.42183 1.1602.14541.5893.8197.9877 1.37455.6283.77811-.4929 1.66131-.7524 2.56043-.7524.89912 0 1.7823.2595 2.5604.7524.447.3044 1.0608.129 1.3263-.3376.2693-.4734.1475-1.1403-.3086-1.4509ZM13 6.5c0 .82843-.6716 1.5-1.5 1.5S10 7.32843 10 6.5 10.6716 5 11.5 5s1.5.67157 1.5 1.5Z" fill="#1A1104"/></svg>