<svg width="18" height="18" fill="none" xmlns="http://www.w3.org/2000/svg"><circle opacity=".4" cx="9" cy="9" r="8" fill="#FFAA3B"/><path opacity=".3" d="M8.41007 17c-1.17315-.9639-2.1114-2.1823-2.74358-3.5628-.63219-1.3805-.94171-2.8869-.90508-4.40481.03662-1.51793.41842-3.00759 1.11645-4.356C6.57588 3.32798 7.5718 2.15623 8.79007 1.25c.10035-.07513.19403-.15877.28-.25-1.58913-.015227-3.14679.44319-4.47434 1.31679-1.32755.8736-2.36483 2.1228-2.97956 3.58829-.61474 1.46549-.779067 3.08087-.47204 4.64012.30703 1.5593 1.07151 2.9918 2.19594 4.1148 1.35041 1.3689 3.15219 2.2005 5.07 2.34Z" fill="#FF9700"/><path d="M5.65466 5.00013c-.37922-.00794-.64878.35234-.65459.70664v.54664c-.00619.84999.59803 1.71554 1.4996 1.7466.91055-.00753 1.52352-.89706 1.4996-1.7466v-.54664c-.00585-.35735-.27402-.71461-.65458-.70664H5.65466ZM12.8741 11.641c-.9479-1.1924-2.382-1.65237-3.85762-1.6405-1.47675-.01151-2.90849.4465-3.85759 1.6405-.245.3335-.23612 1.1086 0 1.4299.22192.3191.58954.4219.9611.4219 1.89639-.1529 3.80442-.1529 5.70081 0 .376.0426.7656-.1168.9743-.3984.2544-.297.2932-1.1102.079-1.4534ZM10.6573 5.00013h1.6967c.3382-.00006.639.32938.6453.70664v.54664c.024.84819-.5874 1.73117-1.4937 1.7466-.9026-.03097-1.51176-.89388-1.5055-1.7466v-.54664c.0058-.3554.2775-.71456.6572-.70664Z" fill="#1A1104"/></svg>