<svg width="18" height="18" fill="none" xmlns="http://www.w3.org/2000/svg"><path d="M6.00134 18c1.65599 0 2.99999-1.344 2.99999-3v-3H6.00134c-1.656 0-3 1.344-3 3s1.344 3 3 3Z" fill="#0ACF83"/><path d="M3.00134 8.99999c0-1.65599 1.344-2.99999 3-2.99999h2.99999v6H6.00134c-1.656 0-3-1.344-3-3.00001Z" fill="#A259FF"/><path d="M3.0014 2.99999C3.0014 1.344 4.3454 0 6.0014 0h2.99999v5.99999H6.0014c-1.656 0-3-1.344-3-3Z" fill="#F24E1E"/><path d="M9.00128 0h3.00002c1.656 0 3 1.344 3 2.99999 0 1.656-1.344 3-3 3H9.00128V0Z" fill="#FF7262"/><path d="M15.0013 8.99999c0 1.65601-1.344 3.00001-3 3.00001s-3.00002-1.344-3.00002-3.00001C9.00128 7.344 10.3453 6 12.0013 6c1.656 0 3 1.344 3 2.99999Z" fill="#1ABCFE"/></svg>