<svg width="14" height="14" fill="none" xmlns="http://www.w3.org/2000/svg"><path d="M6.21185.00845254C6.88741 1.84265 6.5538 2.86541 5.77816 3.6515c-.81735.88751-2.12677 1.54681-3.02752 2.84005C1.5413 8.22432 1.3328 12.0111 5.69476 13c-1.83486-.9805-2.22686-3.82055-.25021-5.58713-.50876 1.71587.44203 2.81473 1.61801 2.41743 1.1593-.39727 1.91826.448 1.89324 1.4116-.01668.6593-.25855 1.2171-.94245 1.5299C10.8657 12.2731 12 9.88101 12 8.07217c0-2.40052-2.11009-2.72171-1.0425-4.74187-1.26776.10988-1.69311.95514-1.57634 2.32445.07506.91287-.85071 1.52145-1.5513 1.12418-.55879-.34655-.55045-1.00585-.05004-1.50455C8.82236 4.23472 9.23937 1.8173 6.21185.0169051L6.19517 0l.01668.00845254Z" fill="#000"/></svg>