<svg width="18" height="18" fill="none" xmlns="http://www.w3.org/2000/svg"><rect x="1" y="3" width="16" height="12" rx="2" fill="#3F51B5"/><path d="M7 5.27765 4.0816 3H3c-.31964 0-.62177.07495-.88971.20831L7 7H5.38611L1.34314 3.87946l.01343-.0196c-.11261.16205-.20191.34149-.26294.53357-.01251.03937-.02387.07929-.03394.11963L4.31006 7H1v1h7V3H7v2.27765ZM1 11v-1h7v5H7v-3.144l-4.10565 3.1413c-.28394-.0148-.55225-.0889-.79273-.2099L7.00848 11H5.37183l-4.03357 3.1133C1.12463 13.795 1 13.4121 1 13v-.326L3.1449 11H1ZM10 15h1v-2.3024L13.9501 15H15c.3252 0 .6322-.0776.9036-.2153L11 11h1.6369l4.0278 3.1088c.127-.1903.2223-.4035.2782-.6322L13.7061 11H17v-1h-7v5ZM11 3v3.15002l4.1129-3.14691c.2831.01575.5506.09046.7902.21192L10.9993 7h1.6366l4.0285-3.10938C16.8764 4.20807 17 4.5896 17 5v.33209L14.8629 7H17v1h-7V3h1Z" fill="#FEFEFE"/><path d="M10 3H8v5H1v2h7v5h2v-5h7V8h-7V3Z" fill="#E53935"/><path d="M2.11029 3.20831c-.30365.15107-.56348.37714-.75525.65381l-.0119.01734L5.38611 7H7v-.01758L2.11029 3.20831ZM1.33826 14.1133c.19146.2853.45453.5185.76336.6741L7.00848 11H5.37183l-4.03357 3.1133ZM16.6647 14.1088c-.1906.2857-.4529.5196-.7611.6759L11 11h1.6369l4.0278 3.1088ZM12.6359 7l4.0285-3.10938c-.1908-.28564-.4531-.51934-.7613-.67559L10.9993 7h1.6366Z" fill="#E53935"/></svg>