<svg width="36" height="36" fill="none" xmlns="http://www.w3.org/2000/svg"><g opacity=".2" fill="#000"><path d="M22 24.0078h2.9766V28H22v3.9688h-3.9154V28H8.08271L7.875 24.1178l9.6983-15.14905H22V24.0078Zm-9.5235-.1586h5.6081v-8.6565l-.7669.5212-4.8412 8.1353ZM31 30c0 1.1046-.8954 2-2 2s-2-.8954-2-2 .8954-2 2-2 2 .8954 2 2Z"/></g><path d="M19 22.0618h3V26h-3v4.1562h-4.0404V26H4.95771L4.75 22.3295l9.6983-16.17325H19V22.0618Zm-9.6485 0h5.6081v-8.8504l-.7669.5197-4.8412 8.3307ZM29 28c0 1.1046-.8954 2-2 2s-2-.8954-2-2 .8954-2 2-2 2 .8954 2 2Z" fill="#000"/></svg>