<svg width="18" height="18" fill="none" xmlns="http://www.w3.org/2000/svg"><path d="M9 1C4.64267 1 1 4.64267 1 9c0 4.3573 3.64266 8 8 8 4.3573 0 8-3.6427 8-8 0-4.35734-3.6427-8-8-8ZM8 15.32c-1.73136-.2762-3.31607-1.2868-4.29681-2.74-.98074-1.4533-1.32491-3.30107-.93319-5.01L7 11.68v.8c0 .88.12 1.32 1 1.32v1.52Zm5.72-2c-.2-.66-1-1.32-1.72-1.32h-1v-2c0-.44-.56-1-1-1H6V7h1c.44 0 1-.56 1-1V5h2c.88 0 1.4-.72 1.4-1.6v-.33c1.9216.78114 3.3733 2.49167 3.8317 4.5147.4583 2.02303-.1144 4.1922-1.5117 5.7253v.01Z" fill="#000"/></svg>