<svg width="18" height="18" fill="none" xmlns="http://www.w3.org/2000/svg"><path fill-rule="evenodd" clip-rule="evenodd" d="M16.5129 7.9978H8.97998v3.0127h4.30452c-.1854.9998-.7489 1.476-1.596 2.0431v2.0069h2.5849c1.5123-1.3924 2.3849-3.4429 2.3849-5.87872 0-.56715-.0509-.66046-.1454-1.18398Z" fill="#4285F4"/><path fill-rule="evenodd" clip-rule="evenodd" d="M8.97997 16.9982c2.15953 0 3.97003-.7162 5.29333-1.9377l-2.5848-2.0069c-.7162.4799-1.6324.7635-2.70853.7635-2.08318 0-3.84642-1.407-4.47538-3.2974H1.83246v2.0722c1.31607 2.614 4.02093 4.4063 7.14751 4.4063Z" fill="#34A853"/><path fill-rule="evenodd" clip-rule="evenodd" d="M4.50461 10.5197c-.15997-.4799-.25086-.99253-.25086-1.51969 0-.52715.09089-1.03977.25086-1.51966V5.40808H1.83247C1.29077 6.48784.98175 7.70939.98175 9.00001c0 1.29059.30902 2.51219.85072 3.59189l2.67214-2.0722Z" fill="#FBBC05"/><path fill-rule="evenodd" clip-rule="evenodd" d="M8.97997 4.18288c1.17433 0 2.22863.40355 3.05753 1.1961l2.294-2.29403c-1.3851-1.29063-3.1956-2.08318-5.35153-2.08318-3.12658 0-5.83144 1.79233-7.14751 4.4063l2.67213 2.07227c.62896-1.89049 2.3922-3.29746 4.47538-3.29746Z" fill="#EA4335"/></svg>