<svg width="18" height="18" fill="none" xmlns="http://www.w3.org/2000/svg"><path opacity=".7" d="M9 15.7685V15h5v.7685c0 .3266-.1297.6399-.3607.8708-.2309.231-.5442.3607-.8708.3607h-2.537c-.32662 0-.63985-.1297-.8708-.3607C9.12975 16.4084 9 16.0951 9 15.7685Z" fill="#07C"/><g opacity=".4" fill="#000"><path d="M6.5 2c.27614 0 .5.22386.5.5v1c0 .27614-.22386.5-.5.5S6 3.77614 6 3.5v-1c0-.27614.22386-.5.5-.5ZM2 6.5c0-.27614.22386-.5.5-.5h1c.27614 0 .5.22386.5.5s-.22386.5-.5.5h-1c-.27614 0-.5-.22386-.5-.5ZM3.85355 3.14645c-.19526-.19527-.51184-.19527-.7071 0-.19527.19526-.19527.51184 0 .7071l1 1c.19526.19527.51184.19527.7071 0 .19527-.19526.19527-.51184 0-.7071l-1-1Z"/></g><path d="M14.9063 7.55693V1.85172c-.0175-.46289-.4208-.865537-.8837-.882317-.4559.000376-.8367.426447-.8363.882317v3.55453l-2.6302-4.04634C10.3323.954431 9.79108.776235 9.37012.969403 8.96314 1.1748 8.79461 1.68674 9 2.09373l1.5076 2.14493c-.4467-.14149-.9534-.05384-1.3266.22949l-1.21225.9381c-.85583.66553.25635 1.97363 1.08972 1.373l.53064-.32195c.28555-.15452.64529 0 .83229.243l.8164.85663c.2258.22591.3649.52409.393.84228.028.31819-.0522.77351-.2636 1.00754-.2114.23403-.3487.44697-.6784.58069-.2707.10986-.5712.12246-.85018.03576l-2.03835-.35132C8.522 7.42035 6.71812 7.26355 6.33933 7.68982c-.45417.84975-.62343 1.53905-.59141 2.50198C5.814 10.9024 9.00002 14 9.00002 14H14s1.4747-3.3082 1.5-4.5c.0254-1.19185-.4221-1.60926-.5937-1.94307Z" fill="#FFC166"/></svg>