<svg width="18" height="18" fill="none" xmlns="http://www.w3.org/2000/svg"><g opacity=".4" fill="#000"><path d="M3.85355 1.14645c-.19526-.195266-.51184-.195266-.7071 0-.19527.19526-.19527.51184 0 .7071l2 2c.19526.19527.51184.19527.7071 0 .19527-.19526.19527-.51184 0-.7071l-2-2ZM5.5 6h-2c-.27614 0-.5.22386-.5.5s.22386.5.5.5h2c.27614 0 .5-.22386.5-.5S5.77614 6 5.5 6ZM15.5 7h-2c-.2761 0-.5-.22386-.5-.5s.2239-.5.5-.5h2c.2761 0 .5.22386.5.5s-.2239.5-.5.5ZM15.8536 1.85355c.1952-.19526.1952-.51184 0-.7071-.1953-.195266-.5119-.195266-.7072 0l-2 2c-.1952.19526-.1952.51184 0 .7071.1953.19527.5119.19527.7072 0l2-2Z"/></g><path d="M8.21235 16.4868c-.44662.3737-1.02171.5579-1.60235.5132H5v-6h2l1-7.63c0-.2.23-.37.5-.37s.5.17.5.37V15c-.05834.5794-.34104 1.113-.78765 1.4868ZM10.7877 16.4868c.4466.3737 1.0217.5579 1.6023.5132H14v-6h-2l-1-7.63c0-.2-.23-.37-.5-.37s-.5.17-.5.37V15c.0583.5794.341 1.113.7877 1.4868Z" fill="#FFC166"/><g opacity=".7" fill="#07C"><path d="M2.5 11c-.82843 0-1.5.6716-1.5 1.5v3c0 .8284.67157 1.5 1.5 1.5H4v-6H2.5ZM16.5 11H15v6h1.5c.8284 0 1.5-.6716 1.5-1.5v-3c0-.8284-.6716-1.5-1.5-1.5Z"/></g></svg>