<svg width="18" height="18" fill="none" xmlns="http://www.w3.org/2000/svg"><path d="M14.1438 7.85887c-.5132.29271-.9784.66254-1.3793 1.09655-.2712.25055-.3539.70756-.6707.48209-.2613-.18573-.351-1.20728-.2885-1.84933s.1967-2.4485.2223-3.06528c.0256-.61679.3799-2.11316-.7088-2.26117-1.0886-.14799-1.2348 1.63561-1.36568 2.50313-.13086.86753-.49229 2.53456-.49229 2.53456-.13921-.30077-.48034-.48599-.80841-.43893-.56178.08059-.65241.5752-.65241 1.03759-.03091-.36543-.36915-.6671-.73572-.65619-.37534-.01279-.72606.28392-.77563.65619L5.09254 4.76487c-.38342-1.15222-2.08716-.24489-1.57288.88275.48966 1.17937.88964 2.394 1.19654 3.63355.18237.91733.22228 1.53463.37634 2.45233.22311.7123.41149 1.7087.90747 2.2665H11c.7553-.6574 1.4113-1.4208 1.9475-2.2665.5973-.904 1.3196-1.75891 1.882-2.6684.4519-.73065.3137-1.67663-.6857-1.20623Z" fill="#FFC166"/><path opacity=".7" d="M5.99997 15.7708V15H11v.7708c.0048.6659-.5479 1.2266-1.21376 1.2315H7.21369c-.6659-.0049-1.21852-.5656-1.21372-1.2315Z" fill="#07C"/><g opacity=".4" fill="#000"><path d="M7.5 0c.27614 0 .5.223858.5.5v1c0 .27614-.22386.5-.5.5S7 1.77614 7 1.5v-1c0-.276142.22386-.5.5-.5ZM0 8.5c0-.27614.223858-.5.5-.5h1c.27614 0 .5.22386.5.5s-.22386.5-.5.5h-1C.223858 9 0 8.77614 0 8.5ZM16.5 8c-.2761 0-.5.22386-.5.5s.2239.5.5.5h1c.2761 0 .5-.22386.5-.5s-.2239-.5-.5-.5h-1ZM1.14645 2.14645c.19526-.19527.51184-.19527.7071 0l1 1c.19527.19526.19527.51184 0 .7071-.19526.19527-.51184.19527-.7071 0l-1-1c-.195266-.19526-.195266-.51184 0-.7071ZM14.8536 2.85355c.1952-.19526.1952-.51184 0-.7071-.1953-.19527-.5119-.19527-.7072 0l-1 1c-.1952.19526-.1952.51184 0 .7071.1953.19527.5119.19527.7072 0l1-1Z"/></g></svg>