<svg width="18" height="18" fill="none" xmlns="http://www.w3.org/2000/svg"><path fill-rule="evenodd" clip-rule="evenodd" d="M5.24998 2c-1.49995 0-2.35.5-3.14998 1.36079C.50003 5 .500028 8.2 2.10002 10l5.99996 5.8711c.2.2.6.2.8 0L14.9 10c1.6-1.8 1.6-5 0-6.64C14.1 2.5 13.25 2 11.75 2c-1.546 0-2.74997 1-3.24997 1.89844C8.00003 3 6.49998 2 5.24998 2Zm8.60362 4.85355-2 2c-.1953.19527-.5119.19527-.7072 0-.1952-.19526-.1952-.51184 0-.7071l2-2c.1953-.19527.5119-.19527.7072 0 .1952.19526.1952.51184 0 .7071Z" fill="#F75D37"/></svg>