<svg width="18" height="18" fill="none" xmlns="http://www.w3.org/2000/svg"><path d="M9 1C4.64267 1 1 4.64267 1 9c0 4.3573 3.64266 8 8 8 4.3573 0 8-3.6427 8-8 0-4.35734-3.6427-8-8-8Zm.81 12.13c-.02.71-.55 1.15-1.24 1.13-.66-.02-1.17-.49-1.15-1.2.02-.72.56-1.18 1.22-1.16.7.03 1.2.51 1.17 1.23ZM11.77 8c-.5864.6629-1.77771 1.08507-2.05 1.97-.05359.2466-.08373.4977-.09.75 0 .05-.03.16-.18.16H7.88c-.16 0-.18-.1-.18-.15.06152-1.35341.66087-2.19859 1.83-2.88.38723-.29042.6925-.74726.6982-1.24139.0145-1.23989-1.6367-1.8182-2.3482-.71861-.21.33-.18.73-.18 1.1H5.75c0-1.97094 1.02665-3.26 3.03-3.26 1.7547 0 3.47.87389 3.47 2.83 0 .57-.2 1.05-.48 1.44Z" fill="#000"/></svg>