<svg width="19" height="18" fill="none" xmlns="http://www.w3.org/2000/svg"><path d="M2.99999 9c.00108-1.77437.59202-3.49803 1.67986-4.89982C5.76769 2.6984 7.29069 1.69805 9.00924 1.25651 10.7278.814966 12.5444.957294 14.1732 1.6611c1.6288.7038 2.9774 1.92914 3.8337 3.48324.8562 1.5541 1.1715 3.34877.8962 5.10166-.2753 1.7529-1.1255 3.3645-2.4169 4.5813-1.2914 1.2169-2.9507 1.9698-4.7168 2.1405-1.7662.1706-3.53892-.2507-5.03941-1.1978l1.47-1.47c1.15977.6119 2.48811.8271 3.78171.6125 1.2936-.2145 2.4814-.847 3.3815-1.8006.9001-.9535 1.463-2.1757 1.6027-3.4796.1396-1.30386-.1517-2.61755-.8295-3.74012S14.4317 3.9 13.2129 3.41637c-1.2189-.48363-2.5626-.55463-3.8257-.20215-1.26305.35247-2.37585 1.10902-3.16815 2.15391C5.42674 6.41301 4.99855 7.68869 4.99999 9l3.01-.01-4 4-3.99999549-4H3.00999l-.01.01Zm7-4H11.01L11 9.36l3.22 2.1-.6.93L9.99999 10V5Z" fill="#000"/></svg>