<svg width="18" height="18" fill="none" xmlns="http://www.w3.org/2000/svg"><path fill-rule="evenodd" clip-rule="evenodd" d="M14 8.00002c-.567-.00998-1.1196-.18048-1.5937-.49173-.4741-.31125-.8502-.75049-1.0848-1.26681-.2346-.51631-.318-1.08855-.2406-1.65036.0773-.5618.3124-1.09017.6778-1.52383.3655-.43367.8464-.75486 1.3869-.92635.5406-.17149 1.1187-.18625 1.6673-.04256.5486.14368 1.0452.43992 1.4323.85438.3871.41445.6488.93014.7548 1.48726.0805.39674.08.80568-.0017 1.20219-.0816.39651-.2427.77239-.4735 1.10501-.2308.33261-.5265.61508-.8693.83038-.3428.21531-.7257.359-1.1255.42242-.1764.01452-.3537.01452-.53 0Zm0-5c-.3165.00419-.6275.08342-.9073.23119-.2799.14776-.5208.35985-.7027.61881-.1493.20909-.2546.44627-.3096.69722-.055.25094-.0586.51043-.0104.76278.0829.3715.2701.71162.5397.98041.2695.26878.6101.45507.9819.53697.3717.08191.7591.05604 1.1166-.07458.3576-.13062.6704-.36055.9018-.6628.1493-.20908.2546-.44626.3096-.69721.055-.25094.0585-.51044.0104-.76279-.0851-.45226-.3235-.86135-.6751-1.15829-.3516-.29693-.7948-.46353-1.2549-.47171Z" fill="#F75D37"/><path d="M3.49998 14.08c-.13261 0-.25979-.0527-.35355-.1464-.09377-.0938-.14645-.221-.14645-.3536V9.24l-.77.76c-.09347.0916-.21912.1429-.35.1429-.13088 0-.25654-.0513-.35-.1429-.04687-.04648-.08406-.10178-.10945-.16271-.02538-.06093-.03845-.12628-.03845-.19229 0-.066.01307-.13136.03845-.19229.02539-.06093.06258-.11623.10945-.16271l1.62-1.61c.07002-.06813.15813-.11471.25386-.13421.09573-.0195.19505-.0111.28614.02421.08678.03542.16186.09451.21667.17054.05482.07603.08715.16594.09333.25946v5.54c.00553.0689-.0033.1383-.02594.2036-.02263.0654-.05858.1254-.10558.1761-.04699.0508-.104.0912-.16743.1188-.06342.0276-.13188.0417-.20105.0415Z" fill="#F75D37"/><path fill-rule="evenodd" clip-rule="evenodd" d="M6.40631 10.5083c.47406.3112 1.02664.4817 1.59367.4917.17637.0145.35363.0145.53 0 .39983-.0634.78269-.2071 1.12553-.4224.34283-.2153.63849-.4978.86929-.83038.2308-.33262.3919-.7085.4735-1.10501.0817-.39651.0822-.80545.0017-1.20219-.106-.55712-.3677-1.07281-.7548-1.48726-.38706-.41446-.8837-.7107-1.43231-.85438-.54861-.14369-1.12671-.12893-1.66727.04256-.54056.17149-1.02144.49268-1.38689.92635-.36545.43366-.60049.96203-.67787 1.52383-.07739.56181.00605 1.13405.24065 1.65036.23459.51632.61073.95552 1.0848 1.26682Zm.68634-4.2771c.27989-.14776.59085-.22699.90733-.23118.46012.00818.90334.17478 1.25493.47171.35158.29694.59001.70603.67507 1.15829.04814.25236.0446.51185-.01041.76279-.055.25095-.16032.48813-.30959.69721-.23139.30225-.54423.53218-.90176.6628-.35753.13062-.74492.15649-1.11665.07458-.37173-.0819-.71236-.26819-.98189-.53697-.26953-.26879-.45676-.6089-.5397-.98041-.04814-.25235-.0446-.51184.0104-.76278.05501-.25095.16033-.48813.3096-.69722.18196-.25896.42278-.47105.70267-.61882Z" fill="#F75D37"/><path d="M6.81 15c-.08973-.0008-.17766-.0253-.25492-.0709-.07725-.0457-.1411-.1109-.18508-.1891-.0313-.0584-.0507-.1224-.05707-.1883-.00637-.0659.0004-.1324.01994-.1956.01954-.0633.05144-.122.09386-.1729.04243-.0508.09452-.0927.15327-.1232l9.14-4.87004c.1184-.06053.2557-.07244.3827-.03322.127.03923.2337.1265.2973.24322.0313.05834.0507.12232.0571.18822.0063.0659-.0004.13241-.02.19567-.0195.06326-.0514.12201-.0938.17284-.0425.05081-.0946.09271-.1533.12331L7.05 15c-.07895.0183-.16105.0183-.24 0ZM10.2545 15.7458c.0911.0669.2026.1002.3155.0942.0836-.0008.1659-.0213.24-.06l4.81-2.64c.0578-.0321.1087-.0754.1497-.1272.0411-.0519.0716-.1113.0897-.1749.0181-.0636.0235-.1302.0159-.1958-.0076-.0657-.0281-.1293-.0603-.1871-.0322-.0578-.0754-.1086-.1272-.1497-.0519-.0411-.1113-.0715-.1749-.0896-.0636-.0182-.1302-.0236-.1959-.0159-.0657.0076-.1292.028-.187.0602l-4.8 2.65c-.1017.0495-.1831.1325-.2305.2352-.0475.1026-.0579.2185-.0297.3279.0283.1095.0935.2058.1847.2727Z" fill="#F75D37"/></svg>