<svg width="18" height="18" fill="none" xmlns="http://www.w3.org/2000/svg"><path d="M1 3c0-1.1.9-2 2-2h12c1.0893 0 2 .91067 2 2v12c0 1.0893-.9107 2-2 2H3c-1.08933 0-2-.9107-2-2V3Zm4.5 7.5L2 15h14l-4.5-6L8 13.51 5.5 10.5Zm0-4.5c.39782 0 .77936-.15804 1.06066-.43934C6.84196 5.27936 7 4.89782 7 4.5c0-.39782-.15804-.77936-.43934-1.06066C6.27936 3.15804 5.89782 3 5.5 3c-.39782 0-.77936.15804-1.06066.43934C4.15804 3.72064 4 4.10218 4 4.5c0 .39782.15804.77936.43934 1.06066C4.72064 5.84196 5.10218 6 5.5 6Z" fill="#000"/></svg>