<svg width="14" height="14" fill="none" xmlns="http://www.w3.org/2000/svg"><path fill-rule="evenodd" clip-rule="evenodd" d="M13 7c0 3.3137-2.6863 6-6 6-3.31371 0-6-2.6863-6-6 0-3.31371 2.68629-6 6-6 3.3137 0 6 2.68629 6 6Zm-5.98942 4.6c.13513-.163.30135-.4582.46026-.9101.16332-.4644.29936-1.03805.3926-1.6899H6.13656c.09324.65185.22928 1.2255.3926 1.6899.15891.4519.32513.7471.46026.9101h.02116ZM7.96712 8C7.98858 7.67833 8 7.34408 8 7c0-.34408-.01142-.67833-.03288-1H6.03288C6.01142 6.32167 6 6.65592 6 7c0 .34408.01142.67833.03288 1h1.93424Zm.90572 1c-.12664.9586-.34169 1.7942-.61689 2.4264C9.52881 11.066 10.5772 10.1713 11.1436 9H8.87284ZM11.491 8c.0714-.32194.109-.65658.109-1 0-.34342-.0376-.67806-.109-1H8.96919C8.98944 6.32465 9 6.65882 9 7c0 .34118-.01056.67535-.03081 1H11.491ZM5.03081 8C5.01056 7.67535 5 7.34118 5 7c0-.34118.01056-.67535.03081-1H2.509c-.07137.32194-.109.65658-.109 1 0 .34342.03763.67806.109 1h2.52181ZM2.85637 9c.56639 1.1713 1.61482 2.066 2.88768 2.4264-.2752-.6322-.49025-1.4678-.61689-2.4264H2.85637Zm3.67279-5.68993C6.36584 3.77449 6.2298 4.34815 6.13656 5h1.72688c-.09324-.65185-.22928-1.22551-.3926-1.68993-.15891-.45191-.32513-.74703-.46026-.91006L7 2.4l-.01058.00001c-.13513.16303-.30135.45815-.46026.91006ZM8.87284 5h2.27076c-.5664-1.17132-1.61479-2.066-2.88765-2.42645.2752.63226.49025 1.46785.61689 2.42645ZM2.85637 5h2.27079c.12664-.9586.34169-1.79419.61689-2.42645C4.47119 2.934 3.42276 3.82868 2.85637 5Z" fill="#000"/></svg>