<svg width="18" height="18" fill="none" xmlns="http://www.w3.org/2000/svg"><path d="m15.2488 13.7544-2.7451-1.7596-3.47678 2.0092L9 17.75l6.2488-3.9956Z" fill="#9E2831"/><path fill-rule="evenodd" clip-rule="evenodd" d="m8 17.75.00519-3.7482-3.47821-2.0077-2.78113 1.7544L8 17.75Z" fill="#BB3A84"/><path fill-rule="evenodd" clip-rule="evenodd" d="M12 11V7L8.5 5 5 7v4l3.5 2 3.5-2Z" fill="#F8C300"/><path fill-rule="evenodd" clip-rule="evenodd" d="M1.02549 12.8693 4 11V7L1 5l.02549 7.8693Z" fill="#3941BF"/><path fill-rule="evenodd" clip-rule="evenodd" d="M13.0178 6.99303V11.007L16 13V5l-2.9822 1.99303Z" fill="#D08935"/><path fill-rule="evenodd" clip-rule="evenodd" d="m1.7511 4.24951 2.76828 1.75785 3.4753-2.00769L8 .25 1.7511 4.24951Z" fill="#3292BB"/><path fill-rule="evenodd" clip-rule="evenodd" d="m12.5 6 2.75-1.7511L9 .25V4l3.5 2Z" fill="#90B636"/></svg>