<svg width="18" height="18" fill="none" xmlns="http://www.w3.org/2000/svg"><path d="M7.2233 11.8311c.4884.3597 1.03174.6457 1.61323.8449l.61606-1.7979c-.85281-.2922-1.58552-.8574-2.08471-1.60801-.4992-.75065-.73705-1.64492-.67673-2.54438.06032-.89947.41544-1.75397 1.0104-2.43124.59495-.67728 1.39656-1.13956 2.28075-1.31529.8842-.17573 1.8017-.05511 2.6104.34318.8087.3983 1.4636 1.05206 1.8633 1.8601.3997.80804.5218 1.72529.3476 2.60978-.1742.88449-.6351 1.68689-1.3113 2.28296l1.2567 1.4257c.4611-.4064.8538-.8784 1.1675-1.3975.3597-.59525.6156-1.25242.7518-1.94388.255-1.29454.0762-2.63703-.5088-3.81968-.585-1.18265-1.5435-2.1395-2.7271-2.72245-1.1837-.58294-2.5265-.759481-3.82058-.50228-1.2941.2572-2.46734.9338-3.33812 1.92506-.87078.99126-1.39053 2.24191-1.47882 3.55837-.08828 1.31646.25983 2.62531.99046 3.72396.39024.5868.878 1.0962 1.43796 1.5086Z" fill="#000"/><path d="M10.6461 6.23494c-.4817-.36861-1.01968-.66449-1.59741-.87437l-.64894 1.78631c.84731.30781 1.56953.88633 2.05485 1.64601.4854.75968.7068 1.65821.63 2.55641-.0769.8982-.4476 1.746-1.0549 2.4123-.60725.6662-1.4172 1.1137-2.30447 1.2732-.88726.1595-1.80235.022-2.60363-.391-.80129-.4131-1.44407-1.0788-1.82886-1.894-.3848-.8152-.49014-1.7346-.29973-2.6157.19041-.88115.66595-1.67496 1.35302-2.25858l-1.23038-1.4485c-.46848.39793-.86977.86264-1.19297 1.37594-.37056.5885-.63847 1.24087-.78732 1.92971-.278688 1.28963-.1245 2.63523.43868 3.82833.56319 1.1932 1.50397 2.1675 2.67673 2.7721 1.17275.6045 2.51209.8057 3.81069.5722 1.2986-.2334 2.48404-.8883 3.37284-1.8635.8888-.9751 1.4315-2.216 1.5439-3.5306.1124-1.3146-.2117-2.62965-.922-3.74152-.3794-.59388-.8578-1.11212-1.4101-1.53474Z" fill="#000"/></svg>