<svg width="18" height="18" fill="none" xmlns="http://www.w3.org/2000/svg"><path d="M16 9c0-.53043-.2107-1.03914-.5858-1.41421C15.0391 7.21071 14.5304 7 14 7V6c0-1.32608-.5268-2.59785-1.4645-3.53553C11.5979 1.52678 10.3261 1 9 1c-1.32608 0-2.59785.52678-3.53553 1.46447C4.52678 3.40215 4 4.67392 4 6v1c-.53043 0-1.03914.21071-1.41421.58579C2.21071 7.96086 2 8.46957 2 9v6c0 1.1.9 2 2 2h10c.5304 0 1.0391-.2107 1.4142-.5858S16 15.5304 16 15V9Zm-7 5c-.53043 0-1.03914-.2107-1.41421-.5858C7.21071 13.0391 7 12.5304 7 12c0-1.1.9-2 2-2 .53043 0 1.0391.2107 1.4142.5858S11 11.4696 11 12c0 .5304-.2107 1.0391-.5858 1.4142S9.53043 14 9 14Zm3.1-7H5.9V6c0-.82217.32661-1.61067.90797-2.19203C7.38933 3.22661 8.17783 2.9 9 2.9c.82217 0 1.6107.32661 2.192.90797.5814.58136.908 1.36986.908 2.19203v1Z" fill="#000"/></svg>