<svg width="89" height="13" fill="none" xmlns="http://www.w3.org/2000/svg"><path d="M9.26001 5.52 10.3 4.48H8.17001V1.95h-1.13v7.98c0 1.14.66 2.07 1.97 2.07h.8v-.97h-.6c-.71 0-1.04-.42-1.04-1.13V5.52h1.09ZM67.98 9.58V.860001h-2V9.71c0 1.14.69 2.29 2.33 2.29h1.14v-1.7h-.77c-.5 0-.7-.24-.7-.72ZM86 3.98l-1.29 4.96-1.64-4.95H81.6l-1.63 4.95-1.3-4.95h-2.12l2.46 8h1.65l1.67-5.02L84.02 12h1.65l2.44-8.01h-2.1L86 3.98ZM74.1 9.95c-.23.23-.54.35-.94.35-.4 0-.69-.12-.92-.35-.42-.42-.46-1.12-.46-1.95 0-.84.04-1.53.46-1.94.23-.23.52-.36.92-.36s.7.13.94.36c.41.41.46 1.1.46 1.94 0 .83-.05 1.53-.46 1.95Zm-.94-6.04c-1.18 0-1.98.46-2.47.98-.73.75-.91 1.66-.91 3.1 0 1.47.18 2.37.9 3.13.5.52 1.3.98 2.48.98 1.19 0 2-.46 2.5-.98.72-.76.9-1.66.9-3.12 0-1.45-.18-2.36-.9-3.11-.3269-.32646-.7177-.58198-1.1478-.7506-.4302-.16861-.8905-.24671-1.3522-.2294Zm-12.12-.75V12h2V5.67h1.48V4.15h-1.48v-.87c0-.47.23-.73.71-.73h.77V.860001h-1.14C61.75.860001 61.04 2.01 61.04 3.16Zm-4.1 1.6V4h-1.96v8h2V7.18c0-1.01.67-1.48 1.29-1.48.5 0 .75.17 1.05.47l1.52-1.51c-.2429-.25597-.5388-.45573-.867-.58529-.3282-.12956-.6808-.18577-1.033-.16471-.86 0-1.62.4-2 .86v-.01Zm-7.97 2.5c.01-.36.06-.57.18-.86.1142-.2569.3031-.47346.5421-.6215.239-.14804.517-.22069.7979-.2085.68 0 1.12.35 1.34.83.12.29.17.5.18.86h-3.04Zm1.52-3.35C48.42 3.9 47 5.37 47 7.99c0 3.24 1.82 4.1 3.7 4.1 1.45 0 2.24-.45 3.05-1.26l-1.21-1.18c-.51.5-.94.75-1.82.75-1.12 0-1.75-.75-1.75-1.78h5.01v-.9c0-2.2-1.26-3.82-3.49-3.82v.01Zm-5.5.09-1.62 4.95L41.74 4h-2.1l2.95 8h1.56l2.94-8H44.99ZM37.2 9.94c-.23.23-.54.35-.94.35-.4 0-.69-.12-.92-.35-.41-.42-.46-1.12-.46-1.95 0-.84.05-1.53.46-1.94.23-.23.52-.36.92-.36s.71.13.94.36c.42.41.46 1.1.46 1.94 0 .83-.04 1.53-.46 1.95Zm-.94-6.04c-1.18 0-1.98.46-2.47.98-.72.75-.9 1.66-.9 3.1 0 1.47.18 2.37.9 3.13.5.52 1.29.98 2.47.98 1.19 0 2-.46 2.5-.98.72-.76.9-1.66.9-3.12 0-1.45-.18-2.36-.9-3.11-.3269-.32646-.7177-.58198-1.1478-.7506-.4302-.16862-.8905-.24671-1.3522-.2294Zm-5.28.4h-1.4l-3.5 3.39.01-6.819999h-1.12V12h1.12V9.19l1.36-1.37L30.03 12h1.4l-3.2-4.96 2.75-2.74Zm-9.64.91c.73 0 1.19.22 1.76.86 0 0 .76-.73.75-.74-.301-.3707-.6851-.66528-1.1212-.85986-.4361-.19459-.9119-.28371-1.3888-.26014-1.94 0-3.4 1.32-3.4 3.94 0 2.63 1.46 3.94 3.4 3.94 1.06 0 1.73-.28 2.53-1.14l-.77-.74c-.57.65-1.03.88-1.76.88-.75 0-1.38-.3-1.78-.88-.36-.5-.5-1.09-.5-2.06s.14-1.56.5-2.06c.4-.58 1.03-.88 1.78-.88ZM15.8 9.28c0 .64-.13 1.08-.4 1.33-.48.46-1.06.51-1.71.51-1.22 0-1.77-.42-1.77-1.31 0-.9.56-1.36 1.72-1.36h2.16v.83ZM13.85 4.2c-1.23 0-2 .25-2.69 1.1 0 .02.74.75.74.75.45-.64.95-.88 1.94-.88 1.4 0 1.97.56 1.97 1.69v.73h-2.32c-1.72 0-2.65.88-2.65 2.22 0 .61.2 1.2.57 1.57.49.5 1.11.7 2.18.7 1.03 0 1.59-.2 2.22-.83V12h1.12V6.78c0-1.68-1.02-2.57-3.08-2.57V4.2ZM4.23001 7.67l-1.24-.11c-.97-.08-1.34-.47-1.34-1.13 0-.78.6-1.26 1.72-1.26.8 0 1.5.18 2.05.6l.73-.73c-.80167-.58445-1.77904-.8773-2.77-.83-1.64 0-2.820003.85-2.820003 2.25 0 1.27.800003 1.94 2.300003 2.07l1.26.1c.88.09 1.28.47 1.28 1.14 0 .9-.78 1.36-2.05 1.36-.95 0-1.78-.25-2.390003-.89l-.75.75c.423743.3899.922463.6894 1.465753.8802.54329.1909 1.11976.2691 1.69425.2298 1.86 0 3.12-.86 3.12-2.34 0-1.44-.92-1.96-2.26-2.08v-.01Z" fill="#222426"/></svg>