<svg width="196" height="37" fill="none" xmlns="http://www.w3.org/2000/svg"><path d="M26 33v-9h4v13H0V24h4v9h22Z" fill="#BCBBBB"/><path d="m23.0908 25.9902.6936-2.9492-16.10447-3.354L7 23l16.0908 2.9902ZM9.1 15.2l15 7 1.4-3-15-7-1.4 3Zm4.2-7.4L26 18.4l2.1-2.5L15.4 5.3l-2.1 2.5ZM21.5 0l-2.7 2 9.9 13.3 2.7-2L21.5 0ZM7 30h16v-3H7v3Z" fill="#F48024"/><path fill="#D6D9DC" d="M47 13h1v17h-1z"/><path d="M74.9254 12.9576H64.5403c-.3116 0-.5193.2052-.5193.5131v16.0609c0 .3079.2077.5131.5193.5131h10.3851c.3115 0 .5192-.2052.5192-.5131v-2.2064c0-.3079-.2077-.5132-.5192-.5132H67.5v-3.7971h6.2311c.3115 0 .5192-.2053.5192-.5131v-2.1552c0-.3079-.2077-.5131-.5192-.5131H67.5v-3.6432h7.4254c.3115 0 .5192-.2053.5192-.5132v-2.2064c0-.2566-.2596-.5131-.5192-.5131ZM90.8427 12.9576h-2.4405c-.3116 0-.5193.2052-.5193.5131v9.5955l-6.5426-9.8521c-.1038-.1539-.2596-.2565-.4154-.2565h-2.2848c-.3115 0-.5192.2052-.5192.5131v16.0609c0 .3079.2077.5132.5192.5132h2.4925c.3116 0 .5193-.2053.5193-.5132v-9.5955l6.5426 9.8521c.1038.1539.2596.2566.4154.2566h2.2847c.3116 0 .5193-.2053.5193-.5132V13.4707c-.0519-.2566-.2596-.5131-.5712-.5131ZM104.705 12.9576H93.2812c-.3115 0-.5192.2052-.5192.5131v2.2064c0 .3079.2077.5132.5192.5132h3.9464v13.3413c0 .3079.2077.5132.5193.5132h2.4401c.312 0 .52-.2053.52-.5132V16.1903h3.946c.312 0 .519-.2053.519-.5132v-2.2064c.052-.2566-.156-.5131-.467-.5131ZM117.863 12.9576h-10.385c-.312 0-.52.2052-.52.5131v16.0609c0 .3079.208.5132.52.5132h10.385c.311 0 .519-.2053.519-.5132v-2.2064c0-.3079-.208-.5132-.519-.5132h-7.425v-3.7971h6.231c.311 0 .519-.2053.519-.5131v-2.1552c0-.3079-.208-.5131-.519-.5131h-6.231v-3.6432h7.425c.311 0 .519-.2053.519-.5132v-2.2064c0-.2566-.208-.5131-.519-.5131ZM129.363 22.707c.779-.3079 1.454-.821 2.025-1.4881.675-.821.987-1.8472.987-3.0787 0-.975-.208-1.8986-.675-2.6683-.468-.7697-1.143-1.4368-1.974-1.8473-.83-.4618-1.817-.667-2.907-.667h-6.335c-.312 0-.52.2052-.52.5131v16.0609c0 .3079.208.5132.52.5132h2.492c.312 0 .519-.2053.519-.5132v-6.2602h2.233L129 29.7369c.103.1539.259.3079.467.3079h2.856c.156 0 .363-.1027.467-.2566.104-.154.104-.3592 0-.5131l-3.427-6.5681Zm-5.868-6.568h3.116c.727 0 1.246.1539 1.662.5644.415.3592.571.821.571 1.4881 0 .6157-.208 1.0775-.571 1.4367-.416.3592-.935.5645-1.662.5645h-3.116V16.139ZM145.873 14.4969c-.519-.4618-1.142-.8723-1.869-1.1288-.727-.2566-1.506-.4105-2.337-.4105h-6.179c-.311 0-.519.2052-.519.5131v16.0609c0 .3079.208.5132.519.5132h2.493c.311 0 .519-.2053.519-.5132v-5.7983h3.167c1.091 0 2.129-.2566 3.012-.7184.883-.4618 1.558-1.1289 2.025-1.9499.468-.821.727-1.7446.727-2.7709 0-.7697-.156-1.4881-.415-2.1551-.26-.5645-.675-1.1289-1.143-1.6421Zm-7.373 1.6934h3.064c.727 0 1.298.2052 1.765.5644.415.3592.623.9236.623 1.5907s-.208 1.1802-.623 1.5907c-.415.4105-.987.5645-1.765.5645H138.5v-4.3103ZM158.377 22.707c.779-.3079 1.454-.821 2.025-1.4881.675-.821.987-1.8472.987-3.0787 0-.975-.208-1.8986-.675-2.6683-.468-.7697-1.143-1.4368-1.974-1.8473-.83-.4618-1.817-.667-2.907-.667h-6.335c-.312 0-.52.2052-.52.5131v16.0609c0 .3079.208.5132.52.5132h2.492c.312 0 .519-.2053.519-.5132v-6.2602h2.233l3.271 6.4655c.104.1539.26.3079.468.3079h2.856c.155 0 .363-.1027.467-.2566.104-.154.104-.3592 0-.5131l-3.427-6.5681Zm-5.868-6.568h3.116c.727 0 1.246.1539 1.661.5644.416.3592.572.821.572 1.4881 0 .6157-.208 1.0775-.572 1.4367-.415.3592-.934.5645-1.661.5645h-3.116V16.139ZM166.871 12.9576h-2.493c-.311 0-.519.2052-.519.5131v16.0609c0 .3079.208.5132.519.5132h2.493c.311 0 .519-.2053.519-.5132V13.4707c0-.2566-.208-.5131-.519-.5131ZM180.432 21.2702c-.363-.3591-.83-.6157-1.35-.821-.519-.2052-1.142-.3592-1.921-.4618l-1.869-.2565c-.312-.0514-.623-.1027-.935-.2566-.26-.1026-.519-.2566-.623-.3592-.312-.2566-.415-.6158-.415-1.1289 0-.4105.103-.7184.259-1.0262.208-.3079.468-.5132.779-.6671.364-.1539.831-.2566 1.35-.2566.467 0 .883.0513 1.246.1027.364.0513.675.2052 1.039.3591.311.154.623.3592.935.6671.207.2053.519.2053.726 0l1.61-1.5394c.104-.1026.156-.2565.156-.3592 0-.1539-.052-.2565-.156-.3592-.727-.667-1.558-1.1802-2.388-1.488-.831-.3079-1.87-.4618-3.012-.4618-1.194 0-2.233.2052-3.116.6157-.882.4105-1.609 1.0776-2.077 1.8473-.467.7697-.727 1.6933-.727 2.7196 0 1.4367.468 2.6169 1.35 3.4379.831.7697 1.922 1.2315 3.376 1.4368l1.921.2565c.415.0514.779.154.986.2053.208.0513.364.1539.52.3592.311.2566.467.7184.467 1.2828 0 .6158-.208 1.0776-.675 1.3855-.519.3591-1.246.5644-2.181.5644-.519 0-1.038-.0513-1.454-.1539-.415-.1027-.831-.2566-1.246-.4619-.363-.2052-.727-.4618-1.09-.821-.104-.1026-.208-.1539-.364-.1539s-.26.0513-.363.1539l-1.662 1.5907c-.104.1027-.156.2053-.156.3592 0 .154.052.2566.156.3592.831.821 1.714 1.3855 2.7 1.7447.987.3591 2.129.5131 3.427.5131.883 0 1.766-.1026 2.493-.3592.779-.2053 1.454-.5644 2.025-1.0263.571-.4618 1.038-1.0262 1.35-1.6933.311-.6671.467-1.3854.467-2.1551-.052-1.642-.571-2.8735-1.558-3.6946ZM194.957 16.1903c.311 0 .519-.2053.519-.5132v-2.2064c0-.3079-.208-.5131-.519-.5131h-10.386c-.311 0-.519.2052-.519.5131v16.0609c0 .3079.208.5132.519.5132h10.386c.311 0 .519-.2053.519-.5132v-2.2064c0-.3079-.208-.5132-.519-.5132h-7.426v-3.7971h6.231c.312 0 .52-.2053.52-.5131v-2.1552c0-.3079-.208-.5131-.52-.5131h-6.231v-3.6432h7.426Z" fill="#222426"/></svg>