<svg width="156" height="30" fill="none" xmlns="http://www.w3.org/2000/svg"><path d="M21 27v-8h3v11H0V19h3v8h18Z" fill="#BCBBBB"/><path d="m5.4021 19.1011 13.561 1.9599.1639-2.3806L5.87134 16.134l-.46924 2.9671ZM7.2 12.3l12 5.6 1.1-2.4-12-5.6-1.1 2.4Zm3.4-5.9 10.2 8.5 1.7-2-10.2-8.5-1.7 2ZM17.1.199997 15 1.8l7.9 10.6 2.1-1.6L17.1.199997ZM5 25h14v-3H5v3Z" fill="#F48024"/><path fill="#D6D9DC" d="M38 11h1v13h-1z"/><path d="M59.552 10.9809h-8.1684c-.245 0-.4084.1567-.4084.3919v12.2661c0 .2351.1634.3919.4084.3919h8.1684c.2451 0 .4084-.1568.4084-.3919v-1.6852c0-.2351-.1633-.3918-.4084-.3918h-5.8404v-2.9h4.901c.2451 0 .4085-.1568.4085-.3919v-1.6459c0-.2352-.1634-.3919-.4085-.3919h-4.901v-2.7824h5.8404c.2451 0 .4084-.1568.4084-.3919v-1.6851c0-.196-.2042-.3919-.4084-.3919ZM72.0088 10.9809h-1.9196c-.2451 0-.4084.1567-.4084.3919v7.3283l-5.1461-7.5243c-.0817-.1175-.2042-.1959-.3267-.1959h-1.7971c-.245 0-.4084.1567-.4084.3919v12.2661c0 .2351.1634.3919.4084.3919h1.9604c.2451 0 .4085-.1568.4085-.3919v-7.3283l5.146 7.5242c.0817.1176.2042.196.3268.196h1.797c.2451 0 .4084-.1568.4084-.3919V11.3728c-.0408-.196-.2042-.3919-.4492-.3919ZM83.4886 10.9809h-8.9852c-.2451 0-.4085.1567-.4085.3919v1.6851c0 .2351.1634.3919.4085.3919h3.1039v10.1891c0 .2351.1634.3919.4085.3919h1.9195c.2451 0 .4085-.1568.4085-.3919V13.4498h3.1039c.2451 0 .4084-.1568.4084-.3919v-1.6851c.0409-.196-.1225-.3919-.3675-.3919ZM93.5904 10.9809H85.422c-.245 0-.4084.1567-.4084.3919v12.2661c0 .2351.1634.3919.4084.3919h8.1684c.245 0 .4084-.1568.4084-.3919v-1.6852c0-.2351-.1634-.3918-.4084-.3918H87.75v-2.9h4.901c.2451 0 .4084-.1568.4084-.3919v-1.6459c0-.2352-.1633-.3919-.4084-.3919H87.75v-2.7824h5.8404c.245 0 .4084-.1568.4084-.3919v-1.6851c0-.196-.1634-.3919-.4084-.3919ZM103.392 18.4659c.613-.2351 1.144-.627 1.593-1.1364.531-.6271.776-1.4108.776-2.3514 0-.7445-.163-1.4499-.531-2.0378-.367-.5878-.898-1.0973-1.552-1.4108-.653-.3527-1.429-.5094-2.287-.5094h-4.9825c-.2451 0-.4085.1567-.4085.3919v12.2661c0 .2351.1634.3918.4085.3918h1.9604c.245 0 .4084-.1567.4084-.3918V18.897h1.7557l2.574 4.9378c.081.1176.204.2351.367.2351h2.246c.123 0 .286-.0783.368-.1959.082-.1176.082-.2743 0-.3919l-2.696-5.0162Zm-4.6147-5.0161h2.4507c.572 0 .98.1175 1.307.4311.326.2743.449.627.449 1.1364 0 .4703-.163.823-.449 1.0973-.327.2743-.735.4311-1.307.4311h-2.4507v-3.0959ZM116.625 12.1565c-.408-.3527-.898-.6662-1.47-.8621-.572-.196-1.185-.3135-1.838-.3135h-4.86c-.245 0-.409.1567-.409.3919v12.2661c0 .2351.164.3919.409.3919h1.96c.245 0 .409-.1568.409-.3919v-4.4284h2.491c.858 0 1.674-.1959 2.369-.5486.694-.3527 1.225-.8622 1.593-1.4892.367-.627.571-1.3324.571-2.1162 0-.5878-.122-1.1365-.326-1.6459-.205-.4311-.531-.8622-.899-1.2541Zm-5.799 1.2933h2.409c.572 0 1.021.1567 1.389.4311.327.2743.49.7053.49 1.2148 0 .5095-.163.9013-.49 1.2149-.327.3135-.776.431-1.389.431h-2.409v-3.2918ZM126.428 18.4659c.612-.2351 1.143-.627 1.592-1.1364.531-.6271.776-1.4108.776-2.3514 0-.7445-.163-1.4499-.53-2.0378-.368-.5878-.899-1.0973-1.552-1.4108-.654-.3527-1.43-.5094-2.288-.5094h-4.982c-.245 0-.409.1567-.409.3919v12.2661c0 .2351.164.3918.409.3918h1.96c.245 0 .408-.1567.408-.3918V18.897h1.757l2.573 4.9378c.081.1176.204.2351.367.2351h2.247c.122 0 .286-.0783.367-.1959.082-.1176.082-.2743 0-.3919l-2.695-5.0162Zm-4.616-5.0161h2.451c.572 0 .98.1175 1.307.4311.327.2743.449.627.449 1.1364 0 .4703-.163.823-.449 1.0973-.327.2743-.735.4311-1.307.4311h-2.451v-3.0959ZM133.452 10.9809h-1.96c-.245 0-.408.1567-.408.3919v12.2661c0 .2351.163.3919.408.3919h1.96c.245 0 .409-.1568.409-.3919V11.3728c0-.196-.164-.3919-.409-.3919ZM144.439 17.3687c-.286-.2744-.654-.4703-1.062-.6271-.408-.1567-.899-.2743-1.511-.3527l-1.47-.1959c-.246-.0392-.491-.0784-.736-.196-.204-.0783-.408-.1959-.49-.2743-.245-.1959-.326-.4702-.326-.8621 0-.3135.081-.5487.204-.7838.163-.2351.367-.3919.612-.5095.286-.1175.654-.1959 1.062-.1959.368 0 .695.0392.98.0784.286.0392.531.1567.817.2743.245.1176.49.2743.735.5095.164.1567.409.1567.572 0l1.266-1.1757c.082-.0784.123-.196.123-.2743 0-.1176-.041-.196-.123-.2744-.571-.5094-1.225-.9013-1.878-1.1364-.654-.2352-1.471-.3527-2.369-.3527-.94 0-1.756.1567-2.451.4702-.694.3135-1.266.823-1.633 1.4108-.368.5879-.572 1.2933-.572 2.077 0 1.0973.367 1.9987 1.062 2.6257.653.5878 1.511.9405 2.654 1.0973l1.512.1959c.326.0392.612.1176.776.1568.163.0392.285.1175.408.2743.245.1959.368.5486.368.9797 0 .4703-.164.823-.531 1.0581-.409.2743-.981.4311-1.716.4311-.408 0-.817-.0392-1.143-.1176-.327-.0784-.654-.1959-.981-.3527-.285-.1567-.571-.3527-.857-.627-.082-.0784-.164-.1176-.286-.1176-.123 0-.204.0392-.286.1176l-1.307 1.2149c-.082.0783-.122.1567-.122.2743 0 .1175.04.1959.122.2743.654.627 1.348 1.0581 2.124 1.3324s1.674.3919 2.695.3919c.695 0 1.389-.0784 1.961-.2743.612-.1568 1.143-.4311 1.593-.7838.449-.3527.817-.7838 1.062-1.2932.245-.5095.367-1.0581.367-1.6459-.041-1.2541-.449-2.1946-1.225-2.8216ZM155.59 13.4498c.245 0 .409-.1568.409-.3919v-1.6851c0-.2352-.164-.3919-.409-.3919h-8.168c-.245 0-.408.1567-.408.3919v12.2661c0 .2351.163.3918.408.3918h8.168c.245 0 .409-.1567.409-.3918v-1.6852c0-.2351-.164-.3918-.409-.3918h-5.84v-2.9h4.901c.245 0 .408-.1568.408-.3919v-1.6459c0-.2352-.163-.3919-.408-.3919h-4.901v-2.7824h5.84Z" fill="#222426"/></svg>