<svg width="152" height="21" fill="none" xmlns="http://www.w3.org/2000/svg"><path d="m7 12-2.2-.2c-1.7-.1-2.3-.8-2.3-2 0-1.4 1-2.2 3-2.2 1.3-.1 2.6.3 3.6 1.1l1.3-1.3C9 6.4 7.3 5.9 5.6 6 2.7 6 .7 7.5.7 9.9c0 2.2 1.4 3.4 4 3.6l2.2.2c1.6.1 2.2.8 2.2 2 0 1.6-1.4 2.4-3.6 2.4-1.6.1-3.1-.5-4.2-1.6L0 17.8c1.5 1.4 3.5 2 5.5 1.9 3.2 0 5.5-1.5 5.5-4.1 0-2.6-1.6-3.4-4-3.6Zm15.8-6.1c-2.2 0-3.5.4-4.7 1.9l1.3 1.3c.8-1.1 2.1-1.7 3.4-1.5 2.5 0 3.4 1 3.4 2.9v1.3h-4c-3 0-4.6 1.5-4.6 3.9 0 1 .3 2 1 2.7.8.9 1.9 1.2 3.8 1.2 1.4.1 2.9-.4 3.9-1.4v1.3h2v-9.1c-.1-2.9-1.9-4.5-5.5-4.5Zm3.4 8.9c.1.8-.1 1.7-.7 2.3-.4138.3441-.8928.6012-1.4082.7558-.5155.1547-1.0569.2037-1.5918.1442-2.1 0-3.1-.7-3.1-2.3 0-1.6 1-2.4 3-2.4h3.8v1.5Zm9.7-7.1c1.2 0 2.4.5 3.1 1.5l1.3-1.3c-.5276-.65225-1.2-1.17259-1.9637-1.51975-.7638-.34716-1.5979-.51159-2.4363-.48025-3.4 0-5.9 2.3-5.9 6.9 0 4.6 2.6 6.9 5.9 6.9 1.7.1 3.3-.7 4.4-2L39 16.4c-.7 1-1.9 1.5-3.1 1.5-1.2.1-2.4-.5-3.1-1.5-.7-1.1-1-2.3-.9-3.6-.1-1.3.2-2.5.9-3.6.7-1 1.9-1.6 3.1-1.5Zm16.8-1.6h-2.4L44.2 12V.0999985h-2V19.5h2v-4.9l2.4-2.4 4.5 7.3h2.4l-5.6-8.6 4.8-4.8Zm9.2-.16c-1.6-.1-3.2.5-4.3 1.7-1.3 1.3-1.6 2.9-1.6 5.4 0 2.5.3 4.1 1.6 5.4 1.1 1.1 2.7 1.7 4.3 1.7 1.6.1 3.2-.5 4.3-1.7 1.3-1.3 1.6-2.9 1.6-5.4 0-2.5-.3-4.1-1.6-5.4-.5453-.58519-1.2142-1.04143-1.9581-1.33551-.7438-.29408-1.5439-.4186-2.3419-.36449Zm1.7 10.5c-.9.8-2.3.8-3.2 0-.7-.7-.8-2-.8-3.4s.1-2.7.8-3.4c.9-.8 2.3-.8 3.2 0 .7.7.8 1.9.8 3.4s-.1 2.7-.8 3.4Zm13.6-10.4-2.8 8.6-2.8-8.6h-3.7l5.2 14h2.7l5.1-14h-3.7Zm9.6-.1c-3.6 0-6.1 2.6-6.1 7.1 0 5.7 3.2 7.2 6.5 7.2 2 .1 4-.7 5.3-2.2l-2.1-2.1c-.8.9-2 1.4-3.2 1.3-1.6.1-3-1.1-3.1-2.7v-.4h8.7v-1.6c.1-3.8-2.1-6.6-6-6.6Zm-2.7 5.8c0-.5.1-1 .3-1.5.4-.9 1.3-1.4 2.3-1.4 1-.1 1.9.5 2.3 1.4.2.5.3 1 .3 1.5h-5.2Zm13.33-4.3v-1.3h-3.4v14h3.5v-8.4c-.1-1.3.8-2.4 2.1-2.6h.2c.7 0 1.4.3 1.8.8l2.6-2.6c-.418-.44992-.931-.80031-1.502-1.02531-.571-.225-1.186-.31888-1.798-.27469-1.3-.1-2.6.4-3.5 1.4Zm7.6-2.8v15.4h3.5v-11h2.6v-2.7h-2.6v-1.5c-.1-.6.3-1.2.9-1.3h1.6V.539999h-2c-.512-.013302-1.022.074454-1.5.258253-.479.183799-.916.460038-1.287.812938-.372.35289-.67.77553-.878 1.24375-.208.46822-.322.97285-.335 1.48506v.3Zm20.27 1.3c-1.6-.1-3.2.5-4.3 1.7-1.3 1.3-1.6 2.9-1.6 5.4 0 2.5.3 4.1 1.6 5.4 1.1 1.1 2.7 1.7 4.3 1.7 1.6.1 3.2-.5 4.3-1.7 1.3-1.3 1.6-2.9 1.6-5.4 0-2.5-.3-4.1-1.6-5.4-.545-.58519-1.214-1.04143-1.958-1.33551-.744-.29408-1.544-.4186-2.342-.36449Zm1.7 10.5c-.9.8-2.3.8-3.2 0-.7-.7-.8-2-.8-3.4s.1-2.7.8-3.4c.9-.8 2.3-.8 3.2 0 .7.7.8 1.9.8 3.4s-.1 2.7-.8 3.4Zm20.7-10.4-2.3 8.6-2.9-8.6H140l-2.8 8.7-2.3-8.6h-3.7l4.3 14h2.9l2.9-8.8 2.9 8.8h3l4.3-14-3.8-.1Zm-31.22 9.8V.639998h-3.5V16.04c-.027.4992.045.9988.211 1.4702.167.4714.425.9053.759 1.2768.334.3716.739.6736 1.19.8886.451.215.941.3388 1.44.3644h2.5v-3h-1.3c-.6.1-1.1-.2-1.3-.8v-.4ZM17.7 6.4H14V2h-2v13.9c0 2 1.1 3.6 3.4 3.6h1.4v-1.7h-1c-1.3 0-1.8-.7-1.8-2V8.1h1.9l1.8-1.7Z" fill="#222426"/></svg>