<svg width="146" height="36" fill="none" xmlns="http://www.w3.org/2000/svg"><path d="M33.7616 28.0642h-1.4814c-.0357 0-.0698.0141-.095.0391-.0252.0251-.0394.0591-.0394.0946v5.0027c0 .7614-.3732 1.1625-1.0598 1.1625-.1664.0067-.3321-.0246-.4845-.0916-.1523-.0669-.2872-.1677-.3943-.2947-.0248-.0245-.0583-.0382-.0933-.0382-.0349 0-.0685.0137-.0933.0382l-.9814.9731c-.0247.0255-.0387.0593-.0392.0947-.0001.0176.0032.035.01.0513.0067.0162.0166.031.0292.0434.5803.5775 1.1736.8134 2.0524.8134 1.3528 0 2.8081-.8394 2.8081-2.6815v-5.0733c.0003-.018-.0031-.0358-.01-.0524-.0069-.0166-.0171-.0316-.0301-.0441-.0129-.0125-.0283-.0223-.0451-.0287-.0169-.0064-.0348-.0093-.0529-.0085ZM37.9878 28.001c-.3996-.0106-.797.0609-1.1675.2101-.3705.1493-.7061.373-.9857.6571-.7855.7818-.7855 1.7623-.7855 3.0028v.2154c0 1.2405 0 2.2284.7855 3.0028.2795.2843.6151.5081.9856.6574.3705.1492.768.2206 1.1676.2098.3978.0102.7934-.0616 1.162-.2108.3687-.1493.7023-.3727.98-.6564.7967-.793.7967-1.7438.7967-3.0566v-.104c0-1.3148 0-2.2637-.7967-3.0566-.2775-.2843-.611-.5084-.9796-.6583-.3686-.1499-.7644-.2223-1.1624-.2127Zm-.8602 1.9387c.1098-.1167.2432-.2089.3915-.2704.1483-.0614.3081-.0908.4687-.0861.1587-.0053.3167.0239.4629.0855.1463.0615.2774.154.3842.271.2593.286.3395.6036.3395 2.0427 0 1.4392-.0802 1.7474-.3433 2.0427-.1063.1176-.2373.2107-.3836.2726-.1464.0619-.3045.0912-.4635.0858-.1611.0046-.3215-.0252-.4701-.0873-.1487-.0621-.2823-.1552-.3919-.273-.25-.2766-.3284-.5942-.3284-2.0334 0-1.4391.0821-1.7604.334-2.0501ZM47.0408 31.8766c.2487-.1771.4514-.4107.5912-.6813.1399-.2707.2129-.5706.213-.8749 0-1.3909-.9534-2.2562-2.4834-2.2562h-3.0507c-.0175 0-.0349.0034-.0511.0102-.0162.0067-.0309.0166-.0432.029-.0123.0125-.0221.0272-.0286.0434-.0065.0163-.0098.0336-.0095.0511v7.5579c0 .035.0139.0685.0388.0932.0248.0248.0585.0387.0936.0387h3.172c1.515 0 2.4573-.884 2.4573-2.3083.0177-.3381-.0564-.6747-.2147-.9743-.1583-.2997-.3948-.5514-.6847-.7285Zm-1.7968-.754h-1.3172v-1.4763h1.3172c.5318 0 .8471.2767.8471.7428s-.3153.7335-.8471.7335Zm-1.3172 1.5915h1.4143c.5373 0 .8583.2952.8583.791 0 .4959-.321.8097-.8583.8097h-1.4143v-1.6007ZM53.743 31.8264c-.3564-.3324-.8266-.5218-1.5226-.6183l-.8956-.1282c-.2321-.0235-.4521-.1145-.6325-.2618-.0597-.0575-.1071-.1265-.1392-.2028-.0321-.0763-.0482-.1583-.0474-.241 0-.507.3993-.8227 1.0412-.8227.472 0 1.0169.0576 1.4647.4828.0121.0124.0266.0222.0426.0289.0161.0067.0333.0102.0506.0102.0174 0 .0346-.0035.0506-.0102.0161-.0067.0306-.0165.0427-.0289l.933-.9285c.0246-.0254.0386-.0593.0391-.0947.0002-.0177-.0034-.0353-.0105-.0516-.007-.0163-.0174-.031-.0305-.0431-.6493-.6332-1.433-.9155-2.5357-.9155-1.6606 0-2.7782.975-2.7782 2.4253 0 .674.1866 1.1903.5858 1.5821.3564.3454.8621.5571 1.545.663l.9161.1262c.2203.0089.4314.0899.6008.2303.0669.0723.1181.1577.1502.2507.0321.093.0445.1917.0364.2897 0 .6629-.6568.8022-1.2091.8022-.7669 0-1.3359-.1857-1.7408-.5979-.0247-.0248-.0583-.0388-.0933-.039-.0356.0005-.0696.0144-.0952.039l-.9609.9544c-.0246.0247-.0384.0581-.0384.0929s.0138.0681.0384.0928c.7202.728 1.5785 1.0381 2.8678 1.0381 1.7632 0 2.9499-.9749 2.9499-2.4252.0075-.7335-.2071-1.3055-.625-1.6992Z" fill="#F48024"/><path d="m33.9 18.9-1.62-.2c-1.25-.09-1.82-.57-1.82-1.53 0-1.05.76-1.73 2.3-1.73 1.05 0 2.01.3 2.68.77l.96-.96c-1.0571-.757-2.3422-1.1277-3.64-1.05-2.2 0-3.74 1.15-3.74 2.97 0 1.73 1.05 2.6 3.07 2.78l1.72.2c1.15.09 1.73.57 1.73 1.53 0 1.25-1.06 1.82-2.69 1.82-1.24 0-2.4-.29-3.16-1.15l-.96.96c1.15 1.06 2.5 1.44 4.22 1.44 2.5 0 4.12-1.15 4.12-3.07-.19-1.92-1.43-2.6-3.16-2.78h-.01Zm12.77-4.6c-1.63 0-2.69.28-3.55 1.43l.96.96c.57-.86 1.24-1.15 2.59-1.15 1.82 0 2.59.77 2.59 2.2v.97h-3.07c-2.3 0-3.55 1.15-3.55 2.97 0 .77.29 1.53.77 2.11.67.67 1.44.96 2.87.96 1.35 0 2.11-.29 2.98-1.06v.96h1.53v-6.9c-.1-2.3-1.44-3.46-4.12-3.46v.01Zm2.59 6.7c0 .87-.2 1.45-.48 1.73-.67.58-1.44.68-2.3.68-1.63 0-2.3-.58-2.3-1.73s.76-1.82 2.3-1.82h2.87l-.1 1.15.01-.01Zm7.29-5.36c.96 0 1.53.28 2.3 1.15l.96-.96c-1.06-1.15-1.92-1.54-3.36-1.54-2.59 0-4.5 1.73-4.5 5.28 0 3.45 1.91 5.28 4.5 5.28 1.44 0 2.3-.39 3.36-1.54l-1.06-.96c-.76.86-1.34 1.15-2.3 1.15-.96 0-1.82-.38-2.4-1.15-.48-.67-.67-1.44-.67-2.78 0-1.25.2-2.11.67-2.78.3063-.364.6892-.6558 1.1214-.8546.4322-.1988.9029-.2996 1.3786-.2954Zm12.85-1.25h-1.82l-4.6 4.5V9.79999h-1.54V24.57h1.54v-3.74L64.8 19l3.45 5.57h1.82l-4.22-6.62 3.55-3.55v-.01Zm7-.29c-1.53 0-2.58.58-3.26 1.34-.96.96-1.24 2.21-1.24 4.13s.28 3.16 1.24 4.12c.4256.4343.9347.7778 1.4968 1.0098.562.232 1.1652.3478 1.7732.3402 1.53 0 2.68-.58 3.26-1.35.96-.96 1.24-2.2 1.24-4.12s-.28-3.17-1.24-4.13c-.58-.76-1.63-1.34-3.26-1.34h-.01Zm1.25 7.96c-.29.3-.67.48-1.24.48-.58 0-.96-.19-1.25-.48-.58-.57-.58-1.53-.58-2.59 0-1.15.1-2.01.58-2.59.165-.1605.3609-.2858.5757-.3683.2149-.0825.4443-.1205.6743-.1117.57 0 .95.2 1.24.48.58.58.58 1.44.58 2.6.1 1.14 0 2.1-.58 2.58Zm10.36-7.86-2.1 6.62-2.21-6.62h-2.8l3.94 10.65h2.1L90.9 14.2H88.01Zm7.3-.1c-2.79 0-4.61 1.92-4.61 5.47 0 4.32 2.4 5.47 4.9 5.47 1.91 0 2.96-.58 4.02-1.63l-1.63-1.54c-.67.67-1.25.96-2.4.96-1.53 0-2.3-.96-2.3-2.4h6.62v-1.15c0-3.07-1.63-5.18-4.6-5.18Zm-2.02 4.41c0-.48.1-.76.29-1.15.28-.67.86-1.15 1.82-1.15.86 0 1.53.48 1.82 1.15.2.39.2.67.29 1.15h-4.22Zm10.55-3.26V14.2h-2.59v10.65h2.69v-6.43c0-1.35.86-1.92 1.72-1.92.68 0 .96.2 1.44.67l2.02-2.01c-.77-.77-1.44-.96-2.5-.96-1.24-.1-2.2.38-2.78 1.05Zm5.39-2.2v11.8h2.69V16.4h1.92v-2h-1.92v-1.15c0-.58.28-.96.96-.96h1.05v-2.2h-1.53c-2.21 0-3.17 1.53-3.17 2.97v-.01Zm16.2 1.05c-1.54 0-2.6.58-3.27 1.34-.96.96-1.24 2.21-1.24 4.13s.28 3.16 1.24 4.12c.424.433.932.7758 1.492 1.0078.56.232 1.162.3484 1.768.3422 1.54 0 2.7-.58 3.27-1.35.96-.96 1.24-2.2 1.24-4.12s-.28-3.17-1.24-4.13c-.58-.76-1.73-1.34-3.27-1.34h.01Zm1.24 7.96c-.29.3-.67.48-1.25.48-.57 0-.95-.19-1.24-.48-.58-.57-.58-1.53-.58-2.59 0-1.15.1-2.01.58-2.59.29-.28.67-.48 1.24-.48.58 0 .96.2 1.25.48.58.58.58 1.44.58 2.6 0 1.14 0 2.1-.58 2.58Zm15.83-7.86-1.73 6.62-2.2-6.62h-1.92l-2.2 6.62-1.73-6.62h-2.79l3.26 10.65h2.21l2.2-6.72 2.21 6.72h2.21l3.26-10.65h-2.78Zm-24.57 7.38V9.97999h-2.68V21.78c0 1.53.96 3.07 3.07 3.07h1.53v-2.21h-.96c-.67 0-.96-.39-.96-1.06Zm-76.92-5.56 1.34-1.34h-2.88v-3.36h-1.53v10.65c0 1.53.86 2.78 2.59 2.78h1.05V23.5h-.76c-.96 0-1.44-.57-1.44-1.53v-5.85l1.63-.1Z" fill="#222426"/><path d="M21 27v-8h3v11H0V19h3v8h18Z" fill="#BCBBBB"/><path d="m5.4 19.1 13.6 2 .2-2.4-13.3-2.6-.5 3Zm1.8-6.8 12 5.6 1.1-2.4-12-5.59999L7.2 12.3Zm3.4-5.89999L20.8 14.9l1.7-2-10.2-8.49999-1.7 2ZM17.1.200012 15 1.80001 22.9 12.4l2.1-1.6L17.1.200012ZM5 25h14v-3H5v3Z" fill="#F48024"/></svg>