<svg width="154" height="30" fill="none" xmlns="http://www.w3.org/2000/svg"><path d="M21 27v-8h3v11H0V19h3v8h18Z" fill="#BCBBBB"/><path d="m5.4021 19.1011 13.561 1.9599.1639-2.3806L5.87134 16.134l-.46924 2.9671ZM7.2 12.3l12 5.6 1.1-2.4-12-5.59999L7.2 12.3Zm3.4-5.89999L20.8 14.9l1.7-2-10.2-8.49999-1.7 2ZM17.1.200012 15 1.80001 22.9 12.4l2.1-1.6L17.1.200012ZM5 25h14v-3H5v3Z" fill="#F48024"/><path fill="#D6D9DC" d="M38 11h1v13h-1z"/><path d="M59.5839 19.4749h-1.7533c-.1827 0-.3288.1151-.3653.3068-.0731.3451-.2192.6903-.4018.9587-.1826.2685-.4018.4602-.6575.6136-.2557.1534-.5844.2301-.9132.2301-.2922 0-.5479-.0384-.8036-.1534-.2557-.1151-.4748-.2685-.6209-.4218-.1019-.107-.1683-.2326-.2239-.3378-.0241-.0457-.0462-.0876-.0683-.1224-.0535-.1123-.0874-.2452-.1304-.4136-.0157-.0616-.0327-.1281-.0523-.2-.0365-.2684-.073-.6136-.1096-.9587 0-.1453-.0064-.3177-.0139-.5174-.0103-.2746-.0226-.6008-.0226-.9782 0-.6519 0-1.1504.0365-1.4955 0-.3452.0366-.652.1096-.9588.0366-.2684.1096-.4601.1827-.6135.073-.1534.1461-.3068.2922-.4602.1826-.1917.3652-.3451.6209-.4218.2557-.1151.5114-.1534.8036-.1534.5114 0 .9497.1534 1.2785.4602.3287.3067.5479.7286.694 1.3038.0365.1917.1826.3068.3653.3068h1.7898c.1096 0 .2192-.0384.2922-.1534.0731-.0767.1096-.1918.0731-.3068-.2192-1.2655-.7306-2.2625-1.4976-2.9528C57.6845 11.3451 56.6982 11 55.5659 11c-.621 0-1.2419.115-1.7898.3451-.621.1918-1.1324.5369-1.5707.9971-.2922.3451-.5114.6902-.694 1.0354-.1461.3068-.2922.6902-.3653 1.0737-.073.3835-.1096.8053-.1461 1.2272v1.764c0 .9587.0365 1.6873.0731 2.2242.0365.5368.1461 1.0354.3287 1.5339.1826.4985.4749.9203.8401 1.3805.2557.2685.5845.5369.9497.767.3653.2301.7306.3835 1.0958.4985.3653.1151.8036.1534 1.2054.1534.5479 0 1.0958-.0767 1.5707-.2684.5114-.1918.9497-.4219 1.3515-.767.4018-.3451.7305-.767.9862-1.2655.2557-.4985.4384-1.0737.5479-1.7257 0-.115 0-.23-.073-.3067-.1096-.1534-.2192-.1918-.2922-.1918Z" fill="#222426"/><path fill-rule="evenodd" clip-rule="evenodd" d="M70.1694 13.7611c-.1837-.4986-.4408-.9587-.8449-1.3806C68.4061 11.4602 67.3041 11 66.0184 11c-1.2857 0-2.3878.4602-3.2694 1.3805-.2939.3068-.551.6519-.698.9971-.1469.3451-.2939.7286-.3673 1.1121-.0735.3835-.1102.8053-.147 1.2271-.0367.4218-.0367 1.0354-.0367 1.764 0 .9587.0367 1.6873.0735 2.2242.0367.5369.1469 1.0354.3306 1.5339.1837.4986.4775.9204.8449 1.3806.8816.9203 1.9837 1.3805 3.2694 1.3805s2.3877-.4602 3.3061-1.4189c.3673-.4218.6612-.882.8449-1.3805.1837-.4602.2571-.9971.2939-1.5339.0367-.4986.0367-1.2655.0367-2.2242 0-.9587 0-1.6873-.0367-2.2242-.0368-.4985-.147-.9971-.2939-1.4572Zm-2.1306 3.7197c0 .767 0 1.3806-.0368 1.8407-.0367.4219-.0734.767-.1836.9971-.0735.2301-.1837.4218-.3674.6136-.3673.4218-.8449.6135-1.4326.6135-.2939 0-.5511-.0383-.8082-.1534-.2571-.115-.4775-.2684-.6245-.4218-.1469-.1534-.2571-.3068-.2939-.4602-.0367-.0767-.1102-.2684-.1469-.5752-.0367-.2684-.0735-.5752-.1102-.9587 0-.1692-.0072-.3607-.0151-.5746-.0102-.271-.0216-.5783-.0216-.921 0-1.1504.0367-1.9941.1102-2.4543.0734-.4218.2204-.7669.4408-1.0354.1469-.1917.3673-.3451.6245-.4601.2571-.1151.551-.1534.8081-.1534.2939 0 .5511.0767.8082.1534.2571.115.4775.2684.6245.4601.2204.2685.3673.5753.4408.9971.1469.4985.1837 1.3422.1837 2.4926Z" fill="#222426"/><path d="M74.484 21.5405h5.1507c.2192 0 .3653.1952.3653.3904v1.6787c0 .2342-.1461.3904-.3653.3904h-7.2694c-.2192 0-.3653-.1562-.3653-.3904V11.3904c0-.2342.1461-.3904.3653-.3904h1.7534c.2192 0 .3653.1562.3653.3904v10.1501ZM88.6347 21.5405H83.484V11.3904c0-.2342-.1461-.3904-.3653-.3904h-1.7534c-.2192 0-.3653.1562-.3653.3904v12.2192c0 .2342.1461.3904.3653.3904h7.2694c.2192 0 .3653-.1562.3653-.3904v-1.6787c0-.1952-.1826-.3904-.3653-.3904ZM91.3636 11h7.2728c.1818 0 .3636.1562.3636.3904V13.03c0 .2343-.1455.3904-.3636.3904h-5.2v2.8108H97.8c.2182 0 .3636.1562.3636.3904v1.6397c0 .2342-.1454.3904-.3636.3904h-4.3636v2.8888h5.2c.2181 0 .3636.1562.3636.3904v1.6787c0 .2342-.1455.3904-.3636.3904h-7.2728c-.2181 0-.3636-.1562-.3636-.3904V11.3904c0-.2342.1455-.3904.3636-.3904ZM108.582 19.4118h-1.76c-.184 0-.33.1147-.367.3058-.073.3442-.22.6883-.403.9559-.184.2677-.404.4589-.661.6118-.256.1529-.586.2294-.917.2294-.293 0-.55-.0382-.806-.1529-.257-.1147-.477-.2677-.624-.4206-.102-.1067-.169-.2319-.225-.3368-.024-.0456-.046-.0873-.068-.122-.054-.112-.088-.2444-.131-.4124-.016-.0614-.033-.1277-.053-.1994-.036-.2677-.073-.6118-.11-.9559 0-.1448-.006-.3168-.014-.5158-.01-.2738-.022-.5991-.022-.9754 0-.65 0-1.147.036-1.4911 0-.3442.037-.65.11-.9559.037-.2677.11-.4589.184-.6118.073-.1529.183-.3059.293-.4206.183-.1912.367-.3441.624-.4206.256-.1147.513-.1529.806-.1529.514 0 .954.1529 1.284.4588.33.3059.55.7265.697 1.3.037.1912.183.3059.367.3059h1.797c.11 0 .22-.0382.293-.1529.074-.0765.11-.1912.074-.3059-.22-1.2618-.734-2.2559-1.504-2.9441-.807-.6883-1.797-1.0324-2.934-1.0324-.624 0-1.247.1147-1.797.3441-.55.2294-1.064.5735-1.504 1.0324-.293.3059-.55.65-.697.9941-.147.3441-.293.7265-.367 1.1088-.073.3823-.11.8028-.146 1.2233-.037.4206-.037 1.0326-.037 1.7591 0 .9558.037 1.6823.073 2.2176.037.5353.147 1.0324.33 1.5294.184.4971.477.9177.844 1.3765.257.2676.587.5353.954.7647.366.2294.733.3824 1.1.4971.367.1147.807.1529 1.21.1529.55 0 1.1-.0765 1.577-.2676.514-.1912.954-.4206 1.357-.7648.404-.3441.734-.7647.99-1.2617.257-.4971.441-1.0706.551-1.7206 0-.1147 0-.2294-.074-.3059-.11-.2294-.22-.2676-.33-.2676ZM110.376 11h8.28c.189 0 .377.1562.339.3904v1.6787c0 .2342-.15.3904-.376.3904h-2.861v10.1501c0 .2342-.15.3904-.376.3904h-1.769c-.226 0-.376-.1562-.376-.3904V13.4595h-2.861c-.225 0-.376-.1562-.376-.3904v-1.6787c0-.2342.151-.3904.376-.3904ZM122.632 11h-1.764c-.221 0-.368.1562-.368.3904v12.2192c0 .2342.147.3904.368.3904h1.764c.221 0 .368-.1562.368-.3904V11.3904c0-.2342-.147-.3904-.368-.3904ZM132.212 11h1.894c.113 0 .227.039.34.1562.038.1171.076.2342.038.3513l-3.938 12.2192c-.038.1562-.189.2733-.341.2733h-1.401c-.189 0-.341-.1171-.379-.2733l-3.9-12.2192c-.038-.1171-.038-.2733.038-.3513.075-.0781.189-.1562.303-.1562h1.855c.19 0 .341.1171.379.2733l2.348 7.7297 2.386-7.7297c.075-.1562.227-.2733.378-.2733ZM143.136 11h-7.272c-.219 0-.364.1562-.364.3904v12.2192c0 .2342.145.3904.364.3904h7.272c.219 0 .364-.1562.364-.3904v-1.6787c0-.2342-.145-.3904-.364-.3904h-5.2v-2.8888h4.364c.218 0 .364-.1562.364-.3904v-1.6397c0-.2342-.146-.3904-.364-.3904h-4.364v-2.8108h5.2c.219 0 .364-.1561.364-.3904v-1.6396c0-.2342-.145-.3904-.364-.3904ZM151.426 16.6488c.37.1548.704.3482.963.6191.704.6577 1.074 1.5863 1.111 2.7857 0 .5803-.111 1.122-.333 1.625-.223.5029-.556.9285-.963 1.2768-.408.3482-.889.619-1.445.7738-.518.1934-1.148.2708-1.778.2708-.925 0-1.74-.1161-2.444-.3869-.704-.2708-1.333-.6964-1.926-1.3155-.074-.0774-.111-.1547-.111-.2708 0-.1161.037-.1935.111-.2708l1.185-1.1995c.074-.0773.148-.116.26-.116.111 0 .185.0387.259.116.259.2709.518.4643.778.6191.296.1548.592.2708.888.3482.297.0774.667.1161 1.038.1161.666 0 1.185-.1548 1.555-.4256.333-.2322.482-.5804.482-1.0447 0-.4256-.112-.7738-.334-.9672-.111-.1548-.222-.2322-.37-.2709-.023-.0058-.048-.0126-.075-.0199-.153-.0413-.377-.102-.629-.1348l-1.37-.1935c-1.037-.1547-1.815-.5029-2.408-1.0833-.629-.619-.963-1.5089-.963-2.5923 0-.7738.186-1.4702.519-2.0506.333-.5803.852-1.0833 1.481-1.3928.63-.3095 1.371-.4643 2.223-.4643.814 0 1.555.1161 2.148.3482.592.2322 1.185.6191 1.703 1.122.075.0774.112.1548.112.2709 0 .0774-.037.1934-.112.2708l-1.148 1.1607c-.148.1548-.37.1548-.518 0-.222-.2321-.445-.3869-.667-.503-.039-.0176-.078-.0353-.116-.0527-.212-.0969-.405-.1853-.625-.2181-.259-.0387-.555-.0774-.888-.0774-.371 0-.704.0774-.963.1935-.223.1161-.408.2708-.556.503-.111.2321-.185.4642-.185.7738 0 .3869.074.6577.296.8512.074.0773.259.1934.445.2708.222.1161.444.1548.666.1934l1.334.1935c.555.0774 1 .1934 1.37.3482Z" fill="#222426"/></svg>