<svg width="111" height="22" fill="none" xmlns="http://www.w3.org/2000/svg"><path d="M16 20v-6h2v8H0v-8h2v6h14Z" fill="#C1BEBC"/><path d="M4 18h10v-2H4v2Zm8.7238-18-1.5751 1.1715 5.8575 7.87463 1.5751-1.1715L12.7238 0ZM7.85558 4.64269l7.54122 6.28101 1.2567-1.50839-7.54186-6.281-1.25606 1.50838ZM5.39364 9.00762l8.89696 4.14358.8284-1.7799-8.89692-4.14293-.82844 1.77925Zm-1.2705 4.59868 9.90716 1.6704.1312-1.6694-9.63479-1.9219-.40357 1.9209Z" fill="#F48024"/><path d="m31.2577 11.5166 1.0403-1.0403h-2.1306V7.94713H29.042v7.98627c0 1.1415.6569 2.0633 1.9694 2.0633h.7974v-.9691h-.5937c-.7195 0-1.0477-.4219-1.0477-1.1255v-4.3855h1.0903Zm58.719 4.0674V6.86157h-1.9988v8.84553c0 1.1382.6915 2.2916 2.3369 2.2916h1.1374v-1.6919h-.7687c-.5072 0-.7068-.2456-.7068-.7228Zm18.0273-5.59686-1.292 4.95126-1.645-4.95126h-1.461l-1.63 4.95126-1.292-4.95126h-2.1214l2.4604 8.01156h1.645l1.676-5.0284 1.676 5.0284h1.645l2.445-8.01156h-2.106ZM96.0999 15.9381c-.2309.2303-.5384.3534-.9384.3534-.3994 0-.6916-.1231-.9225-.3534-.4153-.4153-.4613-1.1228-.4613-1.9528 0-.8307.046-1.5222.4613-1.9375.2309-.2303.5231-.3534.9225-.3534.4 0 .7075.1231.9384.3534.4147.4153.4613 1.1068.4613 1.9375 0 .83-.0466 1.5375-.4613 1.9528Zm-.9384-6.04281c-1.1841 0-1.9834.46121-2.4753.98371-.7228.7535-.9072 1.6606-.9072 3.1063 0 1.4609.1844 2.3681.9072 3.1215.4919.5225 1.2912.9838 2.4753.9838s1.9987-.4613 2.4913-.9838c.7228-.7534.9071-1.6606.9071-3.1215 0-1.4457-.1843-2.3528-.9071-3.1063-.4926-.5225-1.3072-.98371-2.4913-.98371ZM83.0448 9.1525v8.8376h1.9995v-6.3164h1.4762v-1.5222h-1.4762v-.87587c0-.46191.2302-.72282.7068-.72282h.7694V6.86157h-1.1381c-1.63 0-2.3376 1.15279-2.3376 2.29093Zm-4.1135 1.6034v-.76876h-1.9528v8.01156h1.9987v-4.8281c0-1.015.6769-1.4762 1.2919-1.4762.4919 0 .7468.163 1.055.4705l1.5128-1.5162c-.5537-.5537-1.1075-.75341-1.8915-.75341-.8606 0-1.63.39931-2.0141.86061Zm-7.961 2.4912c.0147-.354.0612-.569.1844-.8612.215-.4766.6609-.83 1.3378-.83.6762 0 1.1222.3534 1.3378.83.1225.2922.1691.5072.1844.8612h-3.0444Zm1.5222-3.35181c-2.076 0-3.491 1.47621-3.491 4.09001 0 3.2447 1.8144 4.1053 3.706 4.1053 1.4456 0 2.2297-.446 3.0443-1.2606l-1.2147-1.1841c-.5071.5072-.9378.7534-1.8143.7534-1.1222 0-1.7525-.7534-1.7525-1.7837h5.0125v-.8919c0-2.1984-1.2613-3.82841-3.4903-3.82841Zm-5.5077.09185-1.614 4.95126-1.63-4.95126h-2.1066l2.9525 8.01156h1.5681l2.9366-8.01156h-2.1066Zm-7.7826 5.95096c-.231.2303-.5385.3534-.9378.3534-.4 0-.6922-.1231-.9225-.3534-.4153-.4153-.4619-1.1228-.4619-1.9528 0-.8307.0466-1.5222.4619-1.9375.2303-.2303.5225-.3534.9225-.3534.3993 0 .7068.1231.9378.3534.4153.4153.4612 1.1068.4612 1.9375 0 .83-.0459 1.5375-.4612 1.9528Zm-.9378-6.04281c-1.1841 0-1.9834.46121-2.476.98371-.7221.7535-.9072 1.6606-.9072 3.1063 0 1.4609.1851 2.3681.9072 3.1215.4926.5225 1.2919.9838 2.476.9838 1.1834 0 1.9987-.4613 2.4906-.9838.7228-.7534.9072-1.6606.9072-3.1215 0-1.4457-.1844-2.3528-.9072-3.1063-.4919-.5225-1.3072-.98371-2.4906-.98371Zm-5.2874.40001h-1.403l-3.487 3.3951.0053-6.82217h-1.1248V17.9967h1.1248L48.087 15.19l1.3651-1.3698 2.5791 4.1765h1.3911l-3.1908-4.9559 2.7455-2.7455Zm-9.6383.9185c.7342 0 1.1881.2183 1.7658.8593 0 0 .7535-.7322.7475-.7388-.7894-.844-1.459-1.1209-2.5133-1.1209-1.9381 0-3.4077 1.3126-3.4077 3.9383s1.4696 3.9389 3.4077 3.9389c1.063 0 1.7345-.2816 2.5319-1.1408l-.7661-.7348c-.5777.6409-1.0316.8752-1.7658.8752-.7507 0-1.3757-.2968-1.7817-.8752-.3601-.4999-.5005-1.0942-.5005-2.0633 0-.9684.1404-1.5628.5005-2.0627.406-.579 1.031-.8752 1.7817-.8752Zm-5.5329 4.0634c0 .6409-.1252 1.0789-.3907 1.3285-.4846.4692-1.063.5158-1.7199.5158-1.2187 0-1.7658-.422-1.7658-1.3132 0-.8905.5625-1.3591 1.7192-1.3591h2.1572v.828Zm-1.9542-5.0638c-1.2333 0-2.0107.243-2.6916 1.1056-.0093.0113.7382.7388.7382.7388.4532-.641.9531-.8753 1.9381-.8753 1.4064 0 1.9695.5624 1.9695 1.6879v.7342h-2.3136c-1.7192 0-2.657.8759-2.657 2.2197 0 .6096.203 1.188.5784 1.5634.4846.4999 1.1095.7029 2.1725.7029 1.0316 0 1.594-.203 2.2197-.828v.7341h1.1248v-5.2201c0-1.6726-1.0157-2.5632-3.079-2.5632Zm-9.6236 3.4537-1.2346-.1091c-.9691-.0779-1.3439-.4686-1.3439-1.1255 0-.7814.5937-1.266 1.7192-1.266.7974 0 1.5003.1877 2.0474.6097l.7348-.7348c-.6876-.5624-1.6726-.828-2.7668-.828-1.6407 0-2.8288.844-2.8288 2.2504 0 1.2659.7974 1.9381 2.2976 2.0633l1.266.1091c.8912.0786 1.2819.4533 1.2819 1.1255 0 .9065-.7814 1.3598-2.048 1.3598-.9531 0-1.7818-.2503-2.3915-.8906l-.7501.7502c.844.8126 1.8603 1.1095 3.1575 1.1095 1.8597 0 3.1263-.8593 3.1263-2.3442 0-1.4383-.9225-1.9541-2.267-2.0793Z" fill="#222426"/></svg>