<svg width="96" height="30" fill="none" xmlns="http://www.w3.org/2000/svg"><path d="M21 27v-8h3v11H0V19h3v8h18Z" fill="#BCBBBB"/><path d="m5.4021 19.1011 13.561 1.9599.1639-2.3806L5.87134 16.134l-.46924 2.9671ZM7.2 12.3l12 5.6 1.1-2.4-12-5.6-1.1 2.4Zm3.4-5.9 10.2 8.5 1.7-2-10.2-8.5-1.7 2ZM17.1.200001 15 1.8l7.9 10.6 2.1-1.6L17.1.200001ZM5 25h14v-3H5v3Z" fill="#F48024"/><path fill="#D6D9DC" d="M38 11h1v13h-1z"/><path d="M59.5713 11.0027h-2.4761c-.0595 0-.1167.0234-.1588.0651s-.0657.0982-.0657.1571v8.3169c0 1.2658-.6237 1.9326-1.7714 1.9326-.2781.0112-.5551-.0409-.8097-.1522-.2547-.1113-.4801-.2789-.6591-.4899-.0415-.0408-.0975-.0636-.1559-.0636-.0584 0-.1145.0228-.156.0636L51.6783 22.45c-.0412.0423-.0647.0986-.0655.1574-.0002.0292.0054.0582.0167.0853.0112.027.0278.0516.0488.0721.9699.9602 1.9616 1.3522 3.4304 1.3522 2.2609 0 4.6934-1.3954 4.6934-4.4579v-8.4342c.0005-.0298-.0053-.0594-.0168-.087-.0115-.0276-.0286-.0525-.0502-.0733-.0216-.0209-.0473-.0371-.0754-.0477-.0282-.0107-.0582-.0155-.0884-.0142ZM66.9959 10.8977c-.6678-.0177-1.3321.1012-1.9513.3493-.6193.2481-1.1801.62-1.6475 1.0924-1.3129 1.2997-1.3129 2.9298-1.3129 4.992v.3581c0 2.0623 0 3.7046 1.3129 4.992.4672.4727 1.028.8448 1.6473 1.0929s1.2836.3669 1.9515.3488c.6649.017 1.3261-.1023 1.9422-.3504.6161-.2481 1.1737-.6197 1.6379-1.0913 1.3316-1.3182 1.3316-2.8989 1.3316-5.0815v-.1729c0-2.1857 0-3.7633-1.3316-5.0815-.4637-.4726-1.0211-.8452-1.6372-1.0944-.6161-.2491-1.2776-.3695-1.9429-.3535Zm-1.4377 3.223c.1835-.1941.4066-.3473.6544-.4495.2479-.1022.5149-.151.7833-.1432.2653-.0087.5293.0398.7738.1421.2445.1024.4635.2561.642.4506.4335.4755.5676 1.0034.5676 3.3959 0 2.3926-.1341 2.9051-.5738 3.3959-.1778.1956-.3967.3503-.6413.4532-.2446.1029-.5089.1516-.7746.1427-.2694.0076-.5373-.0419-.7858-.1452-.2485-.1033-.4718-.258-.6549-.4538C65.131 20.4495 65 19.9215 65 17.529c0-2.3926.1372-2.9267.5582-3.4083ZM82.141 17.3407c.4156-.2945.7544-.6827.9881-1.1327.2338-.4499.3558-.9485.356-1.4544 0-2.3123-1.5936-3.7509-4.1508-3.7509h-5.0988c-.0293 0-.0584.0057-.0854.0169-.0271.0112-.0517.0277-.0723.0483-.0206.0207-.0368.0453-.0478.0722-.0109.027-.0163.0558-.0159.0848v12.5649c0 .0581.0233.1139.0648.155.0416.0411.0979.0642.1566.0642h5.3015c2.5323 0 4.1072-1.4695 4.1072-3.8374.0296-.5621-.0943-1.1216-.3588-1.6198-.2646-.4982-.6599-.9166-1.1444-1.2111Zm-3.0031-1.2534h-2.2017v-2.4544h2.2017c.8888 0 1.4158.46 1.4158 1.2349 0 .7749-.527 1.2195-1.4158 1.2195Zm-2.2017 2.6457H79.3c.8982 0 1.4346.4908 1.4346 1.3151 0 .8243-.5364 1.346-1.4346 1.346h-2.3638V18.733ZM94.3429 17.2573c-.5957-.5526-1.3816-.8675-2.5448-1.028l-1.4969-.213c-.3879-.0391-.7557-.1905-1.0572-.4353-.0998-.0956-.179-.2103-.2326-.3372-.0536-.1268-.0806-.2632-.0792-.4007 0-.8428.6673-1.3676 1.7401-1.3676.789 0 1.6996.0957 2.4481.8027.0203.0205.0446.0368.0713.048.0268.0111.0556.0168.0846.0168.0291 0 .0578-.0057.0846-.0168.0268-.0112.051-.0275.0713-.048l1.5593-1.5436c.0413-.0424.0647-.0987.0655-.1575.0002-.0295-.0058-.0587-.0176-.0858-.0118-.0271-.0292-.0515-.051-.0716-1.0853-1.0527-2.395-1.522-4.2381-1.522-2.7755 0-4.6435 1.6208-4.6435 4.0319 0 1.1206.3118 1.9789.9792 2.6302.5956.5743 1.4408.9262 2.5822 1.1022l1.5312.2099c.3681.0148.7211.1493 1.0041.3828.1119.1203.1974.2622.2511.4168.0537.1547.0744.3186.0608.4816 0 1.1021-1.0977 1.3336-2.0208 1.3336-1.2818 0-2.2329-.3087-2.9096-.994-.0413-.0412-.0974-.0645-.156-.0649-.0594.0009-.1162.0241-.159.0649l-1.6061 1.5868c-.0411.041-.0642.0965-.0642.1544 0 .0578.0231.1133.0642.1543 1.2038 1.2102 2.6383 1.7257 4.7932 1.7257 2.9471 0 4.9305-1.6207 4.9305-4.0318.0125-1.2195-.3462-2.1703-1.0447-2.8248Z" fill="#222426"/></svg>