<svg width="202" height="37" fill="none" xmlns="http://www.w3.org/2000/svg"><path d="M26 33v-9h4v13H0V24h4v9h22Z" fill="#BCBBBB"/><path d="m23.0908 25.9902.6936-2.9492-16.10447-3.354L7 23l16.0908 2.9902ZM9.1 15.2l15 7 1.4-3-15-7-1.4 3Zm4.2-7.4L26 18.4l2.1-2.5L15.4 5.3l-2.1 2.5ZM21.5 0l-2.7 2 9.9 13.3 2.7-2L21.5 0ZM7 30h16v-3H7v3Z" fill="#F48024"/><path fill="#D6D9DC" d="M47 13h1v17h-1z"/><path d="M75.8903 24.0826h-2.4287c-.253 0-.4554.1504-.506.4012-.1012.4513-.3035.9026-.5565 1.2537-.253.351-.5566.6017-.9108.8023-.3542.2006-.8095.3009-1.2649.3009-.4048 0-.7589-.0501-1.1131-.2006-.3542-.1504-.6578-.351-.8602-.5516-.1411-.1399-.233-.3041-.31-.4417-.0335-.0598-.0641-.1145-.0947-.1601-.074-.1465-.1209-.3199-.1803-.5395l-.0003-.0011-.0003-.0012c-.0217-.0803-.0452-.167-.0721-.2605-.0506-.3511-.1012-.8024-.1518-1.2537 0-.1901-.009-.4158-.0194-.677-.0143-.3591-.0312-.7853-.0312-1.2788 0-.8525 0-1.5044.0506-1.9557 0-.4514.0506-.8525.1518-1.2537.0506-.351.1518-.6018.253-.8024.1011-.2006.2023-.4012.4047-.6017.253-.2508.506-.4514.8602-.5517.3542-.1504.7083-.2006 1.1131-.2006.7084 0 1.3155.2006 1.7709.6018s.759.9528.9613 1.705c.0506.2508.253.4012.506.4012h2.4792c.1518 0 .3036-.0501.4048-.2006.1012-.1003.1518-.2507.1012-.4012-.3036-1.6548-1.0119-2.9587-2.0745-3.8613C73.2592 13.4513 71.8931 13 70.3246 13c-.8601 0-1.7203.1504-2.4792.4513-.8602.2508-1.5685.7021-2.1757 1.3039-.4048.4513-.7084.9026-.9613 1.3539-.2024.4012-.4048.9027-.506 1.4042-.1012.5014-.1518 1.0531-.2024 1.6047v2.3068c0 1.2537.0506 2.2065.1012 2.9085.0506.7021.2024 1.354.4554 2.0059.2529.6519.6577 1.2036 1.1637 1.8053.3542.3511.8095.7021 1.3155 1.003.506.3009 1.0119.5015 1.5179.6519.506.1505 1.1131.2006 1.6697.2006.759 0 1.5179-.1003 2.1757-.351.7083-.2508 1.3155-.5517 1.8721-1.003.5565-.4513 1.0119-1.0029 1.3661-1.6549.3541-.6519.6071-1.4041.7589-2.2566 0-.1504 0-.3009-.1012-.4012-.1518-.2006-.3036-.2507-.4047-.2507Z" fill="#222426"/><path fill-rule="evenodd" clip-rule="evenodd" d="M90.0087 16.6106c-.2544-.6519-.6106-1.2537-1.1703-1.8053C87.5663 13.6018 86.0397 13 84.2588 13c-1.781 0-3.3075.6018-4.5287 1.8053-.4071.4012-.7633.8525-.9668 1.3038-.2036.4514-.4071.9528-.5089 1.4543-.1017.5015-.1526 1.0531-.2035 1.6047C78 19.7198 78 20.5221 78 21.4749c0 1.2537.0509 2.2065.1018 2.9086.0508.702.2035 1.354.4579 2.0059.2544.6519.6615 1.2035 1.1704 1.8053C80.9513 29.3982 82.4778 30 84.2588 30c1.7809 0 3.3075-.6018 4.5796-1.8555.5088-.5516.9159-1.1534 1.1703-1.8053.2544-.6017.3562-1.3038.4071-2.0059.0509-.6519.0509-1.6548.0509-2.9085s0-2.2065-.0509-2.9086c-.0509-.6519-.2036-1.3038-.4071-1.9056Zm-2.9513 4.8643c0 1.003 0 1.8053-.0509 2.4071-.0509.5516-.1017 1.003-.2544 1.3038-.1018.3009-.2544.5517-.5088.8024-.5089.5516-1.1704.8024-1.9845.8024-.4071 0-.7633-.0502-1.1195-.2006-.3562-.1505-.6615-.3511-.865-.5517-.2036-.2005-.3562-.4011-.4071-.6017-.0509-.1003-.1526-.3511-.2035-.7522-.0509-.3511-.1018-.7522-.1527-1.2537 0-.2214-.0099-.4722-.021-.7522-.014-.3543-.0299-.7555-.0299-1.2036 0-1.5044.0509-2.6076.1527-3.2094.1018-.5516.3053-1.003.6106-1.354.2035-.2507.5088-.4513.865-.6018.3562-.1504.7633-.2006 1.1195-.2006.4071 0 .7633.1003 1.1194.2006.3562.1505.6615.3511.8651.6018.3053.351.5088.7522.6106 1.3038.2035.652.2544 1.7552.2544 3.2596Z" fill="#222426"/><path d="M95.5001 26.7838h6.5669c.28 0 .466.2552.466.5105v2.1952c0 .3063-.186.5105-.466.5105h-9.2682c-.2795 0-.4658-.2042-.4658-.5105v-15.979c0-.3063.1863-.5105.4658-.5105h2.2356c.2794 0 .4657.2042.4657.5105v13.2733ZM114.816 26.7838h-7.297V13.5105c0-.3063-.207-.5105-.517-.5105h-2.484c-.311 0-.518.2042-.518.5105v15.979c0 .3063.207.5105.518.5105h10.298c.31 0 .517-.2042.517-.5105v-2.1952c0-.2553-.258-.5105-.517-.5105ZM117.782 13h10.303c.257 0 .515.2042.515.5105v2.1442c0 .3063-.206.5105-.515.5105h-7.367v3.6756h6.182c.309 0 .515.2042.515.5106v2.1441c0 .3063-.206.5105-.515.5105h-6.182v3.7778h7.367c.309 0 .515.2042.515.5105v2.1952c0 .3063-.206.5105-.515.5105h-10.303c-.309 0-.515-.2042-.515-.5105v-15.979c0-.3063.206-.5105.515-.5105ZM140.807 24h-2.217c-.231 0-.415.15-.462.4-.092.45-.277.9-.508 1.25-.23.35-.508.6-.831.8-.323.2-.739.3-1.154.3-.37 0-.693-.05-1.017-.2-.323-.15-.6-.35-.785-.55-.128-.1394-.212-.3032-.283-.4404-.03-.0596-.058-.1142-.086-.1596-.068-.1464-.111-.3196-.165-.5393l-.001-.002-.001-.0073c-.02-.0777-.04-.1612-.064-.2514-.046-.35-.092-.8-.139-1.25 0-.1893-.008-.4139-.017-.674v-.001c-.013-.3578-.029-.7834-.029-1.275 0-.8496 0-1.5001.046-1.95 0-.45.047-.85.139-1.25.046-.35.138-.6.231-.8.092-.2.231-.4.369-.55.231-.25.462-.45.785-.55.324-.15.647-.2 1.017-.2.646 0 1.2.2 1.616.6.416.4.693.95.877 1.7.047.25.231.4.462.4h2.263c.139 0 .277-.05.37-.2.092-.1.138-.25.092-.4-.277-1.65-.923-2.95-1.893-3.85-1.016-.9-2.263-1.35-3.695-1.35-.785 0-1.57.15-2.263.45-.693.3-1.34.75-1.894 1.35-.369.4-.692.85-.877 1.3-.185.45-.37.95-.462 1.45-.092.4998-.139 1.0497-.185 1.5995C130 19.6995 130 20.5 130 21.45c0 1.25.046 2.2.092 2.9.047.7.185 1.35.416 2 .231.65.6 1.2 1.062 1.8.324.35.739.7 1.201 1 .462.3.924.5 1.386.65.461.15 1.016.2 1.524.2.692 0 1.385-.1 1.986-.35.646-.25 1.2-.55 1.708-1 .508-.45.924-1 1.247-1.65.324-.65.555-1.4.693-2.25 0-.15 0-.3-.092-.4-.139-.3-.277-.35-.416-.35ZM143.474 13h10.427c.237 0 .474.2042.426.5105v2.1952c0 .3063-.189.5105-.474.5105h-3.602v13.2733c0 .3063-.189.5105-.474.5105h-2.227c-.285 0-.474-.2042-.474-.5105V16.2162h-3.602c-.284 0-.474-.2042-.474-.5105v-2.1952c0-.3063.19-.5105.474-.5105ZM159.834 13h-2.4c-.3 0-.5.2042-.5.5105v15.979c0 .3063.2.5105.5.5105h2.4c.3 0 .5-.2042.5-.5105v-15.979c0-.3063-.2-.5105-.5-.5105ZM173.089 13h2.575c.155 0 .309.0511.464.2042.051.1532.103.3063.051.4595l-5.356 15.9789c-.052.2042-.258.3574-.464.3574h-1.905c-.258 0-.464-.1532-.515-.3574l-5.305-15.9789c-.051-.1532-.051-.3574.052-.4595.103-.1021.257-.2042.412-.2042h2.523c.258 0 .464.1532.515.3574l3.193 10.1081 3.245-10.1081c.103-.2042.309-.3574.515-.3574ZM187.736 13h-9.272c-.279 0-.464.2042-.464.5105v15.979c0 .3063.185.5105.464.5105h9.272c.279 0 .464-.2042.464-.5105v-2.1952c0-.3063-.185-.5105-.464-.5105h-6.63V23.006h5.564c.278 0 .464-.2042.464-.5105v-2.1441c0-.3064-.186-.5106-.464-.5106h-5.564v-3.6756h6.63c.279 0 .464-.2042.464-.5105v-2.1442c0-.3063-.185-.5105-.464-.5105ZM198.594 20.3869c.513.2024.974.4554 1.334.8095.974.8601 1.487 2.0744 1.539 3.6429 0 .7589-.154 1.4672-.462 2.125-.308.6577-.77 1.2143-1.334 1.6696-.564.4554-1.231.8096-2.001 1.0119-.718.253-1.59.3542-2.462.3542-1.283 0-2.412-.1518-3.386-.506-.975-.3541-1.847-.9107-2.668-1.7202-.103-.1012-.154-.2024-.154-.3542 0-.1517.051-.2529.154-.3541l1.642-1.5685c.102-.1012.205-.1518.359-.1518s.256.0506.359.1518c.359.3542.718.6072 1.077.8095.411.2024.821.3542 1.231.4554.411.1012.924.1518 1.437.1518.923 0 1.642-.2024 2.155-.5566.461-.3035.667-.7589.667-1.366 0-.5566-.154-1.0119-.462-1.2649-.154-.2024-.308-.3036-.513-.3542-.031-.0076-.066-.0165-.104-.0261-.211-.054-.523-.1333-.871-.1763l-1.898-.2529c-1.437-.2024-2.514-.6578-3.335-1.4167-.872-.8095-1.334-1.9732-1.334-3.3899 0-1.0119.257-1.9226.719-2.6815.461-.759 1.18-1.4167 2.052-1.8215.872-.4047 1.898-.6071 3.078-.6071 1.129 0 2.155.1518 2.975.4554.821.3035 1.642.8095 2.36 1.4672.103.1012.154.2024.154.3542 0 .1012-.051.253-.154.3542l-1.59 1.5178c-.205.2024-.513.2024-.718 0-.308-.3036-.616-.5059-.924-.6577-.054-.0231-.108-.0463-.161-.069-.293-.1267-.56-.2423-.865-.2852-.359-.0506-.769-.1012-1.231-.1012-.513 0-.975.1012-1.334.253-.308.1518-.564.3542-.769.6577-.154.3036-.257.6072-.257 1.0119 0 .506.103.8602.41 1.1131.103.1012.36.253.616.3542.308.1518.616.2024.924.253l1.846.2529c.77.1012 1.386.253 1.899.4554Z" fill="#222426"/></svg>