<svg width="185" height="37" fill="none" xmlns="http://www.w3.org/2000/svg"><path d="M26 33v-9h4v13H0V24h4v9h22Z" fill="#BCBBBB"/><path d="m23.0908 25.9902.6936-2.9492-16.10447-3.354L7 23l16.0908 2.9902ZM9.1 15.2l15 7 1.4-3-15-7-1.4 3Zm4.2-7.4L26 18.4l2.1-2.5L15.4 5.3l-2.1 2.5ZM21.5 0l-2.7 2 9.9 13.3 2.7-2L21.5 0ZM7 30h16v-3H7v3Z" fill="#F48024"/><path d="M75.5126 13.1918h-9.9987c-.2999 0-.4999.2003-.4999.5008v15.674c0 .3004.2.5007.4999.5007h2.3997c.3 0 .4999-.2003.4999-.5007v-6.1094h5.9992c.3 0 .4999-.2003.4999-.5008v-2.1533c0-.3004-.1999-.5007-.4999-.5007h-5.9992v-3.7558h7.1491c.2999 0 .4999-.2003.4999-.5007v-2.1533c-.05-.2504-.3-.5008-.5499-.5008ZM89.5988 16.6975c-.25-.651-.5999-1.2519-1.1498-1.8028-1.1999-1.2018-2.7497-1.8028-4.4994-1.8028-1.7498 0-3.2495.601-4.4494 1.8028-.3999.4006-.7499.8513-.9498 1.302-.2.4507-.4.9515-.5 1.4522-.1.5008-.1499 1.0516-.1999 1.6025-.05.5508-.05 1.352-.05 2.3035 0 1.2519.05 2.2034.0999 2.9044.05.7011.2 1.3521.45 2.0031.25.651.6499 1.2019 1.1498 1.8028 1.1999 1.2018 2.6996 1.8027 4.4494 1.8027 1.7497 0 3.2495-.6009 4.4994-1.8528.4999-.5509.8998-1.1518 1.1498-1.8028.25-.6009.35-1.302.4-2.003.0499-.651.0499-1.6526.0499-2.9045s0-2.2033-.0499-2.9044c0-.651-.15-1.302-.4-1.9029ZM81.3499 18.35c.1-.5508.3-1.0015.5999-1.3521.2-.2504.5-.4507.8499-.6009.35-.1502.7499-.2003 1.0999-.2003.3999 0 .7499.1002 1.0998.2003.35.1502.6499.3505.8499.6009.3.3506.4999.7512.5999 1.302.1.6009.15 1.7026.15 3.2049 0 1.0016 0 1.8028-.05 2.4037-.05.5508-.1 1.0015-.25 1.302-.0999.3005-.2499.5508-.4999.8012-.4999.5509-1.1498.8012-1.9497.8012-.4 0-.7499-.05-1.0999-.2003-.3499-.1502-.6499-.3505-.8499-.5508-.1999-.2003-.3499-.4006-.3999-.6009-.05-.1002-.15-.3506-.2-.7512-.0499-.3505-.0999-.7511-.1499-1.2519 0-.5008-.05-1.1517-.05-1.953.1-1.4522.15-2.5539.2499-3.1548ZM102.072 22.7567c.75-.3004 1.4-.8012 1.95-1.4522.65-.8012.95-1.8027.95-3.0046 0-.9514-.2-1.8528-.65-2.604-.45-.7511-1.1-1.4021-1.9-1.8027-.8-.4507-1.75-.651-2.7995-.651h-6.0992c-.3 0-.4999.2003-.4999.5007v15.674c0 .3005.1999.5008.4999.5008h2.3997c.2999 0 .4999-.2003.4999-.5008v-6.1093h2.1497l3.1494 6.3096c.1.1503.25.3005.45.3005h2.75c.15 0 .35-.1002.45-.2504.1-.1502.1-.3505 0-.5008l-3.3-6.4098Zm-5.6491-6.4098h2.9996c.6995 0 1.1995.1503 1.5995.5509.4.3505.55.8012.55 1.4522 0 .6009-.2 1.0516-.55 1.4021-.4.3506-.9.5509-1.5995.5509h-2.9996v-3.9561ZM124.044 13.1921h-10.998c-.3 0-.5.2003-.5.5008v2.1533c0 .3004.2.5007.5.5007h3.799v13.02c0 .3004.2.5007.5.5007h2.35c.3 0 .5-.2003.5-.5007v-13.02h3.799c.3 0 .5-.2003.5-.5007v-2.1533c.05-.2504-.2-.5008-.45-.5008ZM137.524 13.1921h-9.999c-.3 0-.5.2003-.5.5008v15.674c0 .3004.2.5007.5.5007h9.999c.3 0 .5-.2003.5-.5007v-2.1533c0-.3005-.2-.5008-.5-.5008h-7.149v-3.7057h5.999c.3 0 .5-.2003.5-.5007v-2.1033c0-.3004-.2-.5007-.5-.5007h-5.999v-3.5555h7.149c.3 0 .5-.2003.5-.5007v-2.1533c0-.2504-.25-.5008-.5-.5008ZM147.942 13.5426c-.05-.2003-.25-.3505-.45-.3505h-1.9c-.2 0-.4.1502-.45.3505l-5.749 15.674c-.05.1503-.05.3005.05.4507.1.1503.25.2003.4.2003h2.549c.2 0 .4-.1502.45-.3505l.95-2.8043h5.449l.95 2.8043c.05.2003.25.3505.45.3505h2.55c.15 0 .3-.1001.4-.2003.1-.1502.1-.3004.05-.4507l-5.699-15.674Zm.299 10.1656h-3.399l1.75-4.9075 1.649 4.9075ZM169.989 13.1921h-2.4c-.2 0-.35.1002-.45.3005l-4 8.7634-4.099-8.7634c-.1-.2003-.25-.3005-.45-.3005h-2.4c-.3 0-.5.2003-.5.5008v15.674c0 .3004.2.5007.5.5007h2.4c.3 0 .5-.2003.5-.5007v-8.2627l2.75 5.6587c.1.1502.25.3004.45.3004h1.749c.2 0 .35-.1001.45-.3004l2.65-5.6086v8.2626c0 .3005.2.5008.5.5008h2.4c.3 0 .499-.2003.499-.5008V13.743c-.05-.3005-.249-.5509-.549-.5509ZM183.437 21.3546c-.35-.3506-.8-.6009-1.3-.8012-.5-.2003-1.1-.3506-1.85-.4507l-1.8-.2504c-.3-.0501-.6-.1002-.899-.2504-.25-.1001-.5-.2504-.6-.3505-.3-.2504-.4-.601-.4-1.1017 0-.4006.1-.7011.25-1.0016.2-.3004.45-.5007.75-.6509.349-.1503.799-.2504 1.299-.2504.45 0 .85.05 1.2.1001.35.0501.7.2003 1 .3506.3.1502.6.3505.9.651.2.2003.5.2003.7 0l1.55-1.5023c.1-.1002.15-.2504.15-.3506 0-.1502-.05-.2504-.15-.3505-.7-.651-1.5-1.1518-2.3-1.4522-.8-.3005-1.8-.4507-2.9-.4507-1.15 0-2.149.2003-2.999.6009-.85.4006-1.55 1.0516-2 1.8027-.45.7512-.7 1.6526-.7 2.6541 0 1.4022.45 2.5539 1.3 3.3551.8.7512 1.85 1.2019 3.249 1.4022l1.85.2504c.4.05.75.1502.95.2003.2.0501.35.1502.5.3505.3.2504.45.7011.45 1.2519 0 .601-.2 1.0516-.65 1.3521-.5.3505-1.2.5508-2.1.5508-.5 0-1-.05-1.399-.1502-.4-.1001-.8-.2504-1.2-.4507-.35-.2003-.7-.4507-1.05-.8012-.1-.1002-.2-.1502-.35-.1502-.15 0-.25.05-.35.1502l-1.6 1.5524c-.1.1001-.15.2003-.15.3505 0 .1502.05.2504.15.3505.8.8013 1.65 1.3521 2.6 1.7027.95.3505 2.05.5007 3.299.5007.85 0 1.7-.1001 2.4-.3505.75-.2003 1.4-.5509 1.95-1.0015.55-.4507 1-1.0016 1.3-1.6526.3-.651.45-1.352.45-2.1032-.05-1.6025-.55-2.8043-1.5-3.6055Z" fill="#222426"/><path fill="#D6D9DC" d="M47 13h1v17h-1z"/></svg>