<svg width="158" height="30" fill="none" xmlns="http://www.w3.org/2000/svg"><path d="M21 27v-8h3v11H0V19h3v8h18Z" fill="#BCBBBB"/><path d="m5.4021 19.1011 13.561 1.9599.1639-2.3806L5.87134 16.134l-.46924 2.9671ZM7.2 12.3l12 5.6 1.1-2.4-12-5.6-1.1 2.4Zm3.4-5.9 10.2 8.5 1.7-2-10.2-8.5-1.7 2ZM17.1.199997 15 1.8l7.9 10.6 2.1-1.6L17.1.199997ZM5 25h14v-3H5v3Z" fill="#F48024"/><path fill="#D6D9DC" d="M38 11h1v13h-1z"/><path d="M57.9013 11.3103c-.0388-.1552-.1942-.2715-.3496-.2715h-1.4765c-.1555 0-.3109.1163-.3497.2715l-4.4683 12.1403c-.0389.1163-.0389.2327.0388.349.0777.1164.1943.1552.3108.1552h1.9816c.1555 0 .3109-.1164.3497-.2715l.7383-2.1721h4.2352l.7382 2.1721c.0389.1551.1943.2715.3497.2715h1.9816c.1166 0 .2332-.0776.3109-.1552.0777-.1163.0777-.2327.0388-.349l-4.4295-12.1403Zm.2332 7.8737h-2.6422l1.36-3.8011 1.2822 3.8011ZM71.9619 13.6375c-.1943-.5042-.5051-.9309-.8937-1.3575-.8159-.8146-1.9816-1.2412-3.4192-1.2412h-4.2741c-.2331 0-.3885.1551-.3885.3879v12.1402c0 .2327.1554.3879.3885.3879h4.2741c1.4376 0 2.6033-.4267 3.4192-1.2412.3886-.3879.6994-.8533.8937-1.3963.1943-.5042.3108-1.0085.3885-1.5515.0389-.5042.0777-1.086.0777-1.7454v-1.2412c0-.6206-.0388-1.2024-.0777-1.6678-.0777-.5042-.1942-.9697-.3885-1.4739Zm-2.1759 3.8011c0 1.0085-.0388 1.823-.1166 2.3272-.0777.4655-.1942.8145-.4274 1.086-.4274.4655-1.0102.6982-1.7873.6982h-1.865v-8.0676h1.865c.7771 0 1.3599.2327 1.7873.6981.1555.1552.272.3879.3497.6594.0777.3103.1555.6206.1555.9697.0388.3878.0388.9308.0388 1.629ZM82.9342 11.0388h-1.9428c-.1554 0-.3108.1163-.3885.2715l-2.4479 7.6798-2.409-7.6798c-.0388-.1552-.1943-.2715-.3885-.2715h-1.9039c-.1166 0-.2332.0776-.3109.1551-.0777.0776-.0777.2328-.0388.3491l4.002 12.1403c.0389.1551.1943.2715.3886.2715h1.4376c.1554 0 .3109-.1164.3497-.2715l4.0409-12.1403c.0389-.1163 0-.2327-.0388-.3491-.1166-.0775-.2332-.1551-.3497-.1551ZM93.1813 11.0388h-7.771c-.2332 0-.3886.1551-.3886.3879v12.1402c0 .2327.1554.3879.3886.3879h7.771c.2331 0 .3885-.1552.3885-.3879v-1.6678c0-.2327-.1554-.3879-.3885-.3879H87.625V18.641h4.6626c.2331 0 .3886-.1552.3886-.3879v-1.629c0-.2327-.1555-.3879-.3886-.3879H87.625v-2.7538h5.5563c.2331 0 .3885-.1552.3885-.3879v-1.6678c0-.194-.1554-.3879-.3885-.3879ZM102.016 18.4471c.582-.2328 1.088-.6206 1.515-1.1249.505-.6205.738-1.3963.738-2.3272 0-.7369-.155-1.4351-.505-2.0169-.35-.5818-.855-1.086-1.476-1.3963-.622-.3491-1.36-.5042-2.176-.5042h-4.7406c-.2331 0-.3885.1551-.3885.3878v12.1403c0 .2327.1554.3879.3885.3879h1.8651c.2331 0 .3885-.1552.3885-.3879v-4.732h1.6708l2.4482 4.8871c.077.1164.194.2328.349.2328h2.137c.117 0 .272-.0776.35-.194.078-.1163.078-.2715 0-.3878l-2.564-4.9647Zm-.35-3.4521c0 .4655-.156.8146-.427 1.0861-.311.2715-.7.4266-1.2438.4266h-2.3313v-3.0253h2.3313c.5438 0 .9328.1163 1.2438.4266.271.2327.427.6206.427 1.086ZM113.834 11.0388h-8.548c-.233 0-.389.1551-.389.3879v1.6678c0 .2327.156.3879.389.3879h2.953v10.0845c0 .2327.155.3879.389.3879h1.826c.233 0 .388-.1552.388-.3879V13.4824h2.953c.233 0 .389-.1552.389-.3879v-1.6678c.039-.194-.156-.3879-.35-.3879ZM118.294 11.0388h-1.865c-.233 0-.388.1551-.388.3879v12.1402c0 .2327.155.3879.388.3879h1.865c.233 0 .389-.1552.389-.3879V11.4267c0-.194-.156-.3879-.389-.3879ZM128.599 17.3222c-.272-.2715-.622-.4654-1.01-.6205-.389-.1552-.855-.2716-1.438-.3491l-1.399-.194c-.233-.0387-.466-.0775-.699-.1939-.194-.0776-.389-.1939-.466-.2715-.233-.1939-.311-.4654-.311-.8533 0-.3103.078-.543.194-.7757.156-.2328.35-.3879.583-.5043.272-.1163.622-.1939 1.01-.1939.35 0 .661.0388.933.0776s.505.1551.777.2715c.233.1163.466.2715.699.5042.156.1551.389.1551.544 0l1.205-1.1636c.077-.0776.116-.1939.116-.2715 0-.1164-.039-.1939-.116-.2715-.544-.5042-1.166-.8921-1.788-1.1248-.621-.2328-1.398-.3491-2.253-.3491-.894 0-1.671.1551-2.332.4654-.66.3103-1.204.8146-1.554 1.3964-.349.5818-.544 1.2799-.544 2.0557 0 1.086.35 1.9781 1.011 2.5987.621.5818 1.437.9308 2.525 1.086l1.438.1939c.311.0388.583.1164.738.1552.155.0388.272.1163.389.2715.233.1939.349.543.349.9697 0 .4654-.155.8145-.505 1.0472-.388.2715-.932.4266-1.632.4266-.388 0-.777-.0387-1.088-.1163-.311-.0776-.621-.1939-.932-.3491-.272-.1551-.544-.3491-.816-.6206-.078-.0776-.156-.1163-.272-.1163-.117 0-.194.0387-.272.1163l-1.244 1.2024c-.077.0776-.116.1552-.116.2715 0 .1164.039.194.116.2715.622.6206 1.283 1.0473 2.021 1.3188.738.2715 1.593.3878 2.564.3878.661 0 1.321-.0775 1.865-.2715.583-.1551 1.088-.4266 1.516-.7757.427-.3491.777-.7757 1.01-1.28.233-.5042.35-1.0472.35-1.629-.039-1.2024-.428-2.1333-1.166-2.7927ZM133.844 11.0388h-1.865c-.233 0-.388.1551-.388.3879v12.1402c0 .2327.155.3879.388.3879h1.865c.234 0 .389-.1552.389-.3879V11.4267c0-.194-.155-.3879-.389-.3879ZM145.534 11.0388h-1.827c-.233 0-.388.1551-.388.3879v7.2531l-4.896-7.4471c-.078-.1163-.194-.1939-.311-.1939h-1.709c-.233 0-.389.1551-.389.3879v12.1402c0 .2327.156.3879.389.3879h1.865c.233 0 .388-.1552.388-.3879v-7.2531l4.896 7.447c.078.1164.194.194.311.194h1.709c.234 0 .389-.1552.389-.3879V11.4267c-.039-.194-.233-.3879-.427-.3879ZM157.129 16.6241h-4.43c-.233 0-.388.1551-.388.3878v1.5515c0 .2327.155.3879.388.3879h2.215v.3103c0 .6981-.194 1.2412-.505 1.6678-.427.5042-.971.737-1.671.737-.311 0-.583-.0388-.855-.1552-.272-.1163-.505-.2715-.66-.4266-.156-.1552-.272-.3491-.311-.4655-.078-.1551-.117-.3491-.194-.6206-.039-.2715-.078-.5818-.117-.9696 0-.3491-.039-.8533-.039-1.5127 0-1.1636.039-2.0169.156-2.4824.077-.4266.233-.7757.505-1.0472.194-.194.388-.3491.66-.4655.272-.1163.544-.1551.855-.1551.389 0 .738.0776 1.049.2327.311.1552.544.3491.739.6206.194.2715.349.6206.427 1.0085.039.1939.194.3103.388.3103h1.866c.116 0 .233-.0388.31-.1552.078-.0776.117-.1939.078-.3103-.116-.7757-.388-1.4739-.816-2.0557-.427-.6206-.971-1.1248-1.632-1.4739-.66-.3491-1.476-.543-2.37-.543-1.36 0-2.526.4654-3.458 1.3963-.311.3103-.583.6594-.738 1.0085-.156.3491-.311.7369-.389 1.1248-.078.3879-.116.8145-.155 1.2412-.039.4266-.039 1.0084-.039 1.7842 0 .9696.039 1.7066.078 2.2496.038.543.155 1.0472.349 1.5515.195.5042.505.9308.894 1.3963.272.2715.622.543 1.01.7757.389.2327.777.3879 1.166.5043.388.1163.855.1551 1.282.1551 1.477 0 2.681-.5042 3.614-1.5127.427-.4654.738-1.0084.932-1.5902.194-.5818.272-1.28.272-2.0945v-1.8618c-.078-.3491-.272-.5042-.466-.5042Z" fill="#222426"/></svg>