<svg width="146" height="36" fill="none" xmlns="http://www.w3.org/2000/svg"><path d="m33.9092 18.8975-1.6308-.1919c-1.2471-.0959-1.8226-.5755-1.8226-1.5348 0-1.0552.7674-1.7267 2.3022-1.7267 1.0553 0 2.0145.2878 2.686.7674l.9593-.9593c-.9593-.7674-2.2063-1.0552-3.6453-1.0552-2.2063 0-3.7412 1.1511-3.7412 2.9738 0 1.7267 1.0553 2.59 3.0697 2.7819l1.7268.1919c1.1511.0959 1.7267.5755 1.7267 1.5348 0 1.2471-1.0552 1.8226-2.686 1.8226-1.2471 0-2.3982-.2877-3.1657-1.1511l-.9592.9593c1.1511 1.0552 2.4941 1.4389 4.2208 1.4389 2.4941 0 4.1249-1.1511 4.1249-3.0697-.1918-1.9186-1.4389-2.5901-3.1656-2.7819Zm12.7584-4.6046c-1.6307 0-2.6859.2878-3.5493 1.439l.9593.9592c.5756-.8633 1.247-1.1511 2.59-1.1511 1.8227 0 2.5901.7674 2.5901 2.2063v.9593H46.188c-2.3023 0-3.5493 1.1512-3.5493 2.9738 0 .7674.2877 1.5349.7674 2.1104.6715.6715 1.4389.9593 2.8778.9593 1.343 0 2.1105-.2878 2.9738-1.0552v.9593h1.5349v-6.9069c-.096-2.3022-1.439-3.4534-4.125-3.4534Zm2.5901 6.715c0 .8634-.1918 1.4389-.4796 1.7267-.6715.5756-1.439.6715-2.3023.6715-1.6308 0-2.3023-.5756-2.3023-1.7267s.7674-1.8226 2.3023-1.8226h2.8778l-.0959 1.1511Zm7.2906-5.372c.9592 0 1.5348.2878 2.3022 1.1512l.9593-.9593c-1.0552-1.1512-1.9185-1.5349-3.3575-1.5349-2.59 0-4.5086 1.7267-4.5086 5.2761 0 3.4534 1.9186 5.276 4.5086 5.276 1.439 0 2.3023-.3837 3.3575-1.5348l-1.0552-.9593c-.7674.8634-1.343 1.1511-2.3023 1.1511-.9593 0-1.8226-.3837-2.3982-1.1511-.4796-.6715-.6715-1.4389-.6715-2.7819 0-1.2471.1919-2.1104.6715-2.7819.6715-.7675 1.5349-1.1512 2.4942-1.1512Zm12.8543-1.247H67.58l-4.6045 4.5086V9.7843h-1.5349v14.773h1.5349v-3.7412l1.8226-1.8227 3.4534 5.5639h1.8227l-4.2209-6.6191 3.5493-3.5493Zm7.0028-.2878c-1.5348 0-2.5901.5755-3.2615 1.343-.9593.9593-1.2471 2.2063-1.2471 4.1249s.2878 3.1656 1.2471 4.1249c.6714.6715 1.7267 1.343 3.2615 1.343 1.5349 0 2.686-.5756 3.2616-1.343.9593-.9593 1.247-2.2063 1.247-4.1249s-.2877-3.1656-1.247-4.1249c-.5756-.7675-1.6308-1.343-3.2616-1.343Zm1.2471 7.962c-.2878.2878-.6715.4797-1.2471.4797-.5756 0-.9593-.1919-1.2471-.4797-.5755-.5755-.5755-1.5348-.5755-2.59 0-1.1512.0959-2.0145.5755-2.5901.2878-.2878.6715-.4796 1.2471-.4796.5756 0 .9593.1918 1.2471.4796.5756.5756.5756 1.4389.5756 2.5901.0959 1.1511 0 2.1104-.5756 2.59Zm10.3602-7.8661-2.1104 6.6191-2.2063-6.6191h-2.782l3.9331 10.648h2.1104l3.9331-10.648h-2.8779Zm7.2906-.0959c-2.7819 0-4.6046 1.9185-4.6046 5.4679 0 4.3168 2.3982 5.4679 4.8924 5.4679 1.9185 0 2.9737-.5756 4.029-1.6308l-1.6308-1.5348c-.6715.6715-1.2471.9592-2.3982.9592-1.5349 0-2.3023-.9592-2.3023-2.3982h6.619v-1.1511c0-3.0697-1.6307-5.1801-4.6045-5.1801Zm-2.0145 4.4127c0-.4797.0959-.7675.2878-1.1512.2878-.6715.8633-1.1511 1.8226-1.1511.8634 0 1.5349.4796 1.8227 1.1511.1918.3837.1918.6715.2877 1.1512h-4.2208Zm10.5522-3.2616V14.197h-2.59v10.648h2.686v-6.4272c0-1.3429.863-1.9185 1.727-1.9185.671 0 .959.1918 1.438.6715l2.015-2.0145c-.767-.7674-1.439-.9593-2.494-.9593-1.247-.0959-2.207.3837-2.782 1.0552Zm5.389-2.2063V24.845h2.686v-8.4416h1.919v-2.0145h-1.919v-1.1512c0-.5756.288-.9593.96-.9593h1.055v-2.2063h-1.535c-2.206 0-3.166 1.5348-3.166 2.9738Zm16.195 1.0552c-1.535 0-2.59.5755-3.262 1.343-.959.9593-1.247 2.2063-1.247 4.1249s.288 3.1656 1.247 4.1249c.672.6715 1.727 1.343 3.262 1.343s2.686-.5756 3.261-1.343c.96-.9593 1.247-2.2063 1.247-4.1249s-.287-3.1656-1.247-4.1249c-.575-.7675-1.726-1.343-3.261-1.343Zm1.247 7.962c-.288.2878-.672.4797-1.247.4797-.576 0-.96-.1919-1.247-.4797-.576-.5755-.576-1.5348-.576-2.59 0-1.1512.096-2.0145.576-2.5901.287-.2878.671-.4796 1.247-.4796.575 0 .959.1918 1.247.4796.575.5756.575 1.4389.575 2.5901 0 1.1511 0 2.1104-.575 2.59ZM142.5 14.197l-1.727 6.6191-2.206-6.6191h-1.919l-2.206 6.6191-1.727-6.6191h-2.782l3.262 10.648h2.206l2.207-6.7149 2.206 6.7149h2.206l3.262-10.648H142.5Zm-24.567 7.3865V9.97616h-2.686V21.7753c0 1.5349.959 3.0697 3.069 3.0697h1.535v-2.2063h-.959c-.671 0-.959-.3837-.959-1.0552Zm-76.9251-5.5639 1.343-1.343H39.473v-3.3574h-1.5348v10.648c0 1.5348.8633 2.7819 2.59 2.7819h1.0552V23.502h-.7674c-.9593 0-1.4389-.5755-1.4389-1.5348v-5.8516l1.6308-.096Z" fill="#222426"/><path d="M21 27v-8h3v11H0V19h3v8h18Z" fill="#BCBBBB"/><path d="m5.4 19.1 13.6 2 .2-2.4-13.3-2.6-.5 3Zm1.8-6.8 12 5.6 1.1-2.4-12-5.59999L7.2 12.3Zm3.4-5.89999L20.8 14.9l1.7-2-10.2-8.49999-1.7 2ZM17.1.200012 15 1.80001 22.9 12.4l2.1-1.6L17.1.200012ZM5 25h14v-3H5v3Z" fill="#F48024"/><path fill-rule="evenodd" clip-rule="evenodd" d="M28.9839 35.8375v-7.8258h5.082V29.59h-3.146v1.5126h2.651v1.5783h-2.651v1.5783h3.212v1.5783h-5.148Zm6.0473 0v-7.8258h1.903l2.409 4.5705v-4.5705h1.892v7.8258h-1.903l-2.409-4.5705v4.5705h-1.892Zm9.1094 0V29.59h-2.024v-1.5783h6.006V29.59h-2.024v6.2475h-1.958Zm4.84 0v-7.8258h5.082V29.59h-3.146v1.5126h2.651v1.5783h-2.651v1.5783h3.212v1.5783h-5.148Zm8.0038-3.0251v3.0251h-1.958v-7.8258h3.08c1.1 0 1.672.1535 2.09.57.407.4055.572.9316.572 1.7975 0 1.3481-.374 1.9838-1.353 2.2798l1.694 3.1785h-2.167l-1.43-3.0251h-.528Zm-.033-1.4797h.957c.693 0 .924-.2192.924-.8878 0-.6685-.231-.8878-.924-.8878h-.957v1.7756Zm6.9883 1.8853v2.6195h-1.958v-7.8258h2.739c1.199 0 1.815.1754 2.266.6357.44.4494.605.9974.605 1.9948 0 .9865-.22 1.6112-.715 2.0387-.451.3946-1.045.5371-2.156.5371h-.781Zm-.033-1.5564h.825c.693 0 .924-.2631.924-1.0523 0-.7891-.231-1.0522-.924-1.0522h-.825v2.1045Zm6.1069 1.1508v3.0251h-1.958v-7.8258h3.08c1.1 0 1.672.1535 2.09.57.407.4055.572.9316.572 1.7975 0 1.3481-.374 1.9838-1.353 2.2798l1.694 3.1785h-2.167l-1.43-3.0251h-.528Zm-.033-1.4797h.957c.693 0 .924-.2192.924-.8878 0-.6685-.231-.8878-.924-.8878h-.957v1.7756Zm5.104 4.5048v-7.8258h1.958v7.8258h-1.958Zm2.739-1.2937 1.463-.9286c.3468.5939.802.8206 1.6256.8206.6828 0 1.0079-.2483 1.0079-.7667 0-.4103-.2168-.6263-.7803-.7666-1.3547-.3348-1.6364-.432-2.0482-.6911-.6178-.3996-.8995-.9719-.8995-1.8466 0-1.5441.9428-2.3648 2.7093-2.3648 1.333 0 2.1783.4319 2.7093 1.3606l-1.4197.8963c-.3793-.5292-.7369-.7235-1.3221-.7235-.5419 0-.8345.2483-.8345.7019 0 .5183.2926.7343 1.333.9934.9862.2484 1.2246.3348 1.6147.5831.5311.3456.7803.9071.7803 1.771 0 .8422-.2059 1.393-.6502 1.7709-.4877.4103-1.2571.6263-2.2217.6263-.8886 0-1.7123-.1944-2.2541-.5507-.3576-.2268-.5744-.4536-.8128-.8855Zm7.1927 1.2937v-7.8258h5.082V29.59h-3.146v1.5126h2.651v1.5783h-2.651v1.5783h3.212v1.5783h-5.148Z" fill="#F48024"/></svg>