<svg width="202" height="37" fill="none" xmlns="http://www.w3.org/2000/svg"><path d="M26 33v-9h4v13H0V24h4v9h22Z" fill="#BCBBBB"/><path d="m23.0908 25.9902.6936-2.9492-16.10447-3.354L7 23l16.0908 2.9902ZM9.1 15.2l15 7 1.4-3-15-7-1.4 3Zm4.2-7.4L26 18.4l2.1-2.5L15.4 5.3l-2.1 2.5ZM21.5 0l-2.7 2 9.9 13.3 2.7-2L21.5 0ZM7 30h16v-3H7v3Z" fill="#F48024"/><path fill="#D6D9DC" d="M47 13h1v17h-1z"/><path d="M73.2692 13.3463c-.0512-.2044-.2559-.3577-.4607-.3577h-1.9453c-.2048 0-.4096.1533-.4608.3577l-5.8871 15.9952c-.0512.1534-.0512.3067.0511.46.1024.1533.256.2044.4096.2044h2.6108c.2048 0 .4096-.1533.4608-.3577l.9726-2.8618h5.58l.9727 2.8618c.0512.2044.256.3577.4607.3577h2.6109c.1535 0 .3071-.1022.4095-.2044.1024-.1533.1024-.3066.0512-.46l-5.836-15.9952Zm.3072 10.3739h-3.4811l1.7917-5.0081 1.6894 5.0081ZM92.8449 16.4125c-.256-.6643-.6655-1.2265-1.1775-1.7886-1.075-1.0732-2.6108-1.6353-4.5049-1.6353h-5.6313c-.3071 0-.5119.2044-.5119.511v15.9953c0 .3066.2048.511.5119.511h5.6313c1.8941 0 3.4299-.5621 4.5049-1.6353.512-.511.9215-1.1243 1.1775-1.8397.2559-.6644.4095-1.3287.5119-2.0441.0512-.6644.1024-1.4309.1024-2.2997v-1.6353c0-.8176-.0512-1.5841-.1024-2.1974-.1024-.6643-.256-1.2776-.5119-1.9419Zm-2.8668 5.0081c0 1.3287-.0512 2.4018-.1536 3.0662-.1024.6132-.256 1.0731-.5631 1.4309-.5632.6132-1.331.9198-2.3549.9198h-2.4573V16.2081h2.4573c1.0239 0 1.7917.3066 2.3549.9198.2047.2045.3583.5111.4607.8688.1024.4088.2048.8176.2048 1.2776.0512.511.0512 1.2264.0512 2.1463ZM107.568 12.9886h-2.559c-.205 0-.41.1533-.512.3577l-3.225 10.1184-3.1743-10.1184c-.0512-.2044-.2559-.3577-.5119-.3577h-2.5084c-.1536 0-.3072.1022-.4096.2044-.1024.1022-.1024.3066-.0512.4599l5.2729 15.9953c.0512.2044.2555.3577.5115.3577h1.895c.204 0 .409-.1533.46-.3577l5.324-15.9953c.052-.1533 0-.3066-.051-.4599-.153-.1022-.307-.2044-.461-.2044ZM119.758 12.9886H109.52c-.308 0-.512.2044-.512.511v15.9953c0 .3066.204.511.512.511h10.238c.307 0 .512-.2044.512-.511v-2.1975c0-.3066-.205-.511-.512-.511h-7.32v-3.7816h6.143c.307 0 .512-.2044.512-.511v-2.1464c0-.3066-.205-.511-.512-.511h-6.143v-3.6283h7.32c.307 0 .512-.2044.512-.511v-2.1975c0-.2555-.205-.511-.512-.511ZM131.27 22.7493c.768-.3067 1.433-.8177 1.996-1.482.666-.8177.973-1.8397.973-3.0662 0-.971-.205-1.8908-.665-2.6573-.461-.7666-1.127-1.4309-1.946-1.8398-.819-.4599-1.792-.6643-2.867-.6643h-6.245c-.307 0-.512.2044-.512.511V29.546c0 .3066.205.511.512.511h2.457c.307 0 .512-.2044.512-.511v-6.2346h2.201l3.226 6.439c.102.1533.255.3066.46.3066h2.816c.153 0 .358-.1022.461-.2555.102-.1533.102-.3577 0-.5111l-3.379-6.5411Zm-.461-4.5482c0 .6132-.205 1.0732-.563 1.4309-.41.3577-.921.5621-1.638.5621h-3.072v-3.986h3.072c.717 0 1.228.1533 1.638.5621.358.3066.563.8177.563 1.4309ZM146.637 12.9886h-11.262c-.307 0-.512.2044-.512.511v2.1975c0 .3066.205.511.512.511h3.891v13.2868c0 .3066.204.511.512.511h2.406c.307 0 .512-.2044.512-.511V16.2081h3.89c.307 0 .512-.2044.512-.511v-2.1975c.051-.2555-.205-.511-.461-.511ZM151.968 12.9886h-2.458c-.307 0-.512.2044-.512.511v15.9953c0 .3066.205.511.512.511h2.458c.307 0 .512-.2044.512-.511V13.4996c0-.2555-.205-.511-.512-.511ZM164.738 21.2673c-.358-.3577-.819-.6133-1.331-.8177-.511-.2044-1.126-.3577-1.894-.4599l-1.843-.2555c-.307-.0511-.614-.1022-.921-.2555-.256-.1022-.512-.2555-.614-.3577-.308-.2556-.41-.6133-.41-1.1243 0-.4088.102-.7154.256-1.0221.205-.3066.461-.511.768-.6643.358-.1533.819-.2555 1.331-.2555.461 0 .87.0511 1.229.1022.358.0511.665.2044 1.023.3577.308.1533.615.3577.922.6643.205.2045.512.2045.717 0l1.587-1.533c.102-.1022.153-.2556.153-.3578 0-.1533-.051-.2555-.153-.3577-.717-.6643-1.536-1.1754-2.355-1.482s-1.843-.4599-2.969-.4599c-1.178 0-2.202.2044-3.072.6132-.87.4089-1.587 1.0732-2.048 1.8397-.461.7666-.716 1.6864-.716 2.7085 0 1.4309.46 2.6063 1.331 3.4239.819.7665 1.894 1.2265 3.327 1.4309l1.894.2555c.41.0511.768.1533.973.2044.205.0511.358.1533.512.3577.307.2555.461.7155.461 1.2776 0 .6132-.205 1.0732-.666 1.3798-.512.3577-1.229.5621-2.15.5621-.512 0-1.024-.0511-1.433-.1533-.41-.1022-.82-.2555-1.229-.4599-.358-.2044-.717-.4599-1.075-.8177-.103-.1022-.205-.1533-.358-.1533-.154 0-.256.0511-.359.1533l-1.638 1.5842c-.102.1022-.154.2044-.154.3577 0 .1534.052.2556.154.3578.819.8176 1.689 1.3797 2.662 1.7375.973.3577 2.099.511 3.379.511.87 0 1.74-.1022 2.457-.3577.768-.2044 1.433-.5622 1.997-1.0221.563-.4599 1.023-1.022 1.331-1.6864.307-.6643.46-1.3798.46-2.1463-.051-1.5842-.563-2.8107-1.536-3.6794ZM171.013 12.9375h-2.457c-.307 0-.512.2044-.512.511v15.9953c0 .3066.205.511.512.511h2.457c.307 0 .512-.2044.512-.511V13.4485c0-.2555-.205-.511-.512-.511ZM186.561 12.9886h-2.406c-.307 0-.512.2044-.512.511v9.5563l-6.45-9.8118c-.103-.1533-.256-.2555-.41-.2555h-2.252c-.307 0-.512.2044-.512.511v15.9953c0 .3066.205.511.512.511h2.457c.307 0 .512-.2044.512-.511v-9.5563l6.45 9.8118c.103.1533.256.2555.41.2555h2.252c.307 0 .512-.2044.512-.511V13.4996c-.051-.2555-.307-.511-.563-.511ZM201.218 20.3474h-5.836c-.307 0-.512.2044-.512.5111v2.0441c0 .3066.205.511.512.511h2.918v.4088c0 .9199-.256 1.6353-.666 2.1975-.563.6643-1.279.9709-2.201.9709-.409 0-.768-.0511-1.126-.2044-.359-.1533-.666-.3577-.871-.5621-.204-.2044-.358-.46-.409-.6133-.102-.2044-.154-.4599-.256-.8176-.051-.3577-.102-.7666-.154-1.2776 0-.4599-.051-1.1243-.051-1.993 0-1.5331.051-2.6574.205-3.2706.102-.5621.307-1.0221.665-1.3798.256-.2555.512-.4599.871-.6132.358-.1533.717-.2044 1.126-.2044.512 0 .973.1022 1.382.3066.41.2044.717.4599.973.8176.256.3578.461.8177.563 1.3287.051.2555.256.4088.512.4088h2.457c.154 0 .307-.0511.41-.2044.102-.1022.153-.2555.102-.4088-.153-1.022-.512-1.9419-1.075-2.7084-.563-.8177-1.28-1.482-2.15-1.942-.87-.4599-1.945-.7154-3.123-.7154-1.792 0-3.327.6132-4.556 1.8397-.409.4088-.768.8688-.973 1.3287-.204.4599-.409.9709-.512 1.482-.102.511-.153 1.0731-.204 1.6353-.051.5621-.051 1.3286-.051 2.3507 0 1.2776.051 2.2485.102 2.964.051.7154.205 1.3797.461 2.0441.256.6643.665 1.2265 1.177 1.8397.358.3577.819.7154 1.331 1.0221.512.3066 1.024.511 1.536.6643s1.126.2044 1.689.2044c1.946 0 3.533-.6643 4.761-1.993.563-.6132.973-1.3287 1.229-2.0952.256-.7666.358-1.6864.358-2.7596v-2.4529c-.102-.46-.358-.6644-.614-.6644Z" fill="#222426"/></svg>