<svg width="146" height="37" fill="none" xmlns="http://www.w3.org/2000/svg"><path d="M26 33v-9h4v13H0V24h4v9h22Z" fill="#BCBBBB"/><path d="m23.0908 25.9902.6936-2.9492-16.10447-3.354L7 23l16.0908 2.9902ZM9.1 15.2l15 7 1.4-3-15-7-1.4 3Zm4.2-7.4L26 18.4l2.1-2.5L15.4 5.3l-2.1 2.5ZM21.5 0l-2.7 2 9.9 13.3 2.7-2L21.5 0ZM7 30h16v-3H7v3Z" fill="#F48024"/><path fill="#D6D9DC" d="M47 13h1v17h-1z"/><path d="M77.3575 15.889v-2.1396c0-.3566-.2576-.6113-.6182-.6113H65.6634c-.3606 0-.6182.2547-.6182.6113v2.1396c0 .3566.2576.6113.6182.6113h3.7091v12.8374c0 .3566.2576.6114.6182.6114h2.3697c.3606 0 .6182-.2548.6182-.6114V16.5003h3.7092c.4121 0 .6697-.2547.6697-.6113Zm7.7273-2.2924c-.103-.2547-.3091-.4076-.5667-.4076H82.612c-.2575 0-.4636.1529-.5666.4076l-5.7698 15.5883c-.0515.2038-.0515.4076.0515.5604.1031.1528.3091.2547.5152.2547h2.5243c.2575 0 .5151-.1528.5666-.4075l.9273-2.7h5.3576l.9273 2.7c.103.2547.3091.4075.5667.4075h2.5242c.2061 0 .4122-.1019.5152-.2547.103-.1528.1546-.3566.0515-.5604l-5.7182-15.5883Zm-3.0909 10.0356 1.5969-4.432 1.5455 4.432h-3.1424Zm20.6371 3.0056h-7.006V13.8004c0-.3566-.2576-.6114-.6182-.6114h-2.3697c-.3606 0-.6182.2548-.6182.6114v15.5883c0 .3566.2576.6113.6182.6113h9.9939c.361 0 .618-.2547.618-.6113v-2.1396c0-.3056-.257-.6113-.618-.6113Zm13.114-13.4488h-10.097c-.361 0-.618.2548-.618.6114v15.5883c0 .3566.257.6113.618.6113h10.097c.361 0 .618-.2547.618-.6113v-2.1396c0-.3566-.257-.6113-.618-.6113h-7.057v-3.4641h5.924c.36 0 .618-.2547.618-.6113v-2.0886c0-.3566-.258-.6113-.618-.6113h-5.924v-3.3622h7.057c.361 0 .618-.2547.618-.6113v-2.1396c0-.3056-.257-.5604-.618-.5604Zm14.727 0h-2.37c-.36 0-.618.2548-.618.6114v8.9149l-6.182-9.2715c-.103-.1529-.309-.2548-.515-.2548h-2.215c-.361 0-.618.2548-.618.6114v15.5883c0 .3566.257.6113.618.6113h2.37c.36 0 .618-.2547.618-.6113v-8.9149l6.182 9.2715c.103.1528.309.2547.515.2547h2.215c.361 0 .618-.2547.618-.6113V13.8004c0-.3566-.257-.6114-.618-.6114Zm14.27 0h-11.076c-.361 0-.618.2548-.618.6114v2.1395c0 .3566.257.6113.618.6113h3.709v12.8375c0 .3566.258.6113.618.6113h2.37c.361 0 .618-.2547.618-.6113V16.5512h3.709c.361 0 .618-.2547.618-.6113v-2.1395c.052-.3566-.206-.6114-.566-.6114Z" fill="#222426"/></svg>