<svg width="147" height="35" fill="none" xmlns="http://www.w3.org/2000/svg"><path fill-rule="evenodd" clip-rule="evenodd" d="m43.4577 30.8754-2.8536-4.8478-1.5071 1.7606v3.0872h-2.0496V16.1239h2.0496v9.0956l3.959-4.8481h2.4914l-3.5364 4.1229 3.9786 6.3811h-2.5319ZM32.3875 31c-2.2906 0-4.5413-1.4505-4.5413-5.3869 0-3.9363 2.2507-5.366 4.5413-5.366 1.4069 0 2.3915.4145 3.3559 1.4711l-1.4066 1.4084c-.643-.7246-1.1453-.9943-1.9493-.9943-.7834 0-1.4467.3313-1.8889.9327-.4422.5798-.6028 1.3259-.6028 2.5481 0 1.2222.1606 1.9889.6028 2.569.4422.6007 1.1055.932 1.8889.932.804 0 1.3063-.269 1.9493-.9942l1.4066 1.3882C34.779 30.5646 33.7944 31 32.3875 31Zm-8.4429-4.7653h-2.3915c-1.2057 0-1.8284.5592-1.8284 1.5121 0 .9532.5826 1.4919 1.869 1.4919.7834 0 1.3663-.0623 1.9088-.6007.3014-.3107.4421-.808.4421-1.5542v-.8491Zm.0402 4.6407v-.9528C23.2412 30.6892 22.5381 31 21.272 31c-1.2662 0-2.11-.3108-2.7328-.9536-.5225-.5592-.804-1.3669-.804-2.2582 0-1.7606 1.1854-3.0249 3.5165-3.0249h2.6929v-.7455c0-1.3259-.643-1.9683-2.2304-1.9683-1.1254 0-1.6682.2693-2.2305 1.0155l-1.3465-1.3054c.9644-1.1603 1.9692-1.5125 3.6573-1.5125 2.7932 0 4.1997 1.2222 4.1997 3.6047v7.0236h-2.0094Zm-9.0138 0c-1.9091 0-2.7935-1.4087-2.7935-2.9212v-5.7805h-1.1652v-1.6158h1.1652v-3.1906h2.0499v3.1906h1.9692v1.6158h-1.9692v5.6768c0 .7667.3615 1.2222 1.1254 1.2222h.8438v1.8027H14.971ZM5.06418 31C2.91368 31 1.36672 30.4818 0 29.0525l1.44671-1.4714c1.04504 1.0775 2.19067 1.4091 3.65729 1.4091 1.86899 0 2.95419-.8289 2.95419-2.2586 0-.642-.18092-1.1808-.56269-1.533-.36184-.3521-.72335-.4969-1.56755-.6215l-1.68772-.2485c-1.16554-.166-2.09007-.5801-2.71284-1.1811C.823946 22.4636.482352 21.5316.482352 20.33c0-2.5691 1.808558-4.33 4.782658-4.33 1.8889 0 3.21511.4973 4.44107 1.6781l-1.38697 1.4088c-.88403-.8704-1.90881-1.1394-3.11452-1.1394-1.68806 0-2.61225.9942-2.61225 2.2996 0 .5384.16067 1.0152.54243 1.3674.36185.3313.94445.5801 1.60773.6838l1.62763.2485c1.32621.2071 2.06982.5387 2.67268 1.098.78377.7047 1.16549 1.7609 1.16549 3.0249C10.2083 29.3835 8.05819 31 5.06418 31Z" fill="#222426"/><path fill-rule="evenodd" clip-rule="evenodd" d="M129.55 23.3774c-.29-.6398-.893-1.1149-1.806-1.1149s-1.516.4751-1.806 1.1149c-.166.3922-.228.6814-.249 1.1558h4.11c-.02-.4744-.083-.7636-.249-1.1558Zm-3.861 2.9933c0 1.3833.851 2.3945 2.366 2.3945 1.184 0 1.765-.3298 2.45-1.0112l1.64 1.5896c-1.1 1.0941-2.159 1.693-4.11 1.693-2.554 0-5.004-1.1565-5.004-5.5124 0-3.5093 1.91-5.4911 4.713-5.4911 3.011 0 4.713 2.1881 4.713 5.1402v1.1974h-6.768Zm-9.167-3.9223c-1.599 0-1.765 1.3624-1.765 2.787 0 1.4245.166 2.8078 1.765 2.8078 1.598 0 1.785-1.3833 1.785-2.8078 0-1.4246-.187-2.787-1.785-2.787Zm-.27 12.5313c-1.661 0-2.803-.3305-3.924-1.4041l1.682-1.6929c.602.5781 1.204.826 2.118.826 1.619 0 2.179-1.1357 2.179-2.2298v-1.094c-.706.7844-1.515 1.0732-2.574 1.0732s-1.972-.3509-2.574-.9494c-1.018-1.0116-1.101-2.3945-1.101-4.2733s.083-3.2413 1.101-4.2528c.602-.5986 1.536-.9495 2.595-.9495 1.141 0 1.889.3097 2.636 1.1353v-1.0115h2.616v10.3633c0 2.5803-1.848 4.4595-4.754 4.4595Zm-8.969-4.0673v-6.5027c0-1.4658-.934-1.9613-1.786-1.9613-.851 0-1.806.4955-1.806 1.9613v6.5027h-2.699V20.1569h2.637v.9911c.706-.7435 1.702-1.1149 2.699-1.1149 1.079 0 1.952.3509 2.553.9495.872.8669 1.101 1.8784 1.101 3.0554v6.8744h-2.699Zm-11.1465-4.5417h-2.1384c-.9757 0-1.5152.4539-1.5152 1.2179 0 .7435.498 1.2387 1.5567 1.2387.7477 0 1.2251-.0621 1.7025-.516.2905-.2681.3944-.7019.3944-1.3625v-.5781Zm.0624 4.5417v-.929c-.7267.7227-1.4116 1.0323-2.6572 1.0323-1.2251 0-2.1178-.3096-2.7612-.9494-.5813-.5989-.8927-1.4658-.8927-2.4156 0-1.7134 1.1832-3.1175 3.6954-3.1175h2.5533v-.5365c0-1.1769-.581-1.6929-2.0135-1.6929-1.0382 0-1.5156.2476-2.0763.8877l-1.723-1.6725c1.0587-1.1558 2.0968-1.4859 3.9032-1.4859 3.0307 0 4.6087 1.2796 4.6087 3.7982v7.0811h-2.6367Zm-11.0004 0v-6.5648c0-1.4245-.9133-1.8992-1.7646-1.8992-.8512 0-1.7439.4955-1.7439 1.8992v6.5648h-2.6988v-14.699H81.69v4.9346c.7267-.7435 1.64-1.1149 2.5952-1.1149 2.3664 0 3.6124 1.6513 3.6124 3.9224v6.9569h-2.6991Zm-11.0218.1242c-2.1589 0-4.8371-1.1565-4.8371-5.5124 0-4.3558 2.6782-5.4911 4.8371-5.4911 1.495 0 2.6158.4543 3.5706 1.445l-1.8266 1.8167c-.5608-.5988-1.0382-.8464-1.744-.8464-.6434 0-1.1417.2271-1.5365.7018-.4149.516-.6019 1.2387-.6019 2.374 0 1.1357.187 1.8789.6019 2.3949.3948.475.8931.7018 1.5365.7018.7058 0 1.1832-.2476 1.744-.8461l1.8266 1.7959c-.9548.9908-2.0756 1.4659-3.5706 1.4659Zm-8.5884-.1242-1.993-3.2205-1.9723 3.2205h-3.2386l3.7369-5.4911-3.5915-5.2644h3.2386l1.8269 3.0759 1.8475-3.0759h3.2386l-3.5915 5.2644 3.7369 5.4911h-3.2385Zm-17.586 0v-14.699h9.7366v2.5602h-6.851v3.4476h5.8338v2.5599h-5.8338v3.5714h6.851v2.5599h-9.7366Z" fill="#205196"/><path fill-rule="evenodd" clip-rule="evenodd" d="M147 3h-15v-.5c0-1.30633 1.21-2.5 2.5-2.5h10c1.291 0 2.5 1.19367 2.5 2.5V3Z" fill="#8FD8F7"/><path fill-rule="evenodd" clip-rule="evenodd" d="M132 12v.5c0 1.3063 1.21 2.5 2.5 2.5h6.5v3l3-3h.5c1.291 0 2.5-1.1937 2.5-2.5V12h-15Z" fill="#155397"/><path fill-rule="evenodd" clip-rule="evenodd" d="M132 8v3h15V8h-15Z" fill="#2D6DB5"/><path fill-rule="evenodd" clip-rule="evenodd" d="M132 4v3h15V4h-15Z" fill="#46A2D9"/></svg>