<svg width="18" height="18" fill="none" xmlns="http://www.w3.org/2000/svg"><path d="M9 17c-2.2 0-4-1.57-4-3.5S6.8 10 9 10s4 1.57 4 3.5S11.2 17 9 17Zm0-1.9c1.21 0 2.1-.78 2.1-1.6 0-.82-.89-1.6-2.1-1.6s-2.1.78-2.1 1.6c0 .82.89 1.6 2.1 1.6Z" fill="#FFC166"/><g opacity=".4" fill="#3F3F3F"><path d="M6.9 9.42c1.10969-.45775 2.3382-.54199 3.5-.24L4.49999 1H1.47c-.04478.00126-.0884.01454-.12629.03843-.0379.02389-.06867.05753-.08911.09739-.02044.03986-.0298.08448-.02709.1292.00271.04471.01738.08788.04249.12498L6.9 9.42ZM9.77999 6.16 11.6 8.7h.01l5.11-7.3c.0279-.03714.0448-.08131.049-.12755.0042-.04624-.0046-.09273-.0254-.13425-.0208-.04153-.0527-.07645-.0922-.10086C16.6119 1.01293 16.5664 1 16.52 1H13.5L9.77999 6.16Z"/></g></svg>