<svg width="18" height="18" fill="none" xmlns="http://www.w3.org/2000/svg"><path d="M5 7c0-.55228.44772-1 1-1h6c.5523 0 1 .44772 1 1s-.4477 1-1 1H6c-.55228 0-1-.44772-1-1ZM6 9c-.55228 0-1 .44771-1 1 0 .5523.44772 1 1 1h4c.5523 0 1-.4477 1-1 0-.55229-.4477-1-1-1H6Z" fill="#000"/><path fill-rule="evenodd" clip-rule="evenodd" d="M1 18V4c0-1.1.9-2 2-2h12c1.0893 0 2 .91067 2 2v9c0 1.0893-.9107 2-2 2H4.5L1 18Zm2.76015-5H14.9877c.002-.0015.0043-.0034.0066-.0057.0018-.0018.0033-.0036.0046-.0052L15 12.9877V4.01233c-.0015-.00201-.0034-.00429-.0057-.00662-.0023-.00232-.0046-.00423-.0066-.00571H3v9.6516L3.76015 13Z" fill="#000"/></svg>