<svg width="18" height="18" fill="none" xmlns="http://www.w3.org/2000/svg"><path d="M7 9h3v2H7v3H5v-3H2V9h3V6h2v3ZM17 15h-2V6.3125l-3 .98438V5.46094l4.7578-1.78906H17V15Z" fill="#9966CB"/><g opacity=".7" fill="#F75D37"><path d="M2.70564 6.94864c-.06181.02404-.12778.03554-.19407.03383-.12387.01569-.24906-.0165-.35-.09l-1-1c-.04686-.04648-.08406-.10178-.10944-.16271-.02539-.06093-.03846-.12628-.03846-.19229 0-.066.01307-.13136.03846-.19229.02538-.06093.06258-.11623.10944-.16271.09515-.09225.22247-.14383.355-.14383.13253 0 .25985.05158.355.14383l1 .95c.09225.09515.14384.22248.14384.355 0 .13253-.05159.25985-.14384.355-.04772.04605-.10413.08213-.16593.10617ZM9.35472 6.94864c.06181.02404.12778.03554.19407.03383.12387.01569.24906-.0165.35-.09l1.00001-1c.0469-.04648.0841-.10178.1094-.16271.0254-.06093.0385-.12628.0385-.19229 0-.066-.0131-.13136-.0385-.19229-.0253-.06093-.0625-.11623-.1094-.16271-.0952-.09225-.2225-.14383-.355-.14383-.1325 0-.2599.05158-.355.14383l-1.00001.95c-.09225.09515-.14384.22248-.14384.355 0 .13253.05159.25985.14384.355.04772.04605.10413.08213.16593.10617ZM10.4959 14.9825c.0663.0017.1323-.0098.1941-.0339.0618-.024.1182-.0601.1659-.1061.0923-.0952.1439-.2225.1439-.355 0-.1326-.0516-.2599-.1439-.355l-.99995-.95c-.09515-.0923-.22248-.1439-.355-.1439-.13253 0-.25985.0516-.355.1439-.04687.0465-.08407.1018-.10945.1627-.02538.0609-.03845.1263-.03845.1923s.01307.1313.03845.1923c.02538.0609.06258.1162.10945.1627l.99995 1c.101.0735.2262.1057.35.09ZM1.32347 14.9486c.06181.0241.12778.0356.19407.0339.12387.0157.24906-.0165.35-.09l1-1c.04686-.0465.08406-.1018.10944-.1627.02539-.061.03846-.1263.03846-.1923s-.01307-.1314-.03846-.1923c-.02538-.0609-.06258-.1162-.10944-.1627-.09515-.0923-.22247-.1439-.355-.1439-.13253 0-.25985.0516-.355.1439l-1 .95c-.09225.0951-.14384.2224-.14384.355 0 .1325.05159.2598.14384.355.04772.046.10413.0821.16593.1061Z"/></g><g opacity=".4" fill="#000"><path d="M6 5c.27614 0 .5-.22386.5-.5S6.27614 4 6 4s-.5.22386-.5.5.22386.5.5.5ZM.5 10.5c.276142 0 .5-.2239.5-.5 0-.27614-.223858-.5-.5-.5s-.5.22386-.5.5c0 .2761.223858.5.5.5ZM12 10c0 .2761-.2239.5-.5.5s-.5-.2239-.5-.5c0-.27614.2239-.5.5-.5s.5.22386.5.5ZM6 16c.27614 0 .5-.2239.5-.5S6.27614 15 6 15s-.5.2239-.5.5.22386.5.5.5Z"/></g></svg>