<svg width="18" height="18" fill="none" xmlns="http://www.w3.org/2000/svg"><path d="M7.65381 10.6859h1.41802c.3899 0 .69337-.0919.9104-.2759.22067-.1876.33107-.44505.33107-.77243 0-.73567-.38073-1.10903-1.14216-1.12007H7.65381v2.1684ZM8.87871 7.34778c.83499-.01471 1.25249-.34761 1.25249-.99868 0-.36416-.1067-.62533-.32002-.7835-.20967-.16185-.54256-.24277-.99868-.24277H7.65381v2.02495h1.2249Z" fill="#000"/><path fill-rule="evenodd" clip-rule="evenodd" d="m1 18 3-3h11c1.0893 0 2-.9107 2-2V4c0-1.08933-.9107-2-2-2H3c-1.1 0-2 .9-2 2v14ZM5.99854 3.98206H8.8125c.97477 0 1.7141.18759 2.2181.56279.5039.37152.7559.91776.7559 1.63872 0 .39359-.1012.74119-.3035 1.04282-.2023.29795-.4837.51681-.8442.65659.412.103.7357.31083.9711.62349.2391.31266.3587.69521.3587 1.14766 0 .77247-.2465 1.35737-.7394 1.75457-.4929.3973-1.1955.5996-2.10772.6069H5.99854V3.98206Z" fill="#000"/></svg>