<svg width="18" height="18" fill="none" xmlns="http://www.w3.org/2000/svg"><path d="M9.13252 7.84436c.43773 0 .77062-.10299.99868-.30898.2317-.20599.3476-.50026.3476-.88282 0-.39358-.1159-.71176-.3476-.95454-.23174-.24277-.55176-.36784-.96006-.37519H7.65381v2.52153h1.47871Z" fill="#000"/><path fill-rule="evenodd" clip-rule="evenodd" d="m1 18 3-3h11c1.0893 0 2-.9107 2-2V4c0-1.08933-.9107-2-2-2H3c-1.1 0-2 .9-2 2v14Zm6.65381-5.9844H5.99854V3.98206h3.13398c.60325 0 1.13298.11035 1.58908.33105.4598.2207.8129.53521 1.0594.94351.2464.40462.3696.86626.3696 1.38491 0 .78717-.2703 1.40882-.811 1.86494-.5371.45244-1.282.67866-2.23467.67866H7.65381v2.83047Z" fill="#000"/></svg>