<svg width="14" height="14" fill="none" xmlns="http://www.w3.org/2000/svg"><path fill-rule="evenodd" clip-rule="evenodd" d="M9.66747 1.49972C9.84614 1.19048 10.1762 1 10.5333 1H12c.5523 0 1 .44772 1 1s-.4477 1-1 1h-.8895L9.66586 5.50028C9.48719 5.80952 9.15715 6 8.8 6H6.61803l-3.2236 6.4472c-.24699.494-.84767.6942-1.34165.4472-.49397-.247-.6942-.8476-.44721-1.3416l3.5-7.00001C5.27496 4.214 5.62123 4 6 4h2.22286l1.44461-2.50028Z" fill="#000"/><g opacity=".2" fill="#000"><path d="M1 2c0-.55228.44772-1 1-1h5c.55228 0 1 .44772 1 1s-.44772 1-1 1H2c-.55228 0-1-.44772-1-1ZM1 5c0-.55228.44772-1 1-1s1 .44772 1 1-.44772 1-1 1-1-.44772-1-1ZM12 4c-.5523 0-1 .44772-1 1s.4477 1 1 1 1-.44772 1-1-.4477-1-1-1ZM8 8c0-.55228.44771-1 1-1h3c.5523 0 1 .44772 1 1 0 .55229-.4477 1-1 1H9c-.55229 0-1-.44771-1-1ZM7 10c-.55228 0-1 .4477-1 1s.44772 1 1 1h5c.5523 0 1-.4477 1-1s-.4477-1-1-1H7Z"/></g></svg>