<svg width="18" height="18" fill="none" xmlns="http://www.w3.org/2000/svg"><path fill-rule="evenodd" clip-rule="evenodd" d="M12.1056 2.55279C12.275 2.214 12.6212 2 13 2h3.5c.5523 0 1 .44772 1 1s-.4477 1-1 1h-2.882l-1.7236 3.44721C11.725 7.786 11.3788 8 11 8H6.1697l-3.24502 7.8807c-.21028.5107-.79474.7543-1.30543.544-.51068-.2103-.754207-.7948-.54392-1.3054l3.5-8.50005C4.72961 6.24455 5.09478 6 5.5 6h4.882l1.7236-3.44721Z" fill="#000"/><g opacity=".2" fill="#000"><path d="M1 3c0-.55228.44772-1 1-1h6c.55229 0 1 .44772 1 1s-.44771 1-1 1H2c-.55228 0-1-.44772-1-1ZM1 7c0-.55228.44772-1 1-1s1 .44772 1 1-.44772 1-1 1-1-.44772-1-1ZM15 6c-.5523 0-1 .44772-1 1s.4477 1 1 1h1c.5523 0 1-.44772 1-1s-.4477-1-1-1h-1ZM7 11c0-.5523.44772-1 1-1h8c.5523 0 1 .4477 1 1s-.4477 1-1 1H8c-.55228 0-1-.4477-1-1ZM6 14c-.55228 0-1 .4477-1 1s.44771 1 1 1h10c.5523 0 1-.4477 1-1s-.4477-1-1-1H6Z"/></g></svg>