<svg width="18" height="18" fill="none" xmlns="http://www.w3.org/2000/svg"><path fill-rule="evenodd" clip-rule="evenodd" d="m11 12.47 5-4.97V3c0-.53043-.2107-1.03914-.5858-1.41421C15.0391 1.21071 14.5304 1 14 1H2C.9 1 0 1.9 0 3v12c0 .5304.210714 1.0391.585786 1.4142C.960859 16.7893 1.46957 17 2 17h6.5l-2.79-2.8c-.18323-.1869-.28586-.4382-.28586-.7s.10263-.5131.28586-.7l2.1-2.1c.18693-.1832.43825-.2859.7-.2859s.51307.1027.7.2859L11 12.47ZM2 7h10v2H2V7Zm0-4h12v2H2V3Zm0 10v-2h3v2H2Z" fill="#000"/><path d="m11 17.5 7-7L16.5 9 11 14.5 8.5 12 7 13.5l4 4Z" fill="#000"/></svg>