<svg width="14" height="14" fill="none" xmlns="http://www.w3.org/2000/svg"><path d="M9.95516 8.72516h.31004l2.74 2.78004-1.5 1.5-2.78004-2.73v-.32004C7.60475 10.7662 6.21987 11.1254 4.8465 10.961c-1.37338-.1643-2.63441-.8401-3.5318-1.89263C.417304 8.01582-.0505606 6.66379.00433744 5.28171.0592355 3.89963.632865 2.58897 1.61092 1.61092 2.58897.632865 3.89963.0592355 5.28171.00433744 6.66379-.0505606 8.01582.417304 9.06837 1.3147c1.05253.89739 1.72833 2.15842 1.89263 3.5318.1644 1.37337-.1948 2.75825-1.00584 3.87866Zm-4.45.28c.45962 0 .91475-.09053 1.33939-.26642.42464-.1759.81048-.43371 1.13548-.75871.325-.325.58281-.71084.75871-1.13548.17589-.42464.26642-.87977.26642-1.33939 0-.45963-.09053-.91476-.26642-1.3394-.1759-.42464-.43371-.81047-.75871-1.13548-.325-.325-.71084-.58281-1.13548-.7587s-.87977-.26642-1.33939-.26642c-.92826 0-1.8185.36875-2.47488 1.02512-.65637.65638-1.02512 1.54662-1.02512 2.47488 0 .92825.36875 1.81849 1.02512 2.47487.65638.65638 1.54662 1.02513 2.47488 1.02513Z" fill="#000"/></svg>