<svg width="9" height="10" fill="none" xmlns="http://www.w3.org/2000/svg"><path d="M0 1.8406 4.5 0 9 1.8406V5.01C9 7.52752 6.30414 10 4.5 10 2.69586 10 0 7.52752 0 5.01V1.8406Z" fill="#fff"/><path fill-rule="evenodd" clip-rule="evenodd" d="M1 2.5 4.5 1 8 2.5v2.51C8 7.345 5.345 9 4.5 9 3.655 9 1 7.345 1 5.01V2.5Zm2.98176 3.02471L3.2 6.99999l2.6-.00378-.78176-1.4715c-.03013-.15085.03616-.30171.15066-.38698.33746-.23612.72948-.70173.72948-1.13463 0-.71493-.49475-1.23317-1.41043-1.23317s-1.38352.51824-1.38352 1.23317c0 .4329.38921.89851.72667 1.13463.11866.08291.17846.23653.15066.38698Z" fill="#6A7E7C"/></svg>