<svg width="18" height="18" fill="none" xmlns="http://www.w3.org/2000/svg"><path fill-rule="evenodd" clip-rule="evenodd" d="M6.5 16c-.82843 0-1.5-.6716-1.5-1.5v-4C5 9.67157 5.67157 9 6.5 9S8 9.67157 8 10.5v4c0 .8284-.67157 1.5-1.5 1.5Zm-4-4c-.82843 0-1.5-.6716-1.5-1.5C1 9.67157 1.67157 9 2.5 9H4v1.5c0 .8284-.67157 1.5-1.5 1.5Z" fill="#E01E5A"/><path fill-rule="evenodd" clip-rule="evenodd" d="M2.5 5h4C7.32843 5 8 5.67157 8 6.5S7.32843 8 6.5 8h-4C1.67157 8 1 7.32843 1 6.5S1.67157 5 2.5 5Zm4-4C7.32843 1 8 1.67157 8 2.5V4H6.5C5.67157 4 5 3.32843 5 2.5S5.67157 1 6.5 1Z" fill="#36C5F0"/><path fill-rule="evenodd" clip-rule="evenodd" d="M10.5 9h4c.8284 0 1.5.67157 1.5 1.5 0 .8284-.6716 1.5-1.5 1.5h-4c-.82843 0-1.5-.6716-1.5-1.5 0-.82843.67157-1.5 1.5-1.5Zm0 7c-.82843 0-1.5-.6716-1.5-1.5V13h1.5c.8284 0 1.5.6716 1.5 1.5s-.6716 1.5-1.5 1.5Z" fill="#ECB22E"/><path fill-rule="evenodd" clip-rule="evenodd" d="M10.5 1c.8284 0 1.5.67157 1.5 1.5v4c0 .82843-.6716 1.5-1.5 1.5C9.67157 8 9 7.32843 9 6.5v-4c0-.82843.67157-1.5 1.5-1.5Zm4 4c.8284 0 1.5.67157 1.5 1.5S15.3284 8 14.5 8H13V6.5c0-.82843.6716-1.5 1.5-1.5Z" fill="#2EB67D"/></svg>