<svg width="18" height="18" fill="none" xmlns="http://www.w3.org/2000/svg"><path d="M6 1h6c.5304 0 1.0391.21071 1.4142.58579C13.7893 1.96086 14 2.46957 14 3v12c0 .5304-.2107 1.0391-.5858 1.4142S12.5304 17 12 17H6c-.53043 0-1.03914-.2107-1.41421-.5858C4.21071 16.0391 4 15.5304 4 15V3c0-1.1.9-2 2-2Zm0 2v10h6V3H6Zm3 13.2c.31826 0 .62348-.1264.84853-.3515.22507-.225.35147-.5302.35147-.8485s-.1264-.6235-.35147-.8485C9.62348 13.9264 9.31826 13.8 9 13.8s-.62348.1264-.84853.3515C7.92643 14.3765 7.8 14.6817 7.8 15s.12643.6235.35147.8485c.22505.2251.53027.3515.84853.3515Z" fill="#000"/></svg>