<svg width="18" height="18" fill="none" xmlns="http://www.w3.org/2000/svg"><path fill-rule="evenodd" clip-rule="evenodd" d="M4 2c-1.10457 0-2 .89543-2 2v11c0 1.1046.89543 2 2 2h11c1.1046 0 2-.8954 2-2V4c0-1.10457-.8954-2-2-2H4Zm2 7c.26522 0 .51957.10536.70711.29289C6.89464 9.48043 7 9.73478 7 10v2c0 .2652-.10536.5196-.29289.7071C6.51957 12.8946 6.26522 13 6 13H5c-.26522 0-.51957-.1054-.70711-.2929C4.10536 12.5196 4 12.2652 4 12h2v-2H5c-.26522 0-.51957-.10536-.70711-.29289C4.10536 9.51957 4 9.26522 4 9V7c0-.26522.10536-.51957.29289-.70711C4.48043 6.10536 4.73478 6 5 6h1c.26522 0 .51957.10536.70711.29289C6.89464 6.48043 7 6.73478 7 7H5v2h1Zm4-3c.2652 0 .5196.10536.7071.29289C10.8946 6.48043 11 6.73478 11 7v5c0 .2652-.1054.5196-.2929.7071S10.2652 13 10 13H9c-.26522 0-.51957-.1054-.70711-.2929C8.10536 12.5196 8 12.2652 8 12V7c0-.26522.10536-.51957.29289-.70711C8.48043 6.10536 8.73478 6 9 6h1Zm0 1H9v5h1V7Zm4.7071 2.29289C14.8946 9.48043 15 9.73478 15 10v2c0 .2652-.1054.5196-.2929.7071S14.2652 13 14 13h-1c-.2652 0-.5196-.1054-.7071-.2929S12 12.2652 12 12h2v-2h-1c-.2652 0-.5196-.10536-.7071-.29289C12.1054 9.51957 12 9.26522 12 9V7c0-.26522.1054-.51957.2929-.70711C12.4804 6.10536 12.7348 6 13 6h1c.2652 0 .5196.10536.7071.29289C14.8946 6.48043 15 6.73478 15 7h-2v2h1c.2652 0 .5196.10536.7071.29289Z" fill="#F75D37"/></svg>