<svg width="18" height="18" fill="none" xmlns="http://www.w3.org/2000/svg"><path fill-rule="evenodd" clip-rule="evenodd" d="m1 18 3-3h11c1.0893 0 2-.9107 2-2V4c0-1.08933-.9107-2-2-2H3c-1.1 0-2 .9-2 2v14Zm7.95996-4.94c-.56999-.02-1.02999-.43-1.00999-1.06.01999-.63.5-1.04 1.08-1.02.6.02 1.05003.45 1.03003 1.08-.02.63-.48003 1.02-1.10004 1Zm.92005-3.67813c-.04636.21379-.07313.43136-.08.65003 0 .04-.03.14-.16.14h-1.4c-.14 0-.16-.09-.16-.13-.01315-.49749.11144-.98891.36-1.42003.20864-.36186.58058-.65408 1.06005-.93.41125-.23666.77624-.71192.78284-1.19631.0036-.27127-.0896-.53496-.2629-.74369-.21999-.26-.45999-.4-.91999-.4-.45 0-.83.23-1.02.52-.16732.2642-.16402.55166-.16085.82823.00043.03749.00085.07477.00085.11177h-1.72c0-1.17.31-1.92.98-2.36.55838-.311 1.19127-.46317 1.83-.44.88 0 1.57999.16 2.19999.62.58.42.88 1.02.88 1.82 0 .5-.17.9-.43 1.24-.15.2-.44.47-.86.79l-.48.3c-.2065.14834-.3606.35844-.43999.6Z" fill="#000"/></svg>