<svg width="14" height="14" fill="none" xmlns="http://www.w3.org/2000/svg"><path fill-rule="evenodd" clip-rule="evenodd" d="M5.17465 4.64866 6.72536.786961c.10077-.250941.45601-.250942.55678-.000001l1.5507 3.86158c.04292.10686.14321.17973.2581.18752l4.15176.28151c.2698.0183.3796.35615.1721.52954l-3.1934 2.6681c-.0884.07383-.1267.19173-.0986.30341l1.0152 4.03558c.066.2622-.2214.471-.4504.3273l-3.52434-2.2127c-.04986-.0313-.10664-.0466-.16326-.0459-.05412.0007-.1081.0161-.15576.046l-3.52433 2.2127c-.22902.1437-.51642-.0651-.45044-.3273L3.8847 8.61872c.0281-.11168-.01021-.22958-.09858-.30341L.592729 5.64721c-.207519-.17339-.097743-.51124.172055-.52954l4.151776-.28151c.11489-.00779.21518-.08065.25809-.1875Zm2.73022.37253L7.00375 2.7772 7 2.78654v6.93639c.2412-.00069.48256.06564.69497.19899l2.048 1.28578-.58996-2.34511c-.12174-.48393.04426-.99483.42721-1.31479l1.85568-1.55044-2.41261-.16359c-.49786-.03376-.93247-.34951-1.11842-.81258Z" fill="#000"/></svg>