<svg width="18" height="18" fill="none" xmlns="http://www.w3.org/2000/svg"><path d="M10 1c-.70127 0-1.37444.12031-2 .34141V6h7.917C15.441 3.16229 12.973 1 10 1Z" fill="#000"/><path fill-rule="evenodd" clip-rule="evenodd" d="M16 7H6L5 5H1v2h3c0 1.11867.30615 2.16584.83923 3.0623C3.22216 10.3712 2 11.7929 2 13.5 2 15.433 3.567 17 5.5 17S9 15.433 9 13.5c0 1.933 1.567 3.5 3.5 3.5s3.5-1.567 3.5-3.5c0-1.1102-.5169-2.0997-1.3233-2.7409C15.5046 9.73048 16 8.4231 16 7Zm-7 6.5c0-.2016-.01705-.3992-.04978-.5915.03219.0057.06446.0111.09683.0162C9.0161 13.1119 9 13.3041 9 13.5Zm-2 0c0 .8284-.67157 1.5-1.5 1.5S4 14.3284 4 13.5 4.67157 12 5.5 12s1.5.6716 1.5 1.5Zm7 0c0 .8284-.6716 1.5-1.5 1.5s-1.5-.6716-1.5-1.5.6716-1.5 1.5-1.5 1.5.6716 1.5 1.5Z" fill="#000"/></svg>