<svg width="18" height="18" fill="none" xmlns="http://www.w3.org/2000/svg"><path d="M9 1c-4.42 0-7 .5-7 4v6.5c0 .9283.36875 1.8185 1.02513 2.4749C3.6815 14.6313 4.57174 15 5.5 15L4 16.5v.5h10v-.5L12.5 15c.9283 0 1.8185-.3687 2.4749-1.0251C15.6313 13.3185 16 12.4283 16 11.5V5c0-3.5-2.58-4-7-4ZM5.5 12.75c-.33152 0-.64946-.1317-.88388-.3661C4.3817 12.1495 4.25 11.8315 4.25 11.5s.1317-.6495.36612-.8839c.23442-.2344.55236-.3661.88388-.3661.33152 0 .64946.1317.88388.3661.23442.2344.36612.5524.36612.8839s-.1317.6495-.36612.8839c-.23442.2344-.55236.3661-.88388.3661ZM8 9H4V5h4v4Zm4.5 3.75c-.3315 0-.6495-.1317-.8839-.3661-.2344-.2344-.3661-.5524-.3661-.8839s.1317-.6495.3661-.8839c.2344-.2344.5524-.3661.8839-.3661s.6495.1317.8839.3661c.2344.2344.3661.5524.3661.8839s-.1317.6495-.3661.8839c-.2344.2344-.5524.3661-.8839.3661ZM14 9h-4V5h4v4Z" fill="#000"/></svg>