<svg width="18" height="18" fill="none" xmlns="http://www.w3.org/2000/svg"><path opacity=".4" d="M10.385 7.47996c-2.9085-2.9085-5.39808-3.73437-5.51777-3.37529L1.07302 15.5471c-.142118.3962-.03226.8631.27159 1.1542.30385.2912.77499.3811 1.16471.2223l11.41858-3.3154c.3112-.1437-.6344-3.2197-3.5429-6.12824Z" fill="#FF9700"/><g opacity=".6" fill="#FF9700"><path d="M6.80621 11.0707C5.6562 9.8987 4.65879 8.554 3.87109 7.11328l.99612-3.0086C5.47779 6.1577 6.6512 7.99867 8.25447 9.41897 9.91093 11.121 11.7337 12.5277 13.8359 13.6328l-2.8554.8281c-1.49948-1.0188-2.87012-2.1311-4.17429-3.3902ZM3.59853 14.2066c-.6676-.5924-1.13232-1.3795-1.32857-2.2502l.90965-2.74088c.50091 1.27168 1.24951 2.43128 2.20232 3.41118.95206.9477 1.98982 1.8051 3.1 2.5614l-2.57177.7455c-.85749-.4469-1.63906-1.0322-2.31163-1.727Z"/></g><path fill-rule="evenodd" clip-rule="evenodd" d="M15.8536 2.14645c.1952.19526.1952.51184 0 .7071l-4 4c-.1953.19527-.5119.19527-.7072 0-.1952-.19526-.1952-.51184 0-.7071l4-4c.1953-.19527.5119-.19527.7072 0Z" fill="#F75D37"/><path d="M10 1.5c0-.27614-.22386-.5-.5-.5s-.5.22386-.5.5v3c0 .27614.22386.5.5.5s.5-.22386.5-.5v-3ZM13.5 8c-.2761 0-.5.22386-.5.5s.2239.5.5.5h3c.2761 0 .5-.22386.5-.5s-.2239-.5-.5-.5h-3Z" fill="#07C"/><g opacity=".6" fill="#07C"><path d="M7.5 3c.27614 0 .5-.22386.5-.5S7.77614 2 7.5 2s-.5.22386-.5.5.22386.5.5.5ZM12.5 3c.2761 0 .5-.22386.5-.5s-.2239-.5-.5-.5-.5.22386-.5.5.2239.5.5.5ZM16 5.5c0 .27614-.2239.5-.5.5s-.5-.22386-.5-.5.2239-.5.5-.5.5.22386.5.5ZM15.5 11c.2761 0 .5-.2239.5-.5s-.2239-.5-.5-.5-.5.2239-.5.5.2239.5.5.5Z"/></g></svg>