<svg width="18" height="18" fill="none" xmlns="http://www.w3.org/2000/svg"><g opacity=".2" fill="#000"><path d="M8.07031 9.23438h1.20313c.57291 0 .99736-.14323 1.27346-.42969.276-.28646.414-.66667.414-1.14063 0-.45833-.138-.8151-.414-1.07031-.2709-.25521-.64586-.38281-1.12502-.38281-.4323 0-.79428.11979-1.08594.35937-.29167.23438-.4375.54167-.4375.92188H5.64062c0-.59375.15886-1.125.47657-1.59375.32291-.47396.77083-.84375 1.34375-1.10938.57812-.26562 1.21354-.39844 1.90625-.39844 1.20311 0 2.14581.28907 2.82811.86719.6823.57292 1.0235 1.36459 1.0235 2.375 0 .52084-.1589 1-.4766 1.4375s-.7344.77344-1.25 1.00779c.6406.2292 1.1172.5729 1.4297 1.0313.3177.4583.4765 1 .4765 1.625 0 1.0104-.3698 1.8203-1.1093 2.4297-.7344.6093-1.7084.914-2.92191.914-1.13542 0-2.06511-.2995-2.78907-.8984C5.85938 14.5807 5.5 13.7891 5.5 12.8047h2.25781c0 .4271.15886.776.47657 1.0469.32291.2708.71874.4062 1.1875.4062.53645 0 .95572-.1406 1.25782-.4219.3073-.2864.4609-.664.4609-1.1328 0-1.1354-.625-1.7031-1.87498-1.7031H8.07031V9.23438ZM17.25 15c0 .6904-.5596 1.25-1.25 1.25s-1.25-.5596-1.25-1.25.5596-1.25 1.25-1.25 1.25.5596 1.25 1.25Z"/></g><path d="M6.07031 7.82812h1.20313c.57291 0 .99739-.14322 1.27344-.42968.27604-.28646.41406-.66667.41406-1.14063 0-.45833-.13802-.8151-.41406-1.07031-.27084-.25521-.64584-.38281-1.125-.38281-.4323 0-.79428.11979-1.08594.35937-.29167.23438-.4375.54167-.4375.92188H3.64062c0-.59375.15886-1.125.47657-1.59375.32291-.47396.77083-.84375 1.34375-1.10938.57812-.26562 1.21354-.39843 1.90625-.39843 1.20312 0 2.14583.28906 2.82811.86718.6823.57292 1.0235 1.36459 1.0235 2.375 0 .52084-.1823 1.16406-.5 1.60156-.3178.4375-.711.78126-1.22661 1.01563.64061.22917 1.11721.80729 1.42971 1.26565.3177.4583.4765 1 .4765 1.625 0 1.0104-.3698 1.8203-1.1093 2.4297-.73441.6093-1.70837.914-2.92191.914-1.13542 0-2.06511-.2995-2.78907-.8984C3.85938 13.5807 3.5 12.7891 3.5 11.8047h2.25781c0 .4271.15886.776.47657 1.0469.32291.2708.71874.4062 1.1875.4062.53645 0 .95572-.1406 1.25781-.4219.30729-.2864.46093-.664.46093-1.1328 0-1.1354-.625-1.7031-1.875-1.7031H6.07031V7.82812ZM15.25 14c0 .6904-.5596 1.25-1.25 1.25s-1.25-.5596-1.25-1.25.5596-1.25 1.25-1.25 1.25.5596 1.25 1.25Z" fill="#000"/></svg>