<svg width="36" height="36" fill="none" xmlns="http://www.w3.org/2000/svg"><g opacity=".2" fill="#000"><path d="M14.2067 18.5321h2.4372c1.1606 0 2.0205-.2819 2.5796-.8456.5592-.5637.8388-1.3119.8388-2.2447 0-.9019-.2796-1.604-.8388-2.1062-.5486-.5023-1.3082-.7534-2.2789-.7534-.8757 0-1.609.2358-2.1998.7072-.5908.4613-.8862 1.066-.8862 1.8142H9.28487c0-1.1684.32179-2.2139.96533-3.1364.6542-.9327 1.5615-1.6604 2.7221-2.18311C14.1434 9.26136 15.4306 9 16.8338 9c2.4372 0 4.3469.56885 5.729 1.7066 1.3821 1.1274 2.0732 2.6853 2.0732 4.6737 0 1.025-.3218 1.968-.9654 2.8289-.6436.861-1.4876 1.5221-2.5321 1.9833 1.2977.451 2.2631 1.1275 2.8961 2.0294.6436.902.9654 1.9679.9654 3.1979 0 1.9884-.7491 3.5822-2.2473 4.7814C21.2651 31.4004 19.2921 32 16.8338 32c-2.3 0-4.1833-.5893-5.6498-1.768C9.72799 29.0533 9 27.4953 9 25.5582h4.5737c0 .8404.3218 1.5271.9654 2.0601.6541.533 1.456.7995 2.4055.7995 1.0867 0 1.936-.2768 2.548-.8302.6225-.5638.9337-1.3069.9337-2.2293 0-2.2344-1.2661-3.3516-3.7982-3.3516h-2.4214v-3.4746ZM33 30c0 1.1046-.8954 2-2 2s-2-.8954-2-2 .8954-2 2-2 2 .8954 2 2Z"/></g><path d="M12.0312 15.6124h2.6127c1.1606 0 2.0205-.2842 2.5796-.8527.5592-.5685.8388-1.323.8388-2.2636 0-.9095-.2796-1.6175-.8388-2.124-.5486-.50647-1.3082-.7597-2.2789-.7597-.8757 0-1.609.23773-2.1998.7132-.5908.4651-.8862 1.0749-.8862 1.8294H7.28487c0-1.1783.32179-2.23252.96538-3.16275.65414-.94057 1.56149-1.67442 2.72205-2.20155C12.1434 6.26357 13.4306 6 14.8338 6c2.4372 0 4.3469.57364 5.729 1.72093 1.3821 1.13695 2.0732 2.70797 2.0732 4.71317 0 1.0336-.3693 2.3101-1.0129 3.1783-.6435.8682-1.4401 1.5504-2.4846 2.0155 1.2977.4548 2.2631 1.6021 2.8961 2.5116.6436.9096.9654 1.9845.9654 3.2248 0 2.0052-.7491 3.6124-2.2473 4.8217C19.2651 29.3953 17.2921 30 14.8338 30c-2.3 0-4.1833-.5943-5.64982-1.7829C7.72799 27.0284 7 25.4574 7 23.5039h4.5737c0 .8475.3218 1.54.9654 2.0775.6541.5375 1.456.8062 2.4055.8062 1.0867 0 1.936-.2791 2.548-.8372.6225-.5685.9337-1.3178.9337-2.2481 0-2.2532-1.2661-3.3798-3.7982-3.3798h-2.5969v-4.3101ZM31 28c0 1.1046-.8954 2-2 2s-2-.8954-2-2 .8954-2 2-2 2 .8954 2 2Z" fill="#000"/></svg>