<svg width="18" height="18" fill="none" xmlns="http://www.w3.org/2000/svg"><path d="M5 15V9.00001S8.94094 3.7156 9.20312 3.39062c.26219-.32497.63999-.45312.96098-.45312.3209 0 .6009.14391.8359.36251.3419.31802.4843 1.22904.4398 1.88816-.0446.65912-.2847 1.28997-.6898 1.81184-.23.31.0391.78123.49.71 0 0 1.71-.33 2.3-.36.59-.03 2.71-.12592 2.71 1.68 0 1.80589-.9688 4.52469-1.4 5.43999-.4312.9153-1.19 2.15-2.11 2.38-.8676.2289-1.7817.2116-2.64-.05L5 15Z" fill="#FFC166"/><path opacity=".7" d="M1 10.5C1 9.67157 1.67157 9 2.5 9H4v6H2.5c-.82843 0-1.5-.6716-1.5-1.5v-3Z" fill="#07C"/><g opacity=".4" fill="#000"><path d="M11 .5c0-.276142-.2239-.5-.5-.5s-.5.223858-.5.5v1c0 .27614.2239.5.5.5s.5-.22386.5-.5v-1ZM6.14645 2.14645c.19526-.19527.51184-.19527.7071 0l1 1c.19527.19526.19527.51184 0 .7071-.19526.19527-.51184.19527-.7071 0l-1-1c-.19527-.19526-.19527-.51184 0-.7071ZM14.8536 2.14645c.1952.19526.1952.51184 0 .7071l-1 1c-.1953.19527-.5119.19527-.7072 0-.1952-.19526-.1952-.51184 0-.7071l1-1c.1953-.19527.5119-.19527.7072 0Z"/></g></svg>