<svg width="18" height="18" fill="none" xmlns="http://www.w3.org/2000/svg"><path opacity=".7" d="M1 6.5C1 5.67157 1.67157 5 2.5 5H4v6H2.5C1.67157 11 1 10.3284 1 9.5v-3Z" fill="#07C"/><path d="M5 4.94727v6.00003s3.94094 5.2844 4.20312 5.6094c.26219.3249.63999.4531.96098.4531.3209 0 .6009-.1439.8359-.3625.3419-.318.4843-1.2291.4398-1.8882-.0446-.6591-.2847-1.29-.6898-1.8118-.23-.31.0391-.7813.49-.71 0 0 1.71.33 2.3.36.59.03 2.71.1259 2.71-1.68 0-1.80594-.9688-4.52469-1.4-5.44003-.4312-.91533-1.19-2.15-2.11-2.38-.8676-.22886-1.7817-.21155-2.64.05l-5.1 1.8Z" fill="#FFC166"/></svg>