<svg width="18" height="18" fill="none" xmlns="http://www.w3.org/2000/svg"><path fill-rule="evenodd" clip-rule="evenodd" d="M2 4c0-1.10457.89543-2 2-2h11c1.1046 0 2 .89543 2 2v11c0 1.1046-.8954 2-2 2H4c-1.10457 0-2-.8954-2-2V4Zm2.5 2.5c0 .27614.22386.5.5.5h1v5.5c0 .2761.22386.5.5.5s.5-.2239.5-.5V7h1c.27614 0 .5-.22386.5-.5S8.27614 6 8 6H5c-.27614 0-.5.22386-.5.5Zm5.5 0c0-.27614-.22386-.5-.5-.5s-.5.22386-.5.5v6c0 .2761.22386.5.5.5s.5-.2239.5-.5v-6Zm2.5-.5c-.2761 0-.5.22386-.5.5v6c0 .2761.2239.5.5.5h2c.2761 0 .5-.2239.5-.5s-.2239-.5-.5-.5H13V6.5c0-.27614-.2239-.5-.5-.5Z" fill="#8B41AF"/></svg>