<svg width="36" height="36" fill="none" xmlns="http://www.w3.org/2000/svg"><g opacity=".2" fill="#000"><path d="M33 30c0 1.1046-.8954 2-2 2s-2-.8954-2-2 .8954-2 2-2 2 .8954 2 2ZM26 32H10.4518v-3.0854l7.3379-7.8225c1.0074-1.1011 1.7501-2.0621 2.2278-2.8828.4882-.8206.7323-1.5998.7323-2.3373 0-1.0077-.2545-1.7972-.7634-2.3686-.509-.5818-1.236-.8726-2.1811-.8726-1.0179 0-1.8228.3532-2.4148 1.0596-.5817.696-.8725 1.2726-.8725 2.4153H10c0-1.3817.3272-2.301.9815-3.4438.6647-1.1427 1.5995-2.0361 2.8043-2.68019C14.9906 9.32724 16.3564 9 17.8832 9c2.3369 0 4.1493.56098 5.4372 1.6829 1.2982 1.122 1.9474 2.7062 1.9474 4.7527 0 1.122-.2908 2.2647-.8725 3.4282-.5816 1.1635-1.5787 2.5192-2.9912 4.0671l-5.1568 5.4383H26V32Z"/></g><path d="M22 30H6v-2.8438l7.7897-8.1223c1.0074-1.107 1.7501-2.0731 2.2278-2.8981.4882-.8251.8413-1.8512.8413-2.5927 0-.7911.0065-1.7662-.6855-2.5614-.5089-.5848-1.4229-1.06525-2.368-1.06525-1.0179 0-1.8228.35505-2.4148 1.06525-.5817.6998-.8725 1.8904-.8725 3.0392H6c0-1.389.32717-3.1906.9815-4.33944.66472-1.14882 1.59948-2.047 2.80428-2.69451C10.9906 6.32898 12.3564 6 13.8832 6c2.3369 0 4.1337.78329 5.4216 1.91123 1.2983 1.12793 1.963 3.37857 1.963 5.43607 0 1.1279-.2908 2.2767-.8725 3.4464-.5816 1.1697-1.5787 2.5327-2.9912 4.0888l-5.1568 5.4674H22V30ZM31 28c0 1.1046-.8954 2-2 2s-2-.8954-2-2 .8954-2 2-2 2 .8954 2 2Z" fill="#000"/></svg>