<svg width="14" height="14" fill="none" xmlns="http://www.w3.org/2000/svg"><path fill-rule="evenodd" clip-rule="evenodd" d="M4.90313 4.50317c0-1.15979.9402-2.1 2.1-2.1.58489 0 1.11286.2382 1.49441.62463.27162.2751.71483.27792.98993.0063.2751-.27163.27792-.71483.0063-.98993-.63379-.6419-1.51625-1.041-2.49064-1.041-1.933 0-3.50001 1.56701-3.50001 3.5v.49688H3.5c-.82843 0-1.5.67157-1.5 1.5V11.5c0 .8285.67157 1.5 1.5 1.5h7c.8284 0 1.5-.6715 1.5-1.5V6.50005c0-.82843-.6716-1.5-1.5-1.5H4.90313v-.49688ZM8.5 9.00005C8.5 9.82848 7.82843 10.5 7 10.5s-1.5-.67152-1.5-1.49995c0-.82843.67157-1.5 1.5-1.5s1.5.67157 1.5 1.5Z" fill="#000"/></svg>