<svg width="18" height="18" fill="none" xmlns="http://www.w3.org/2000/svg"><path fill-rule="evenodd" clip-rule="evenodd" d="m11.5557 10.1288-1.43 1.43 5.443 5.44 1.427-1.427-5.44-5.443Z" fill="#9199A1"/><path fill-rule="evenodd" clip-rule="evenodd" d="m16.2656 3.63378-2.5246 2.5246C10.9781 3.39545 7.11172 2.46859 3.64261 3.61613 7.12937.138192 12.7788.147019 16.2656 3.63378Zm-12.64947.00883C.138192 7.12937.147019 12.7788 3.63378 16.2656l2.5246-2.5246C3.39545 10.9781 2.46859 7.11172 3.61613 3.64261Z" fill="#F7AA6D"/><path d="m3.62497 3.63379.00882-.00882c2.65701-.33544 6.08198 1.03278 8.84491 3.79571L7.42068 12.4787C4.65775 9.70694 3.28953 6.2908 3.62497 3.63379Z" fill="#F48024"/></svg>