<svg width="18" height="18" fill="none" xmlns="http://www.w3.org/2000/svg"><path d="M8.44164 14.9256H9.4754s.31149-.0358.47048-.2162c.15112-.1683.15112-.4796.15112-.4796s-.0223-1.4671.6251-1.6826c.6381-.2139 1.4474 1.4161 2.31 2.0427.6589.4788 1.1546.376 1.1546.376l2.3099-.0335s1.2101-.0799.6381-1.0856c-.0438-.0799-.3244-.7423-1.7056-2.1012-1.4474-1.4168-1.2532-1.1884.4863-3.64443 1.0568-1.49598 1.4891-2.41032 1.3488-2.79859-.1194-.36543-.9064-.27484-.9064-.27484l-2.5912.0236s-.1943-.0236-.3346.06852c-.1402.0906-.2258.29767-.2258.29767s-.4115 1.16405-.9612 2.14691c-1.1675 2.07763-1.6315 2.19183-1.815 2.05479-.43448-.29767-.323-1.20288-.323-1.85152 0-2.01063.2907-3.38188-.56182-3.59885-.28056-.06928-.4899-.1142-1.21217-.12638-.92801-.01066-1.71071.00762-2.15457.23677-.29136.15455-.51796.49638-.38775.51389.17265.02284.5604.11115.76543.40882.26977.38523.25826 1.77246.25826 1.77246s.15179 2.37226-.35538 2.66689c-.3561.19946-.8309-.21317-1.86682-2.09818-.52875-.95926-.92873-2.03271-.92873-2.03271s-.07554-.1949-.2151-.3091c-.1633-.12562-.4007-.17129-.4007-.17129l-2.4711.02284s-.366888.01218-.4956591.18271c-.1194186.14846-.0115102.46821-.0115102.46821S2.00166 10.4902 4.19292 12.9005c2.0071 2.2093 4.28469 2.067 4.28469 2.067l-.03597-.0419Z" fill="#507299"/></svg>