<svg width="18" height="18" fill="none" xmlns="http://www.w3.org/2000/svg"><path fill-rule="evenodd" clip-rule="evenodd" d="M14.4193 6.47988c.2928-.29289.2928-.76776 0-1.06066l-1.8385-1.83847c-.2929-.2929-.7678-.2929-1.0607-.00001L.580777 14.5201c-.292894.2929-.292893.7678 0 1.0606l1.838473 1.8385c.2929.2929.76777.2929 1.06066 0L14.4193 6.47988Zm-2.3739-2.43447 1.9092 1.90919-3 3-1.90919-1.90919 2.99999-3Z" fill="#000"/><path d="M8 0H7v1H6v1h1v1h1V2h1V1H8V0ZM17 2h-1V1h-1v1h-1v1h1v1h1V3h1V2ZM15 11h1v1h-1v1h-1v-1h-1v-1h1v-1h1v1Z" fill="#000"/></svg>