<svg width="18" height="18" fill="none" xmlns="http://www.w3.org/2000/svg"><path fill-rule="evenodd" clip-rule="evenodd" d="M10.6963 16.9954c-2.29378 0-3.89676-2.0418-5.0671-3.5326-.19599-.2499-.3457-.44-.48658-.6074-.66872-.7945-1.59031-1.6209-2.40492-2.3516-.73297-.6572-1.42498-1.27807-1.63305-1.63308-.09991-.17036-.132033-.37098-.09048-.565.0392-.18329.13882-.33163.26643-.39658.1394-.07127.28912-.10733.44503-.10733.3572 0 .67167.18714.87237.34429l3.51543 2.7529c.03566.0281.0949.0278.13144-.0028.03684-.0305.04362-.0825.01592-.1213l-.01739-.0231c-.56852-.79319-3.42112-4.76828-3.71584-5.14999-.21249-.27575-.29855-.58151-.23607-.8391.0501-.20613.1898-.37318.40406-.48244.16947-.08669.34217-.13045.51341-.13045.43707 0 .7645.27604.96432.51051l3.60355 4.4245c.02977.03495.06484.05614.13381.01926.0445-.02724.05835-.07898.03271-.12247L4.41466 2.96231c-.13734-.2342-.17595-.4951-.10905-.73508.06779-.24301.23784-.44473.47863-.56775.15031-.07706.31859-.11751.48688-.11751.37488 0 .72354.19732.90803.51243l3.80543 6.13628c.02472.03991.06692.06467.13172.03633.0451-.02312.0652-.06825.0463-.12357-.2514-.73095-1.76125-4.88519-2.07572-5.56633-.31064-.67233-.19216-1.13687.36192-1.42006.51782-.2642 1.14381-.07128 1.4736.47913l3.687 8.30628c.0156.03523.0509.04706.099.05752.0407-.00247.0796-.03192.0902-.06907l.6604-2.28064c.0958-.30686.3151-.56115.6178-.71609.2991-.15274.6563-.18824.9846-.09852.6891.18824 1.0875.86057.8845 1.51253-.0961.37649-.4512 1.73571-.9829 3.43431l-.1017.3258c-.5768 1.8604-1.0324 3.33-3.1111 4.3923-.694.3548-1.3851.5348-2.0539.5348Z" fill="#FFC166"/><g opacity=".4" fill="#000"><path d="M14.009.368702c-.1243-.246594-.425-.3457458-.6715-.221463-.2466.124283-.3458.424938-.2215.671532l1.9687 3.906249c.1243.24659.425.34575.6716.22146.2466-.12428.3457-.42493.2214-.67153L14.009.368702ZM12.831 2.54482c-.1134-.25182-.4094-.3641-.6612-.25078-.2518.11332-.3641.40932-.2508.66114l.8438 1.875c.1133.25182.4093.3641.6611.25078.2519-.11332.3641-.40932.2508-.66114l-.8437-1.875ZM2.23024 12.2817c.18961-.2008.50606-.2098.70682-.0202l1.6875 1.5937c.20076.1897.2098.5061.0202.7069-.18961.2007-.50606.2098-.70682.0202l-1.6875-1.5938c-.20076-.1896-.2098-.5061-.0202-.7068ZM.842097 13.2604c-.201391-.189-.517813-.1789-.706747.0225-.1889339.2014-.1788354.5178.022556.7068l3.031254 2.8437c.20139.1889.51781.1788.70674-.0226.18894-.2013.17884-.5178-.02255-.7067L.842097 13.2604Z"/></g></svg>